G04 EAGLE Gerber RS-274X export*
G75*
%MOMM*%
%FSLAX34Y34*%
%LPD*%
%INBottom Copper*%
%IPPOS*%
%AMOC8*
5,1,8,0,0,1.08239X$1,22.5*%
G01*
%ADD10P,1.154694X8X292.500000*%
%ADD11C,1.879600*%
%ADD12P,2.034460X8X112.500000*%
%ADD13R,1.879600X1.879600*%
%ADD14P,2.749271X8X112.500000*%
%ADD15C,1.350000*%
%ADD16P,1.197556X8X22.500000*%
%ADD17P,1.814519X8X202.500000*%
%ADD18P,1.731824X8X22.500000*%
%ADD19P,4.130400X8X112.500000*%
%ADD20P,1.924489X8X112.500000*%
%ADD21C,1.108000*%
%ADD22C,0.254000*%
%ADD23C,0.406400*%

G36*
X881946Y6105D02*
X881946Y6105D01*
X882004Y6103D01*
X882086Y6125D01*
X882170Y6137D01*
X882223Y6160D01*
X882279Y6175D01*
X882352Y6218D01*
X882429Y6253D01*
X882474Y6291D01*
X882524Y6320D01*
X882582Y6382D01*
X882646Y6436D01*
X882678Y6485D01*
X882718Y6528D01*
X882757Y6603D01*
X882804Y6673D01*
X882821Y6729D01*
X882848Y6781D01*
X882859Y6849D01*
X882889Y6944D01*
X882892Y7044D01*
X882903Y7112D01*
X882903Y1053338D01*
X882895Y1053396D01*
X882897Y1053454D01*
X882875Y1053536D01*
X882863Y1053620D01*
X882840Y1053673D01*
X882825Y1053729D01*
X882782Y1053802D01*
X882747Y1053879D01*
X882709Y1053924D01*
X882680Y1053974D01*
X882618Y1054032D01*
X882564Y1054096D01*
X882515Y1054128D01*
X882472Y1054168D01*
X882397Y1054207D01*
X882327Y1054254D01*
X882271Y1054271D01*
X882219Y1054298D01*
X882151Y1054309D01*
X882056Y1054339D01*
X881956Y1054342D01*
X881888Y1054353D01*
X7112Y1054353D01*
X7054Y1054345D01*
X6996Y1054347D01*
X6914Y1054325D01*
X6830Y1054313D01*
X6777Y1054290D01*
X6721Y1054275D01*
X6648Y1054232D01*
X6571Y1054197D01*
X6526Y1054159D01*
X6476Y1054130D01*
X6418Y1054068D01*
X6354Y1054014D01*
X6322Y1053965D01*
X6282Y1053922D01*
X6243Y1053847D01*
X6196Y1053777D01*
X6179Y1053721D01*
X6152Y1053669D01*
X6141Y1053601D01*
X6111Y1053506D01*
X6108Y1053406D01*
X6097Y1053338D01*
X6097Y7112D01*
X6105Y7054D01*
X6103Y6996D01*
X6125Y6914D01*
X6137Y6830D01*
X6160Y6777D01*
X6175Y6721D01*
X6218Y6648D01*
X6253Y6571D01*
X6291Y6526D01*
X6320Y6476D01*
X6382Y6418D01*
X6436Y6354D01*
X6485Y6322D01*
X6528Y6282D01*
X6603Y6243D01*
X6673Y6196D01*
X6729Y6179D01*
X6781Y6152D01*
X6849Y6141D01*
X6944Y6111D01*
X7044Y6108D01*
X7112Y6097D01*
X881888Y6097D01*
X881946Y6105D01*
G37*
%LPC*%
G36*
X541469Y611806D02*
X541469Y611806D01*
X538779Y612921D01*
X536721Y614979D01*
X535606Y617669D01*
X535606Y620581D01*
X536721Y623271D01*
X538779Y625330D01*
X539250Y625524D01*
X539251Y625525D01*
X539252Y625526D01*
X539373Y625597D01*
X539494Y625669D01*
X539495Y625670D01*
X539497Y625671D01*
X539593Y625773D01*
X539690Y625875D01*
X539690Y625877D01*
X539691Y625878D01*
X539756Y626004D01*
X539820Y626128D01*
X539820Y626130D01*
X539821Y626131D01*
X539823Y626145D01*
X539875Y626407D01*
X539872Y626438D01*
X539876Y626462D01*
X539876Y652138D01*
X563887Y676149D01*
X591741Y676149D01*
X591799Y676157D01*
X591857Y676155D01*
X591939Y676177D01*
X592023Y676189D01*
X592076Y676212D01*
X592132Y676227D01*
X592205Y676270D01*
X592282Y676305D01*
X592327Y676343D01*
X592377Y676372D01*
X592435Y676434D01*
X592499Y676488D01*
X592531Y676537D01*
X592571Y676580D01*
X592610Y676655D01*
X592657Y676725D01*
X592674Y676781D01*
X592701Y676833D01*
X592712Y676901D01*
X592742Y676996D01*
X592745Y677096D01*
X592756Y677164D01*
X592756Y677731D01*
X593871Y680421D01*
X595929Y682479D01*
X598619Y683594D01*
X601531Y683594D01*
X604246Y682469D01*
X604248Y682469D01*
X604249Y682468D01*
X604383Y682434D01*
X604521Y682398D01*
X604523Y682398D01*
X604525Y682398D01*
X604665Y682402D01*
X604806Y682406D01*
X604807Y682407D01*
X604809Y682407D01*
X604941Y682450D01*
X605076Y682493D01*
X605078Y682494D01*
X605079Y682494D01*
X605091Y682503D01*
X605312Y682651D01*
X605332Y682675D01*
X605353Y682689D01*
X618954Y696290D01*
X619006Y696360D01*
X619066Y696424D01*
X619092Y696474D01*
X619125Y696518D01*
X619156Y696599D01*
X619196Y696677D01*
X619204Y696725D01*
X619226Y696783D01*
X619238Y696931D01*
X619251Y697008D01*
X619251Y814292D01*
X619244Y814341D01*
X619245Y814352D01*
X619241Y814368D01*
X619239Y814378D01*
X619236Y814466D01*
X619219Y814518D01*
X619211Y814573D01*
X619176Y814653D01*
X619149Y814736D01*
X619121Y814775D01*
X619095Y814833D01*
X618999Y814946D01*
X618954Y815010D01*
X612901Y821062D01*
X612901Y846738D01*
X612901Y846739D01*
X612901Y846741D01*
X612893Y846795D01*
X612895Y846840D01*
X612878Y846905D01*
X612861Y847019D01*
X612861Y847021D01*
X612861Y847022D01*
X612828Y847093D01*
X612823Y847115D01*
X612805Y847144D01*
X612804Y847148D01*
X612745Y847279D01*
X612744Y847280D01*
X612743Y847281D01*
X612679Y847357D01*
X612678Y847360D01*
X612674Y847363D01*
X612656Y847385D01*
X612562Y847496D01*
X612560Y847497D01*
X612559Y847498D01*
X612546Y847506D01*
X612325Y847653D01*
X612296Y847662D01*
X612275Y847676D01*
X611804Y847870D01*
X609746Y849929D01*
X608631Y852619D01*
X608631Y855531D01*
X609746Y858221D01*
X611804Y860279D01*
X614494Y861394D01*
X617406Y861394D01*
X620096Y860279D01*
X622154Y858221D01*
X623269Y855531D01*
X623269Y852884D01*
X623277Y852826D01*
X623275Y852768D01*
X623297Y852686D01*
X623309Y852602D01*
X623332Y852549D01*
X623347Y852493D01*
X623390Y852420D01*
X623425Y852343D01*
X623463Y852298D01*
X623492Y852248D01*
X623554Y852190D01*
X623608Y852126D01*
X623657Y852094D01*
X623700Y852054D01*
X623775Y852015D01*
X623845Y851968D01*
X623901Y851951D01*
X623953Y851924D01*
X624021Y851913D01*
X624116Y851883D01*
X624216Y851880D01*
X624284Y851869D01*
X626931Y851869D01*
X629621Y850754D01*
X631679Y848696D01*
X632794Y846006D01*
X632794Y843359D01*
X632802Y843301D01*
X632800Y843243D01*
X632822Y843161D01*
X632834Y843077D01*
X632857Y843024D01*
X632872Y842968D01*
X632915Y842895D01*
X632950Y842818D01*
X632988Y842773D01*
X633017Y842723D01*
X633079Y842665D01*
X633133Y842601D01*
X633182Y842569D01*
X633225Y842529D01*
X633300Y842490D01*
X633370Y842443D01*
X633426Y842426D01*
X633478Y842399D01*
X633546Y842388D01*
X633641Y842358D01*
X633741Y842355D01*
X633809Y842344D01*
X636456Y842344D01*
X639146Y841229D01*
X641204Y839171D01*
X642319Y836481D01*
X642319Y833569D01*
X641204Y830879D01*
X639146Y828820D01*
X638675Y828626D01*
X638674Y828625D01*
X638673Y828624D01*
X638552Y828553D01*
X638431Y828481D01*
X638430Y828480D01*
X638428Y828479D01*
X638330Y828374D01*
X638235Y828275D01*
X638235Y828273D01*
X638234Y828272D01*
X638169Y828146D01*
X638105Y828022D01*
X638105Y828020D01*
X638104Y828019D01*
X638102Y828004D01*
X638050Y827743D01*
X638053Y827712D01*
X638049Y827688D01*
X638049Y687712D01*
X607688Y657351D01*
X592462Y657351D01*
X586410Y663404D01*
X586340Y663456D01*
X586276Y663516D01*
X586226Y663542D01*
X586182Y663575D01*
X586101Y663606D01*
X586023Y663646D01*
X585975Y663654D01*
X585917Y663676D01*
X585769Y663688D01*
X585692Y663701D01*
X570008Y663701D01*
X569922Y663689D01*
X569834Y663686D01*
X569782Y663669D01*
X569727Y663661D01*
X569647Y663626D01*
X569564Y663599D01*
X569525Y663571D01*
X569467Y663545D01*
X569354Y663449D01*
X569290Y663404D01*
X555796Y649910D01*
X555744Y649840D01*
X555684Y649776D01*
X555658Y649726D01*
X555625Y649682D01*
X555594Y649601D01*
X555554Y649523D01*
X555546Y649475D01*
X555524Y649417D01*
X555512Y649269D01*
X555499Y649192D01*
X555499Y639162D01*
X555499Y639161D01*
X555499Y639159D01*
X555519Y639018D01*
X555539Y638881D01*
X555539Y638879D01*
X555539Y638878D01*
X555597Y638750D01*
X555655Y638621D01*
X555656Y638620D01*
X555657Y638619D01*
X555748Y638512D01*
X555838Y638404D01*
X555840Y638403D01*
X555841Y638402D01*
X555854Y638394D01*
X556075Y638247D01*
X556104Y638238D01*
X556125Y638224D01*
X556596Y638030D01*
X558654Y635971D01*
X559769Y633281D01*
X559769Y630369D01*
X558654Y627679D01*
X556596Y625621D01*
X553906Y624506D01*
X550994Y624506D01*
X550390Y624757D01*
X550362Y624764D01*
X550336Y624777D01*
X550224Y624799D01*
X550115Y624827D01*
X550085Y624827D01*
X550057Y624832D01*
X549944Y624823D01*
X549831Y624819D01*
X549803Y624810D01*
X549773Y624808D01*
X549668Y624767D01*
X549560Y624733D01*
X549535Y624716D01*
X549508Y624706D01*
X549418Y624637D01*
X549324Y624574D01*
X549305Y624552D01*
X549281Y624534D01*
X549213Y624443D01*
X549141Y624357D01*
X549129Y624330D01*
X549111Y624307D01*
X549071Y624200D01*
X549025Y624097D01*
X549021Y624068D01*
X549011Y624041D01*
X549002Y623928D01*
X548986Y623815D01*
X548990Y623786D01*
X548988Y623757D01*
X549006Y623681D01*
X549027Y623534D01*
X549053Y623477D01*
X549064Y623430D01*
X550244Y620581D01*
X550244Y617669D01*
X549129Y614979D01*
X547071Y612921D01*
X544381Y611806D01*
X541469Y611806D01*
G37*
%LPD*%
%LPC*%
G36*
X639894Y494331D02*
X639894Y494331D01*
X637204Y495446D01*
X635146Y497504D01*
X634031Y500194D01*
X634031Y503106D01*
X635146Y505796D01*
X637204Y507854D01*
X639894Y508969D01*
X642806Y508969D01*
X643276Y508774D01*
X643278Y508774D01*
X643279Y508773D01*
X643411Y508739D01*
X643551Y508703D01*
X643553Y508703D01*
X643554Y508703D01*
X643696Y508707D01*
X643835Y508711D01*
X643837Y508712D01*
X643839Y508712D01*
X643976Y508756D01*
X644106Y508798D01*
X644108Y508799D01*
X644109Y508799D01*
X644122Y508808D01*
X644342Y508956D01*
X644362Y508979D01*
X644382Y508994D01*
X646437Y511049D01*
X659413Y511049D01*
X659414Y511049D01*
X659416Y511049D01*
X659557Y511069D01*
X659694Y511089D01*
X659696Y511089D01*
X659697Y511089D01*
X659825Y511147D01*
X659954Y511205D01*
X659955Y511206D01*
X659956Y511207D01*
X660063Y511298D01*
X660171Y511388D01*
X660172Y511390D01*
X660173Y511391D01*
X660181Y511404D01*
X660328Y511625D01*
X660337Y511654D01*
X660351Y511675D01*
X660545Y512146D01*
X662604Y514204D01*
X665294Y515319D01*
X668259Y515319D01*
X668346Y515331D01*
X668433Y515334D01*
X668486Y515351D01*
X668541Y515359D01*
X668620Y515394D01*
X668704Y515421D01*
X668743Y515449D01*
X668800Y515475D01*
X668913Y515571D01*
X668977Y515616D01*
X691217Y537856D01*
X691269Y537926D01*
X691329Y537990D01*
X691355Y538039D01*
X691388Y538083D01*
X691419Y538165D01*
X691459Y538243D01*
X691467Y538290D01*
X691489Y538349D01*
X691501Y538497D01*
X691514Y538574D01*
X691514Y628040D01*
X691502Y628127D01*
X691499Y628214D01*
X691482Y628267D01*
X691474Y628321D01*
X691439Y628401D01*
X691412Y628484D01*
X691384Y628524D01*
X691358Y628581D01*
X691262Y628694D01*
X691217Y628758D01*
X689120Y630854D01*
X688926Y631325D01*
X688925Y631326D01*
X688924Y631327D01*
X688853Y631448D01*
X688781Y631569D01*
X688780Y631570D01*
X688779Y631572D01*
X688675Y631669D01*
X688575Y631765D01*
X688573Y631765D01*
X688572Y631766D01*
X688446Y631830D01*
X688322Y631895D01*
X688320Y631895D01*
X688319Y631896D01*
X688304Y631898D01*
X688043Y631950D01*
X688012Y631947D01*
X687988Y631951D01*
X633508Y631951D01*
X633422Y631939D01*
X633334Y631936D01*
X633282Y631919D01*
X633227Y631911D01*
X633147Y631876D01*
X633064Y631849D01*
X633025Y631821D01*
X632967Y631795D01*
X632854Y631699D01*
X632790Y631654D01*
X629644Y628507D01*
X629643Y628506D01*
X629642Y628505D01*
X629557Y628392D01*
X629473Y628280D01*
X629473Y628279D01*
X629472Y628278D01*
X629422Y628147D01*
X629372Y628015D01*
X629372Y628013D01*
X629371Y628012D01*
X629360Y627873D01*
X629348Y627731D01*
X629349Y627730D01*
X629349Y627728D01*
X629352Y627713D01*
X629404Y627453D01*
X629418Y627425D01*
X629424Y627401D01*
X629619Y626931D01*
X629619Y624019D01*
X628504Y621329D01*
X626446Y619271D01*
X623756Y618156D01*
X620844Y618156D01*
X618154Y619271D01*
X616096Y621329D01*
X614981Y624019D01*
X614981Y626931D01*
X616096Y629621D01*
X618154Y631679D01*
X620844Y632794D01*
X623756Y632794D01*
X624226Y632599D01*
X624228Y632599D01*
X624229Y632598D01*
X624362Y632564D01*
X624501Y632528D01*
X624503Y632528D01*
X624504Y632528D01*
X624645Y632532D01*
X624785Y632536D01*
X624787Y632537D01*
X624789Y632537D01*
X624924Y632581D01*
X625056Y632623D01*
X625058Y632624D01*
X625059Y632624D01*
X625072Y632633D01*
X625292Y632781D01*
X625312Y632804D01*
X625332Y632819D01*
X628479Y635965D01*
X628479Y635966D01*
X630562Y638049D01*
X687988Y638049D01*
X687989Y638049D01*
X687991Y638049D01*
X688132Y638069D01*
X688269Y638089D01*
X688271Y638089D01*
X688272Y638089D01*
X688400Y638147D01*
X688529Y638205D01*
X688530Y638206D01*
X688531Y638207D01*
X688638Y638298D01*
X688746Y638388D01*
X688747Y638390D01*
X688748Y638391D01*
X688756Y638404D01*
X688903Y638625D01*
X688912Y638654D01*
X688926Y638675D01*
X689120Y639146D01*
X691217Y641242D01*
X691269Y641312D01*
X691329Y641376D01*
X691355Y641425D01*
X691388Y641469D01*
X691419Y641551D01*
X691459Y641629D01*
X691467Y641677D01*
X691489Y641735D01*
X691501Y641883D01*
X691514Y641960D01*
X691514Y664751D01*
X691502Y664838D01*
X691499Y664925D01*
X691482Y664978D01*
X691474Y665033D01*
X691439Y665112D01*
X691412Y665196D01*
X691384Y665235D01*
X691358Y665292D01*
X691262Y665405D01*
X691217Y665469D01*
X647064Y709622D01*
X647064Y812190D01*
X647052Y812277D01*
X647049Y812364D01*
X647032Y812417D01*
X647024Y812471D01*
X646989Y812551D01*
X646962Y812634D01*
X646934Y812674D01*
X646908Y812731D01*
X646850Y812800D01*
X646825Y812841D01*
X646793Y812871D01*
X646767Y812908D01*
X644671Y815004D01*
X643556Y817694D01*
X643556Y820606D01*
X644671Y823296D01*
X646729Y825354D01*
X649419Y826469D01*
X652331Y826469D01*
X655021Y825354D01*
X657079Y823296D01*
X658194Y820606D01*
X658194Y817694D01*
X657079Y815004D01*
X654983Y812908D01*
X654970Y812891D01*
X654958Y812881D01*
X654928Y812836D01*
X654871Y812774D01*
X654845Y812725D01*
X654812Y812681D01*
X654781Y812599D01*
X654741Y812521D01*
X654733Y812473D01*
X654711Y812415D01*
X654699Y812267D01*
X654686Y812190D01*
X654686Y775413D01*
X654690Y775384D01*
X654687Y775354D01*
X654710Y775243D01*
X654726Y775131D01*
X654738Y775105D01*
X654743Y775076D01*
X654795Y774975D01*
X654842Y774872D01*
X654861Y774849D01*
X654874Y774823D01*
X654952Y774741D01*
X655025Y774655D01*
X655050Y774639D01*
X655070Y774617D01*
X655168Y774560D01*
X655262Y774497D01*
X655290Y774488D01*
X655315Y774474D01*
X655425Y774446D01*
X655533Y774411D01*
X655563Y774411D01*
X655591Y774403D01*
X655704Y774407D01*
X655817Y774404D01*
X655846Y774412D01*
X655875Y774413D01*
X655983Y774447D01*
X656092Y774476D01*
X656118Y774491D01*
X656146Y774500D01*
X656209Y774546D01*
X656337Y774621D01*
X656380Y774667D01*
X656419Y774695D01*
X664553Y782829D01*
X676547Y782829D01*
X685029Y774347D01*
X685029Y762353D01*
X676547Y753871D01*
X664553Y753871D01*
X656419Y762005D01*
X656395Y762023D01*
X656376Y762045D01*
X656282Y762108D01*
X656192Y762176D01*
X656164Y762186D01*
X656140Y762203D01*
X656032Y762237D01*
X655926Y762277D01*
X655897Y762280D01*
X655869Y762289D01*
X655755Y762291D01*
X655643Y762301D01*
X655614Y762295D01*
X655585Y762296D01*
X655475Y762267D01*
X655364Y762245D01*
X655338Y762231D01*
X655310Y762224D01*
X655212Y762166D01*
X655112Y762114D01*
X655090Y762094D01*
X655065Y762079D01*
X654988Y761996D01*
X654906Y761918D01*
X654891Y761893D01*
X654871Y761871D01*
X654819Y761771D01*
X654762Y761673D01*
X654755Y761644D01*
X654741Y761618D01*
X654728Y761541D01*
X654692Y761397D01*
X654694Y761335D01*
X654686Y761287D01*
X654686Y713199D01*
X654698Y713112D01*
X654701Y713025D01*
X654718Y712972D01*
X654726Y712917D01*
X654761Y712838D01*
X654788Y712754D01*
X654816Y712715D01*
X654842Y712658D01*
X654938Y712545D01*
X654983Y712481D01*
X679386Y688078D01*
X679410Y688060D01*
X679429Y688038D01*
X679523Y687975D01*
X679613Y687907D01*
X679641Y687897D01*
X679665Y687880D01*
X679773Y687846D01*
X679879Y687806D01*
X679908Y687803D01*
X679936Y687795D01*
X680050Y687792D01*
X680162Y687782D01*
X680191Y687788D01*
X680220Y687787D01*
X680330Y687816D01*
X680441Y687838D01*
X680467Y687852D01*
X680495Y687859D01*
X680593Y687917D01*
X680693Y687969D01*
X680715Y687989D01*
X680740Y688004D01*
X680817Y688087D01*
X680899Y688165D01*
X680914Y688190D01*
X680934Y688212D01*
X680986Y688313D01*
X681043Y688410D01*
X681050Y688439D01*
X681064Y688465D01*
X681077Y688542D01*
X681113Y688686D01*
X681111Y688748D01*
X681119Y688796D01*
X681119Y696319D01*
X690519Y696319D01*
X690519Y686919D01*
X682996Y686919D01*
X682967Y686915D01*
X682938Y686918D01*
X682827Y686895D01*
X682714Y686879D01*
X682688Y686867D01*
X682659Y686862D01*
X682558Y686810D01*
X682455Y686763D01*
X682433Y686744D01*
X682407Y686731D01*
X682325Y686653D01*
X682238Y686580D01*
X682222Y686555D01*
X682200Y686535D01*
X682143Y686437D01*
X682080Y686343D01*
X682072Y686315D01*
X682057Y686290D01*
X682029Y686180D01*
X681995Y686072D01*
X681994Y686042D01*
X681987Y686014D01*
X681990Y685901D01*
X681987Y685788D01*
X681995Y685759D01*
X681996Y685730D01*
X682031Y685622D01*
X682059Y685513D01*
X682074Y685487D01*
X682083Y685459D01*
X682129Y685396D01*
X682204Y685268D01*
X682250Y685225D01*
X682278Y685186D01*
X696606Y670858D01*
X699136Y668328D01*
X699136Y641960D01*
X699148Y641873D01*
X699151Y641786D01*
X699168Y641733D01*
X699176Y641679D01*
X699211Y641599D01*
X699238Y641516D01*
X699266Y641476D01*
X699292Y641419D01*
X699388Y641306D01*
X699433Y641242D01*
X701529Y639146D01*
X702644Y636456D01*
X702644Y633544D01*
X701529Y630854D01*
X699433Y628758D01*
X699381Y628688D01*
X699321Y628624D01*
X699295Y628575D01*
X699262Y628531D01*
X699231Y628449D01*
X699191Y628371D01*
X699183Y628323D01*
X699161Y628265D01*
X699149Y628117D01*
X699136Y628040D01*
X699136Y534997D01*
X674366Y510227D01*
X674314Y510157D01*
X674254Y510093D01*
X674228Y510044D01*
X674195Y510000D01*
X674164Y509918D01*
X674124Y509840D01*
X674116Y509793D01*
X674094Y509734D01*
X674082Y509586D01*
X674069Y509509D01*
X674069Y506544D01*
X672954Y503854D01*
X670896Y501796D01*
X668206Y500681D01*
X665294Y500681D01*
X662604Y501796D01*
X660545Y503854D01*
X660351Y504325D01*
X660350Y504326D01*
X660349Y504327D01*
X660278Y504448D01*
X660206Y504569D01*
X660205Y504570D01*
X660204Y504572D01*
X660100Y504669D01*
X660000Y504765D01*
X659998Y504765D01*
X659997Y504766D01*
X659871Y504831D01*
X659747Y504895D01*
X659745Y504895D01*
X659744Y504896D01*
X659729Y504898D01*
X659468Y504950D01*
X659437Y504947D01*
X659413Y504951D01*
X649424Y504951D01*
X649310Y504935D01*
X649196Y504925D01*
X649170Y504915D01*
X649142Y504911D01*
X649037Y504864D01*
X648930Y504823D01*
X648908Y504807D01*
X648883Y504795D01*
X648795Y504721D01*
X648704Y504652D01*
X648687Y504629D01*
X648666Y504612D01*
X648602Y504516D01*
X648533Y504424D01*
X648524Y504398D01*
X648508Y504375D01*
X648474Y504265D01*
X648433Y504158D01*
X648431Y504130D01*
X648422Y504104D01*
X648420Y503989D01*
X648410Y503875D01*
X648416Y503850D01*
X648415Y503820D01*
X648482Y503563D01*
X648486Y503547D01*
X648669Y503106D01*
X648669Y500194D01*
X647554Y497504D01*
X645496Y495446D01*
X642806Y494331D01*
X639894Y494331D01*
G37*
%LPD*%
%LPC*%
G36*
X452569Y145081D02*
X452569Y145081D01*
X449879Y146196D01*
X447821Y148254D01*
X446706Y150944D01*
X446706Y153856D01*
X446957Y154460D01*
X446964Y154488D01*
X446977Y154514D01*
X446999Y154626D01*
X447027Y154735D01*
X447027Y154765D01*
X447032Y154793D01*
X447023Y154906D01*
X447019Y155019D01*
X447010Y155047D01*
X447008Y155077D01*
X446967Y155182D01*
X446933Y155290D01*
X446916Y155315D01*
X446906Y155342D01*
X446837Y155432D01*
X446774Y155526D01*
X446752Y155545D01*
X446734Y155569D01*
X446643Y155637D01*
X446557Y155709D01*
X446530Y155721D01*
X446507Y155739D01*
X446400Y155779D01*
X446297Y155825D01*
X446268Y155829D01*
X446241Y155839D01*
X446128Y155848D01*
X446015Y155864D01*
X445986Y155860D01*
X445957Y155862D01*
X445881Y155844D01*
X445734Y155823D01*
X445677Y155797D01*
X445630Y155786D01*
X442781Y154606D01*
X439869Y154606D01*
X437179Y155721D01*
X435121Y157779D01*
X434006Y160469D01*
X434006Y163381D01*
X435121Y166071D01*
X437217Y168167D01*
X437269Y168237D01*
X437329Y168301D01*
X437355Y168350D01*
X437388Y168394D01*
X437419Y168476D01*
X437459Y168554D01*
X437467Y168602D01*
X437489Y168660D01*
X437501Y168808D01*
X437514Y168885D01*
X437514Y203716D01*
X437510Y203745D01*
X437513Y203774D01*
X437490Y203886D01*
X437474Y203998D01*
X437462Y204024D01*
X437457Y204053D01*
X437405Y204154D01*
X437358Y204257D01*
X437339Y204280D01*
X437326Y204306D01*
X437248Y204388D01*
X437175Y204474D01*
X437150Y204490D01*
X437130Y204512D01*
X437032Y204569D01*
X436938Y204632D01*
X436910Y204641D01*
X436885Y204655D01*
X436775Y204683D01*
X436667Y204717D01*
X436637Y204718D01*
X436609Y204725D01*
X436496Y204722D01*
X436383Y204725D01*
X436354Y204717D01*
X436325Y204716D01*
X436217Y204682D01*
X436108Y204653D01*
X436082Y204638D01*
X436054Y204629D01*
X435991Y204583D01*
X435863Y204508D01*
X435820Y204462D01*
X435781Y204434D01*
X429974Y198627D01*
X427481Y198627D01*
X427481Y208534D01*
X427473Y208592D01*
X427475Y208650D01*
X427453Y208732D01*
X427441Y208815D01*
X427417Y208869D01*
X427403Y208925D01*
X427360Y208998D01*
X427325Y209075D01*
X427287Y209119D01*
X427257Y209170D01*
X427196Y209227D01*
X427141Y209292D01*
X427093Y209324D01*
X427050Y209364D01*
X426975Y209403D01*
X426905Y209449D01*
X426849Y209467D01*
X426797Y209494D01*
X426729Y209505D01*
X426634Y209535D01*
X426534Y209538D01*
X426466Y209549D01*
X425449Y209549D01*
X425449Y209551D01*
X426466Y209551D01*
X426524Y209559D01*
X426582Y209558D01*
X426664Y209579D01*
X426747Y209591D01*
X426801Y209615D01*
X426857Y209629D01*
X426930Y209672D01*
X427007Y209707D01*
X427052Y209745D01*
X427102Y209775D01*
X427160Y209836D01*
X427224Y209891D01*
X427256Y209939D01*
X427296Y209982D01*
X427335Y210057D01*
X427381Y210127D01*
X427399Y210183D01*
X427426Y210235D01*
X427437Y210303D01*
X427467Y210398D01*
X427470Y210498D01*
X427481Y210566D01*
X427481Y220473D01*
X429974Y220473D01*
X435781Y214666D01*
X435805Y214648D01*
X435824Y214626D01*
X435918Y214563D01*
X436008Y214495D01*
X436036Y214485D01*
X436060Y214468D01*
X436168Y214434D01*
X436274Y214394D01*
X436303Y214391D01*
X436331Y214383D01*
X436445Y214380D01*
X436557Y214370D01*
X436586Y214376D01*
X436615Y214375D01*
X436725Y214404D01*
X436836Y214426D01*
X436862Y214440D01*
X436890Y214447D01*
X436988Y214505D01*
X437088Y214557D01*
X437110Y214577D01*
X437135Y214592D01*
X437212Y214675D01*
X437294Y214753D01*
X437309Y214778D01*
X437329Y214800D01*
X437381Y214900D01*
X437438Y214998D01*
X437445Y215027D01*
X437459Y215053D01*
X437472Y215130D01*
X437508Y215274D01*
X437506Y215336D01*
X437514Y215384D01*
X437514Y250215D01*
X437502Y250302D01*
X437499Y250389D01*
X437482Y250442D01*
X437474Y250496D01*
X437439Y250576D01*
X437412Y250659D01*
X437384Y250699D01*
X437358Y250756D01*
X437262Y250869D01*
X437217Y250933D01*
X435121Y253029D01*
X434006Y255719D01*
X434006Y258631D01*
X435121Y261321D01*
X437179Y263379D01*
X439869Y264494D01*
X442781Y264494D01*
X445471Y263379D01*
X447529Y261321D01*
X448644Y258631D01*
X448644Y255719D01*
X447529Y253029D01*
X445433Y250933D01*
X445381Y250863D01*
X445321Y250799D01*
X445295Y250750D01*
X445262Y250706D01*
X445231Y250624D01*
X445191Y250546D01*
X445183Y250498D01*
X445161Y250440D01*
X445149Y250292D01*
X445136Y250215D01*
X445136Y168885D01*
X445148Y168798D01*
X445151Y168711D01*
X445168Y168658D01*
X445176Y168604D01*
X445211Y168524D01*
X445238Y168441D01*
X445266Y168401D01*
X445292Y168344D01*
X445388Y168231D01*
X445433Y168167D01*
X447530Y166071D01*
X448261Y164305D01*
X448305Y164231D01*
X448340Y164152D01*
X448377Y164109D01*
X448406Y164060D01*
X448468Y164001D01*
X448524Y163935D01*
X448571Y163904D01*
X448612Y163865D01*
X448689Y163825D01*
X448760Y163778D01*
X448814Y163760D01*
X448865Y163734D01*
X448949Y163718D01*
X449031Y163692D01*
X449088Y163690D01*
X449144Y163679D01*
X449229Y163687D01*
X449315Y163685D01*
X449370Y163699D01*
X449427Y163704D01*
X449507Y163735D01*
X449590Y163756D01*
X449639Y163785D01*
X449692Y163806D01*
X449761Y163858D01*
X449835Y163902D01*
X449874Y163943D01*
X449919Y163977D01*
X449971Y164046D01*
X450029Y164109D01*
X450055Y164160D01*
X450089Y164205D01*
X450120Y164286D01*
X450159Y164362D01*
X450167Y164411D01*
X450190Y164471D01*
X450201Y164616D01*
X450214Y164693D01*
X450214Y230178D01*
X484842Y264806D01*
X484894Y264876D01*
X484954Y264940D01*
X484980Y264989D01*
X485013Y265033D01*
X485044Y265115D01*
X485084Y265193D01*
X485092Y265240D01*
X485114Y265299D01*
X485126Y265447D01*
X485139Y265524D01*
X485139Y354990D01*
X485127Y355077D01*
X485124Y355164D01*
X485107Y355217D01*
X485099Y355271D01*
X485064Y355351D01*
X485037Y355434D01*
X485009Y355474D01*
X484983Y355531D01*
X484887Y355644D01*
X484842Y355708D01*
X482746Y357804D01*
X481631Y360494D01*
X481631Y363406D01*
X482746Y366096D01*
X484842Y368192D01*
X484894Y368262D01*
X484954Y368326D01*
X484980Y368375D01*
X485013Y368419D01*
X485044Y368501D01*
X485084Y368579D01*
X485092Y368627D01*
X485114Y368685D01*
X485126Y368833D01*
X485139Y368910D01*
X485139Y383565D01*
X485127Y383652D01*
X485124Y383739D01*
X485107Y383792D01*
X485099Y383846D01*
X485064Y383926D01*
X485037Y384009D01*
X485009Y384049D01*
X484983Y384106D01*
X484887Y384219D01*
X484842Y384283D01*
X482746Y386379D01*
X481631Y389069D01*
X481631Y391981D01*
X482746Y394671D01*
X484804Y396729D01*
X487494Y397844D01*
X490406Y397844D01*
X493096Y396729D01*
X495154Y394671D01*
X496269Y391981D01*
X496269Y389069D01*
X495154Y386379D01*
X493058Y384283D01*
X493006Y384213D01*
X492946Y384149D01*
X492920Y384100D01*
X492887Y384056D01*
X492856Y383974D01*
X492816Y383896D01*
X492808Y383848D01*
X492786Y383790D01*
X492774Y383642D01*
X492761Y383565D01*
X492761Y368910D01*
X492773Y368823D01*
X492776Y368736D01*
X492793Y368683D01*
X492801Y368629D01*
X492836Y368549D01*
X492863Y368466D01*
X492891Y368426D01*
X492917Y368369D01*
X493013Y368256D01*
X493058Y368192D01*
X495154Y366096D01*
X496269Y363406D01*
X496269Y360494D01*
X495154Y357804D01*
X493058Y355708D01*
X493006Y355638D01*
X492946Y355574D01*
X492920Y355525D01*
X492887Y355481D01*
X492856Y355399D01*
X492816Y355321D01*
X492808Y355273D01*
X492786Y355215D01*
X492774Y355067D01*
X492761Y354990D01*
X492761Y261947D01*
X490231Y259417D01*
X458133Y227319D01*
X458081Y227249D01*
X458021Y227185D01*
X457995Y227136D01*
X457962Y227092D01*
X457931Y227010D01*
X457891Y226932D01*
X457883Y226885D01*
X457861Y226826D01*
X457849Y226678D01*
X457836Y226601D01*
X457836Y215025D01*
X457840Y214996D01*
X457837Y214966D01*
X457860Y214855D01*
X457876Y214743D01*
X457888Y214716D01*
X457893Y214688D01*
X457945Y214587D01*
X457992Y214484D01*
X458011Y214461D01*
X458024Y214435D01*
X458102Y214353D01*
X458175Y214267D01*
X458200Y214250D01*
X458220Y214229D01*
X458318Y214172D01*
X458412Y214109D01*
X458440Y214100D01*
X458465Y214085D01*
X458575Y214058D01*
X458683Y214023D01*
X458713Y214023D01*
X458741Y214015D01*
X458854Y214019D01*
X458967Y214016D01*
X458996Y214023D01*
X459025Y214024D01*
X459133Y214059D01*
X459242Y214088D01*
X459268Y214103D01*
X459296Y214112D01*
X459359Y214157D01*
X459487Y214233D01*
X459530Y214279D01*
X459569Y214307D01*
X465481Y220219D01*
X474319Y220219D01*
X480569Y213969D01*
X480569Y205131D01*
X474319Y198881D01*
X465481Y198881D01*
X459569Y204793D01*
X459545Y204811D01*
X459526Y204833D01*
X459477Y204866D01*
X459440Y204901D01*
X459396Y204923D01*
X459342Y204964D01*
X459314Y204975D01*
X459290Y204991D01*
X459222Y205012D01*
X459187Y205030D01*
X459154Y205036D01*
X459076Y205065D01*
X459047Y205068D01*
X459019Y205077D01*
X458905Y205080D01*
X458880Y205082D01*
X458856Y205086D01*
X458851Y205086D01*
X458844Y205085D01*
X458793Y205089D01*
X458764Y205083D01*
X458735Y205084D01*
X458625Y205055D01*
X458599Y205050D01*
X458569Y205046D01*
X458563Y205043D01*
X458514Y205033D01*
X458488Y205020D01*
X458460Y205012D01*
X458362Y204954D01*
X458344Y204945D01*
X458310Y204930D01*
X458303Y204923D01*
X458262Y204902D01*
X458240Y204882D01*
X458215Y204867D01*
X458138Y204784D01*
X458132Y204779D01*
X458093Y204746D01*
X458086Y204735D01*
X458056Y204706D01*
X458041Y204681D01*
X458021Y204660D01*
X457971Y204563D01*
X457935Y204509D01*
X457930Y204492D01*
X457912Y204461D01*
X457905Y204433D01*
X457891Y204406D01*
X457878Y204329D01*
X457878Y204326D01*
X457850Y204238D01*
X457849Y204214D01*
X457842Y204185D01*
X457844Y204123D01*
X457836Y204075D01*
X457836Y159360D01*
X457843Y159308D01*
X457842Y159283D01*
X457848Y159260D01*
X457851Y159186D01*
X457868Y159133D01*
X457876Y159079D01*
X457911Y158999D01*
X457938Y158916D01*
X457966Y158876D01*
X457992Y158819D01*
X458088Y158706D01*
X458133Y158642D01*
X460229Y156546D01*
X461344Y153856D01*
X461344Y150944D01*
X460229Y148254D01*
X458171Y146196D01*
X455481Y145081D01*
X452569Y145081D01*
G37*
%LPD*%
%LPC*%
G36*
X195394Y589581D02*
X195394Y589581D01*
X192704Y590696D01*
X190646Y592754D01*
X189531Y595444D01*
X189531Y598356D01*
X190646Y601046D01*
X192704Y603104D01*
X195394Y604219D01*
X198306Y604219D01*
X200996Y603104D01*
X203092Y601008D01*
X203162Y600956D01*
X203226Y600896D01*
X203275Y600870D01*
X203319Y600837D01*
X203401Y600806D01*
X203479Y600766D01*
X203527Y600758D01*
X203585Y600736D01*
X203733Y600724D01*
X203810Y600711D01*
X329590Y600711D01*
X329677Y600723D01*
X329764Y600726D01*
X329817Y600743D01*
X329871Y600751D01*
X329951Y600786D01*
X330034Y600813D01*
X330074Y600841D01*
X330131Y600867D01*
X330244Y600963D01*
X330308Y601008D01*
X332404Y603104D01*
X335094Y604219D01*
X338006Y604219D01*
X340696Y603104D01*
X342792Y601008D01*
X342862Y600956D01*
X342926Y600896D01*
X342975Y600870D01*
X343019Y600837D01*
X343101Y600806D01*
X343179Y600766D01*
X343227Y600758D01*
X343285Y600736D01*
X343433Y600724D01*
X343510Y600711D01*
X421665Y600711D01*
X421752Y600723D01*
X421839Y600726D01*
X421892Y600743D01*
X421946Y600751D01*
X422026Y600786D01*
X422109Y600813D01*
X422149Y600841D01*
X422206Y600867D01*
X422319Y600963D01*
X422383Y601008D01*
X424479Y603104D01*
X427169Y604219D01*
X430134Y604219D01*
X430221Y604231D01*
X430308Y604234D01*
X430361Y604251D01*
X430416Y604259D01*
X430495Y604294D01*
X430579Y604321D01*
X430618Y604349D01*
X430675Y604375D01*
X430788Y604471D01*
X430852Y604516D01*
X462217Y635881D01*
X462224Y635891D01*
X462225Y635891D01*
X462227Y635894D01*
X462269Y635951D01*
X462329Y636015D01*
X462355Y636064D01*
X462388Y636108D01*
X462419Y636190D01*
X462459Y636268D01*
X462467Y636315D01*
X462489Y636374D01*
X462501Y636522D01*
X462514Y636599D01*
X462514Y686158D01*
X462506Y686216D01*
X462508Y686274D01*
X462486Y686356D01*
X462474Y686440D01*
X462451Y686493D01*
X462436Y686549D01*
X462393Y686622D01*
X462358Y686699D01*
X462320Y686744D01*
X462291Y686794D01*
X462229Y686852D01*
X462175Y686916D01*
X462126Y686948D01*
X462083Y686988D01*
X462008Y687027D01*
X461938Y687074D01*
X461882Y687091D01*
X461830Y687118D01*
X461762Y687129D01*
X461667Y687159D01*
X461567Y687162D01*
X461499Y687173D01*
X456190Y687173D01*
X455148Y688215D01*
X455148Y708485D01*
X456190Y709527D01*
X476460Y709527D01*
X477502Y708485D01*
X477502Y688215D01*
X476460Y687173D01*
X471151Y687173D01*
X471093Y687165D01*
X471035Y687167D01*
X470953Y687145D01*
X470869Y687133D01*
X470816Y687110D01*
X470760Y687095D01*
X470687Y687052D01*
X470610Y687017D01*
X470565Y686979D01*
X470515Y686950D01*
X470457Y686888D01*
X470393Y686834D01*
X470361Y686785D01*
X470321Y686742D01*
X470282Y686667D01*
X470235Y686597D01*
X470218Y686541D01*
X470191Y686489D01*
X470180Y686421D01*
X470150Y686326D01*
X470147Y686226D01*
X470136Y686158D01*
X470136Y633022D01*
X467606Y630492D01*
X436241Y599127D01*
X436189Y599057D01*
X436129Y598993D01*
X436103Y598944D01*
X436070Y598900D01*
X436039Y598818D01*
X435999Y598740D01*
X435991Y598693D01*
X435969Y598634D01*
X435957Y598486D01*
X435944Y598409D01*
X435944Y595444D01*
X434829Y592754D01*
X432771Y590696D01*
X430081Y589581D01*
X427169Y589581D01*
X424479Y590696D01*
X422383Y592792D01*
X422313Y592844D01*
X422249Y592904D01*
X422200Y592930D01*
X422156Y592963D01*
X422074Y592994D01*
X421996Y593034D01*
X421948Y593042D01*
X421890Y593064D01*
X421742Y593076D01*
X421665Y593089D01*
X343510Y593089D01*
X343423Y593077D01*
X343336Y593074D01*
X343283Y593057D01*
X343229Y593049D01*
X343149Y593014D01*
X343066Y592987D01*
X343026Y592959D01*
X342969Y592933D01*
X342856Y592837D01*
X342792Y592792D01*
X340696Y590696D01*
X338006Y589581D01*
X335094Y589581D01*
X332404Y590696D01*
X330308Y592792D01*
X330238Y592844D01*
X330174Y592904D01*
X330125Y592930D01*
X330081Y592963D01*
X329999Y592994D01*
X329921Y593034D01*
X329873Y593042D01*
X329815Y593064D01*
X329667Y593076D01*
X329590Y593089D01*
X203810Y593089D01*
X203723Y593077D01*
X203636Y593074D01*
X203583Y593057D01*
X203529Y593049D01*
X203449Y593014D01*
X203366Y592987D01*
X203326Y592959D01*
X203269Y592933D01*
X203156Y592837D01*
X203092Y592792D01*
X200996Y590696D01*
X198306Y589581D01*
X195394Y589581D01*
G37*
%LPD*%
%LPC*%
G36*
X81094Y348281D02*
X81094Y348281D01*
X78404Y349396D01*
X76345Y351454D01*
X76151Y351925D01*
X76150Y351926D01*
X76149Y351927D01*
X76078Y352048D01*
X76006Y352169D01*
X76005Y352170D01*
X76004Y352172D01*
X75900Y352269D01*
X75800Y352365D01*
X75798Y352365D01*
X75797Y352366D01*
X75671Y352431D01*
X75547Y352495D01*
X75545Y352495D01*
X75544Y352496D01*
X75529Y352498D01*
X75268Y352550D01*
X75237Y352547D01*
X75213Y352551D01*
X65412Y352551D01*
X63329Y354634D01*
X63329Y354635D01*
X56985Y360979D01*
X56984Y360979D01*
X54901Y363062D01*
X54901Y368156D01*
X54893Y368214D01*
X54895Y368272D01*
X54873Y368354D01*
X54861Y368438D01*
X54838Y368491D01*
X54823Y368547D01*
X54780Y368620D01*
X54745Y368697D01*
X54707Y368742D01*
X54678Y368792D01*
X54616Y368850D01*
X54562Y368914D01*
X54513Y368946D01*
X54470Y368986D01*
X54395Y369025D01*
X54325Y369072D01*
X54269Y369089D01*
X54217Y369116D01*
X54149Y369127D01*
X54054Y369157D01*
X53954Y369160D01*
X53902Y369169D01*
X48171Y374899D01*
X48171Y383001D01*
X53899Y388729D01*
X62001Y388729D01*
X67232Y383497D01*
X67279Y383462D01*
X67319Y383420D01*
X67392Y383377D01*
X67459Y383326D01*
X67514Y383305D01*
X67564Y383276D01*
X67646Y383255D01*
X67725Y383225D01*
X67783Y383220D01*
X67840Y383206D01*
X67924Y383208D01*
X68008Y383201D01*
X68066Y383213D01*
X68124Y383215D01*
X68204Y383241D01*
X68287Y383257D01*
X68339Y383284D01*
X68395Y383302D01*
X68451Y383342D01*
X68539Y383388D01*
X68612Y383457D01*
X68668Y383497D01*
X73900Y388729D01*
X82001Y388729D01*
X87232Y383497D01*
X87279Y383462D01*
X87319Y383420D01*
X87392Y383377D01*
X87459Y383326D01*
X87514Y383305D01*
X87564Y383276D01*
X87646Y383255D01*
X87725Y383225D01*
X87783Y383220D01*
X87840Y383206D01*
X87924Y383208D01*
X88008Y383201D01*
X88066Y383213D01*
X88124Y383215D01*
X88204Y383241D01*
X88287Y383257D01*
X88339Y383284D01*
X88395Y383302D01*
X88451Y383342D01*
X88539Y383388D01*
X88612Y383457D01*
X88668Y383497D01*
X93900Y388729D01*
X102000Y388729D01*
X107232Y383497D01*
X107279Y383462D01*
X107319Y383420D01*
X107392Y383377D01*
X107459Y383326D01*
X107514Y383305D01*
X107564Y383276D01*
X107646Y383255D01*
X107725Y383225D01*
X107783Y383220D01*
X107840Y383206D01*
X107924Y383208D01*
X108008Y383201D01*
X108066Y383213D01*
X108124Y383215D01*
X108204Y383241D01*
X108287Y383257D01*
X108339Y383284D01*
X108395Y383302D01*
X108451Y383342D01*
X108539Y383388D01*
X108612Y383457D01*
X108668Y383497D01*
X113899Y388729D01*
X122000Y388729D01*
X127232Y383497D01*
X127279Y383462D01*
X127319Y383420D01*
X127392Y383377D01*
X127459Y383326D01*
X127514Y383305D01*
X127564Y383276D01*
X127646Y383255D01*
X127725Y383225D01*
X127783Y383220D01*
X127840Y383206D01*
X127924Y383208D01*
X128008Y383201D01*
X128066Y383213D01*
X128124Y383215D01*
X128204Y383241D01*
X128287Y383257D01*
X128339Y383284D01*
X128395Y383302D01*
X128451Y383342D01*
X128539Y383388D01*
X128612Y383457D01*
X128668Y383497D01*
X133899Y388729D01*
X142000Y388729D01*
X147232Y383497D01*
X147279Y383462D01*
X147319Y383420D01*
X147392Y383377D01*
X147459Y383326D01*
X147514Y383305D01*
X147564Y383276D01*
X147646Y383255D01*
X147725Y383225D01*
X147783Y383220D01*
X147840Y383206D01*
X147924Y383208D01*
X148008Y383201D01*
X148066Y383213D01*
X148124Y383215D01*
X148204Y383241D01*
X148287Y383257D01*
X148339Y383284D01*
X148395Y383302D01*
X148451Y383342D01*
X148539Y383388D01*
X148612Y383457D01*
X148668Y383497D01*
X153899Y388729D01*
X162001Y388729D01*
X167729Y383001D01*
X167729Y374899D01*
X162001Y369171D01*
X153899Y369171D01*
X148668Y374403D01*
X148621Y374438D01*
X148581Y374480D01*
X148508Y374523D01*
X148441Y374574D01*
X148386Y374595D01*
X148336Y374624D01*
X148254Y374645D01*
X148175Y374675D01*
X148117Y374680D01*
X148060Y374694D01*
X147976Y374692D01*
X147892Y374699D01*
X147834Y374687D01*
X147776Y374685D01*
X147696Y374659D01*
X147613Y374643D01*
X147561Y374616D01*
X147505Y374598D01*
X147449Y374558D01*
X147361Y374512D01*
X147288Y374443D01*
X147232Y374403D01*
X142000Y369171D01*
X133899Y369171D01*
X128668Y374403D01*
X128621Y374438D01*
X128581Y374480D01*
X128508Y374523D01*
X128441Y374574D01*
X128386Y374595D01*
X128336Y374624D01*
X128254Y374645D01*
X128175Y374675D01*
X128117Y374680D01*
X128060Y374694D01*
X127976Y374692D01*
X127892Y374699D01*
X127834Y374687D01*
X127776Y374685D01*
X127696Y374659D01*
X127613Y374643D01*
X127561Y374616D01*
X127505Y374598D01*
X127449Y374558D01*
X127361Y374512D01*
X127288Y374443D01*
X127232Y374403D01*
X122000Y369171D01*
X113899Y369171D01*
X108668Y374403D01*
X108621Y374438D01*
X108581Y374480D01*
X108508Y374523D01*
X108441Y374574D01*
X108386Y374595D01*
X108336Y374624D01*
X108254Y374645D01*
X108175Y374675D01*
X108117Y374680D01*
X108060Y374694D01*
X107976Y374692D01*
X107892Y374699D01*
X107834Y374687D01*
X107776Y374685D01*
X107696Y374659D01*
X107613Y374643D01*
X107561Y374616D01*
X107505Y374598D01*
X107449Y374558D01*
X107361Y374512D01*
X107288Y374443D01*
X107232Y374403D01*
X102000Y369171D01*
X93900Y369171D01*
X88668Y374403D01*
X88621Y374438D01*
X88581Y374480D01*
X88508Y374523D01*
X88441Y374574D01*
X88386Y374595D01*
X88336Y374624D01*
X88254Y374645D01*
X88175Y374675D01*
X88117Y374680D01*
X88060Y374694D01*
X87976Y374692D01*
X87892Y374699D01*
X87834Y374687D01*
X87776Y374685D01*
X87696Y374659D01*
X87613Y374643D01*
X87561Y374616D01*
X87505Y374598D01*
X87449Y374558D01*
X87361Y374512D01*
X87288Y374443D01*
X87232Y374403D01*
X82001Y369171D01*
X73900Y369171D01*
X68668Y374403D01*
X68621Y374438D01*
X68581Y374480D01*
X68508Y374523D01*
X68441Y374574D01*
X68386Y374595D01*
X68336Y374624D01*
X68254Y374645D01*
X68175Y374675D01*
X68117Y374680D01*
X68060Y374694D01*
X67976Y374692D01*
X67892Y374699D01*
X67834Y374687D01*
X67776Y374685D01*
X67696Y374659D01*
X67613Y374643D01*
X67561Y374616D01*
X67505Y374598D01*
X67449Y374558D01*
X67361Y374512D01*
X67288Y374443D01*
X67232Y374403D01*
X61998Y369169D01*
X61956Y369163D01*
X61898Y369165D01*
X61816Y369143D01*
X61732Y369131D01*
X61679Y369108D01*
X61623Y369093D01*
X61550Y369050D01*
X61473Y369015D01*
X61428Y368977D01*
X61378Y368948D01*
X61320Y368886D01*
X61256Y368832D01*
X61224Y368783D01*
X61184Y368740D01*
X61145Y368665D01*
X61098Y368595D01*
X61081Y368539D01*
X61054Y368487D01*
X61043Y368419D01*
X61013Y368324D01*
X61010Y368224D01*
X60999Y368156D01*
X60999Y366008D01*
X61011Y365922D01*
X61014Y365834D01*
X61031Y365782D01*
X61039Y365727D01*
X61074Y365647D01*
X61101Y365564D01*
X61129Y365525D01*
X61155Y365467D01*
X61251Y365354D01*
X61296Y365290D01*
X67640Y358946D01*
X67710Y358894D01*
X67774Y358834D01*
X67824Y358808D01*
X67868Y358775D01*
X67949Y358744D01*
X68027Y358704D01*
X68075Y358696D01*
X68133Y358674D01*
X68281Y358662D01*
X68358Y358649D01*
X75213Y358649D01*
X75214Y358649D01*
X75216Y358649D01*
X75357Y358669D01*
X75494Y358689D01*
X75496Y358689D01*
X75497Y358689D01*
X75625Y358747D01*
X75754Y358805D01*
X75755Y358806D01*
X75756Y358807D01*
X75863Y358898D01*
X75971Y358988D01*
X75972Y358990D01*
X75973Y358991D01*
X75981Y359004D01*
X76128Y359225D01*
X76137Y359254D01*
X76151Y359275D01*
X76345Y359746D01*
X78404Y361804D01*
X81094Y362919D01*
X84006Y362919D01*
X86696Y361804D01*
X88754Y359746D01*
X89869Y357056D01*
X89869Y354144D01*
X88754Y351454D01*
X86696Y349396D01*
X84006Y348281D01*
X81094Y348281D01*
G37*
%LPD*%
%LPC*%
G36*
X862144Y624506D02*
X862144Y624506D01*
X859454Y625621D01*
X857396Y627679D01*
X856281Y630369D01*
X856281Y633281D01*
X857396Y635971D01*
X859454Y638029D01*
X862144Y639144D01*
X865056Y639144D01*
X865526Y638949D01*
X865528Y638949D01*
X865529Y638948D01*
X865662Y638914D01*
X865801Y638878D01*
X865803Y638878D01*
X865804Y638878D01*
X865945Y638882D01*
X866085Y638886D01*
X866087Y638887D01*
X866089Y638887D01*
X866224Y638931D01*
X866356Y638973D01*
X866358Y638974D01*
X866359Y638974D01*
X866372Y638983D01*
X866592Y639131D01*
X866612Y639154D01*
X866632Y639169D01*
X872954Y645490D01*
X873006Y645560D01*
X873066Y645624D01*
X873092Y645674D01*
X873125Y645718D01*
X873156Y645799D01*
X873196Y645877D01*
X873204Y645925D01*
X873226Y645983D01*
X873238Y646131D01*
X873251Y646208D01*
X873251Y690467D01*
X873239Y690553D01*
X873236Y690641D01*
X873219Y690693D01*
X873211Y690748D01*
X873176Y690828D01*
X873149Y690911D01*
X873121Y690950D01*
X873095Y691008D01*
X872999Y691121D01*
X872954Y691184D01*
X872700Y691439D01*
X872676Y691456D01*
X872657Y691479D01*
X872563Y691541D01*
X872473Y691609D01*
X872445Y691620D01*
X872421Y691636D01*
X872313Y691670D01*
X872207Y691711D01*
X872178Y691713D01*
X872150Y691722D01*
X872037Y691725D01*
X871924Y691734D01*
X871895Y691729D01*
X871866Y691729D01*
X871756Y691701D01*
X871645Y691678D01*
X871619Y691665D01*
X871591Y691657D01*
X871493Y691600D01*
X871393Y691547D01*
X871371Y691527D01*
X871346Y691512D01*
X871269Y691430D01*
X871187Y691352D01*
X871172Y691326D01*
X871152Y691305D01*
X871100Y691204D01*
X871043Y691106D01*
X871036Y691078D01*
X871022Y691052D01*
X871009Y690975D01*
X870973Y690831D01*
X870975Y690768D01*
X870967Y690721D01*
X870967Y690498D01*
X864108Y690498D01*
X864050Y690490D01*
X863992Y690492D01*
X863910Y690470D01*
X863827Y690458D01*
X863773Y690435D01*
X863717Y690420D01*
X863644Y690377D01*
X863567Y690342D01*
X863523Y690304D01*
X863472Y690275D01*
X863415Y690213D01*
X863350Y690159D01*
X863318Y690110D01*
X863278Y690067D01*
X863239Y689992D01*
X863193Y689922D01*
X863175Y689866D01*
X863148Y689814D01*
X863137Y689746D01*
X863107Y689651D01*
X863104Y689551D01*
X863093Y689483D01*
X863093Y689482D01*
X863092Y689482D01*
X863034Y689474D01*
X862976Y689475D01*
X862894Y689454D01*
X862810Y689442D01*
X862757Y689418D01*
X862701Y689404D01*
X862628Y689360D01*
X862551Y689326D01*
X862506Y689288D01*
X862456Y689258D01*
X862398Y689197D01*
X862334Y689142D01*
X862302Y689094D01*
X862262Y689051D01*
X862223Y688976D01*
X862176Y688906D01*
X862159Y688850D01*
X862132Y688798D01*
X862121Y688730D01*
X862091Y688635D01*
X862088Y688535D01*
X862077Y688467D01*
X862077Y676783D01*
X862085Y676725D01*
X862083Y676667D01*
X862105Y676585D01*
X862117Y676502D01*
X862140Y676448D01*
X862155Y676392D01*
X862198Y676319D01*
X862233Y676242D01*
X862271Y676198D01*
X862300Y676147D01*
X862362Y676090D01*
X862416Y676025D01*
X862465Y675993D01*
X862508Y675953D01*
X862583Y675914D01*
X862653Y675868D01*
X862709Y675850D01*
X862761Y675823D01*
X862829Y675812D01*
X862924Y675782D01*
X863024Y675779D01*
X863092Y675768D01*
X863093Y675768D01*
X863093Y675767D01*
X863101Y675709D01*
X863100Y675651D01*
X863121Y675569D01*
X863133Y675485D01*
X863157Y675432D01*
X863171Y675376D01*
X863215Y675303D01*
X863249Y675226D01*
X863287Y675181D01*
X863317Y675131D01*
X863378Y675073D01*
X863433Y675009D01*
X863481Y674977D01*
X863524Y674937D01*
X863599Y674898D01*
X863669Y674851D01*
X863725Y674834D01*
X863777Y674807D01*
X863845Y674796D01*
X863940Y674766D01*
X864040Y674763D01*
X864108Y674752D01*
X870967Y674752D01*
X870967Y673224D01*
X868206Y670463D01*
X868171Y670417D01*
X868129Y670376D01*
X868086Y670304D01*
X868035Y670236D01*
X868015Y670181D01*
X867985Y670131D01*
X867964Y670049D01*
X867934Y669970D01*
X867929Y669912D01*
X867915Y669855D01*
X867918Y669771D01*
X867911Y669687D01*
X867922Y669630D01*
X867924Y669571D01*
X867950Y669491D01*
X867967Y669408D01*
X867994Y669356D01*
X868012Y669301D01*
X868052Y669245D01*
X868098Y669156D01*
X868166Y669084D01*
X868206Y669027D01*
X870713Y666521D01*
X870713Y660629D01*
X868206Y658123D01*
X868171Y658076D01*
X868129Y658035D01*
X868086Y657963D01*
X868035Y657895D01*
X868015Y657841D01*
X867985Y657790D01*
X867964Y657709D01*
X867934Y657630D01*
X867929Y657571D01*
X867915Y657515D01*
X867918Y657430D01*
X867911Y657346D01*
X867922Y657289D01*
X867924Y657231D01*
X867950Y657150D01*
X867967Y657068D01*
X867994Y657016D01*
X868012Y656960D01*
X868052Y656904D01*
X868098Y656815D01*
X868166Y656743D01*
X868206Y656687D01*
X870967Y653926D01*
X870967Y652398D01*
X864108Y652398D01*
X864050Y652390D01*
X863992Y652392D01*
X863910Y652370D01*
X863827Y652358D01*
X863773Y652335D01*
X863717Y652320D01*
X863644Y652277D01*
X863567Y652242D01*
X863523Y652204D01*
X863472Y652175D01*
X863415Y652113D01*
X863350Y652059D01*
X863318Y652010D01*
X863278Y651967D01*
X863239Y651892D01*
X863193Y651822D01*
X863175Y651766D01*
X863148Y651714D01*
X863137Y651646D01*
X863107Y651551D01*
X863104Y651451D01*
X863093Y651383D01*
X863093Y651382D01*
X863092Y651382D01*
X863034Y651374D01*
X862976Y651375D01*
X862894Y651354D01*
X862810Y651342D01*
X862757Y651318D01*
X862701Y651304D01*
X862628Y651260D01*
X862551Y651226D01*
X862506Y651188D01*
X862456Y651158D01*
X862398Y651097D01*
X862334Y651042D01*
X862302Y650994D01*
X862262Y650951D01*
X862223Y650876D01*
X862176Y650806D01*
X862159Y650750D01*
X862132Y650698D01*
X862121Y650630D01*
X862091Y650535D01*
X862088Y650435D01*
X862077Y650367D01*
X862077Y643508D01*
X860549Y643508D01*
X857788Y646269D01*
X857742Y646304D01*
X857701Y646346D01*
X857629Y646389D01*
X857561Y646440D01*
X857506Y646460D01*
X857456Y646490D01*
X857374Y646511D01*
X857295Y646541D01*
X857237Y646546D01*
X857180Y646560D01*
X857096Y646557D01*
X857012Y646564D01*
X856955Y646553D01*
X856896Y646551D01*
X856816Y646525D01*
X856733Y646508D01*
X856681Y646481D01*
X856626Y646463D01*
X856570Y646423D01*
X856481Y646377D01*
X856409Y646309D01*
X856352Y646269D01*
X853846Y643762D01*
X847954Y643762D01*
X843787Y647929D01*
X843787Y653821D01*
X846473Y656507D01*
X846508Y656554D01*
X846551Y656594D01*
X846593Y656667D01*
X846644Y656734D01*
X846665Y656789D01*
X846694Y656839D01*
X846715Y656921D01*
X846745Y657000D01*
X846750Y657058D01*
X846765Y657115D01*
X846762Y657199D01*
X846769Y657283D01*
X846757Y657341D01*
X846756Y657399D01*
X846730Y657479D01*
X846713Y657562D01*
X846686Y657614D01*
X846668Y657670D01*
X846628Y657726D01*
X846582Y657814D01*
X846513Y657887D01*
X846473Y657943D01*
X843787Y660629D01*
X843787Y666521D01*
X846473Y669207D01*
X846508Y669254D01*
X846551Y669294D01*
X846593Y669367D01*
X846644Y669434D01*
X846665Y669489D01*
X846694Y669539D01*
X846715Y669621D01*
X846745Y669700D01*
X846750Y669758D01*
X846765Y669815D01*
X846762Y669899D01*
X846769Y669983D01*
X846757Y670041D01*
X846756Y670099D01*
X846730Y670179D01*
X846713Y670262D01*
X846686Y670314D01*
X846668Y670370D01*
X846628Y670426D01*
X846582Y670514D01*
X846513Y670587D01*
X846473Y670643D01*
X843787Y673329D01*
X843787Y679221D01*
X846473Y681907D01*
X846508Y681954D01*
X846551Y681994D01*
X846593Y682067D01*
X846644Y682134D01*
X846665Y682189D01*
X846694Y682239D01*
X846715Y682321D01*
X846745Y682400D01*
X846750Y682458D01*
X846765Y682515D01*
X846762Y682599D01*
X846769Y682683D01*
X846757Y682741D01*
X846756Y682799D01*
X846730Y682879D01*
X846713Y682962D01*
X846686Y683014D01*
X846668Y683070D01*
X846628Y683126D01*
X846582Y683214D01*
X846513Y683287D01*
X846473Y683343D01*
X843787Y686029D01*
X843787Y691921D01*
X846473Y694607D01*
X846508Y694654D01*
X846551Y694694D01*
X846593Y694767D01*
X846644Y694834D01*
X846665Y694889D01*
X846694Y694939D01*
X846715Y695021D01*
X846745Y695100D01*
X846750Y695158D01*
X846765Y695215D01*
X846762Y695299D01*
X846769Y695383D01*
X846757Y695441D01*
X846756Y695499D01*
X846730Y695579D01*
X846713Y695662D01*
X846686Y695714D01*
X846668Y695770D01*
X846628Y695826D01*
X846582Y695914D01*
X846513Y695987D01*
X846473Y696043D01*
X843787Y698729D01*
X843787Y704621D01*
X847954Y708788D01*
X853846Y708788D01*
X856532Y706102D01*
X856579Y706067D01*
X856619Y706024D01*
X856692Y705982D01*
X856759Y705931D01*
X856814Y705910D01*
X856864Y705881D01*
X856946Y705860D01*
X857025Y705830D01*
X857083Y705825D01*
X857140Y705810D01*
X857224Y705813D01*
X857308Y705806D01*
X857366Y705818D01*
X857424Y705819D01*
X857504Y705845D01*
X857587Y705862D01*
X857639Y705889D01*
X857695Y705907D01*
X857751Y705947D01*
X857839Y705993D01*
X857912Y706062D01*
X857968Y706102D01*
X860654Y708788D01*
X866546Y708788D01*
X870713Y704621D01*
X870713Y702469D01*
X870725Y702383D01*
X870728Y702295D01*
X870745Y702243D01*
X870753Y702188D01*
X870788Y702108D01*
X870815Y702025D01*
X870843Y701986D01*
X870869Y701928D01*
X870965Y701815D01*
X871010Y701751D01*
X879349Y693413D01*
X879349Y643262D01*
X877266Y641179D01*
X877265Y641179D01*
X870944Y634857D01*
X870943Y634856D01*
X870942Y634855D01*
X870857Y634742D01*
X870773Y634630D01*
X870773Y634629D01*
X870772Y634628D01*
X870722Y634497D01*
X870672Y634365D01*
X870672Y634363D01*
X870671Y634362D01*
X870660Y634223D01*
X870648Y634081D01*
X870649Y634080D01*
X870649Y634078D01*
X870652Y634063D01*
X870704Y633803D01*
X870718Y633775D01*
X870724Y633751D01*
X870919Y633281D01*
X870919Y630369D01*
X869804Y627679D01*
X867746Y625621D01*
X865056Y624506D01*
X862144Y624506D01*
G37*
%LPD*%
%LPC*%
G36*
X643262Y393826D02*
X643262Y393826D01*
X634035Y403054D01*
X633965Y403106D01*
X633901Y403166D01*
X633851Y403192D01*
X633807Y403225D01*
X633726Y403256D01*
X633648Y403296D01*
X633600Y403304D01*
X633542Y403326D01*
X633394Y403338D01*
X633317Y403351D01*
X617862Y403351D01*
X586410Y434804D01*
X586340Y434856D01*
X586276Y434916D01*
X586226Y434942D01*
X586182Y434975D01*
X586101Y435006D01*
X586023Y435046D01*
X585975Y435054D01*
X585917Y435076D01*
X585769Y435088D01*
X585692Y435101D01*
X569451Y435101D01*
X569421Y435097D01*
X569390Y435099D01*
X569313Y435082D01*
X569170Y435061D01*
X569111Y435035D01*
X569063Y435024D01*
X566606Y434006D01*
X563694Y434006D01*
X561004Y435121D01*
X558946Y437179D01*
X557831Y439869D01*
X557831Y442781D01*
X558946Y445471D01*
X561004Y447529D01*
X563694Y448644D01*
X566606Y448644D01*
X569296Y447529D01*
X571354Y445471D01*
X572469Y442781D01*
X572469Y442214D01*
X572477Y442156D01*
X572475Y442098D01*
X572497Y442016D01*
X572509Y441932D01*
X572532Y441879D01*
X572547Y441823D01*
X572590Y441750D01*
X572625Y441673D01*
X572663Y441628D01*
X572692Y441578D01*
X572754Y441520D01*
X572808Y441456D01*
X572857Y441424D01*
X572900Y441384D01*
X572975Y441345D01*
X573045Y441298D01*
X573101Y441281D01*
X573153Y441254D01*
X573221Y441243D01*
X573316Y441213D01*
X573416Y441210D01*
X573484Y441199D01*
X588638Y441199D01*
X620090Y409746D01*
X620160Y409694D01*
X620224Y409634D01*
X620274Y409608D01*
X620318Y409575D01*
X620399Y409544D01*
X620477Y409504D01*
X620525Y409496D01*
X620583Y409474D01*
X620731Y409462D01*
X620808Y409449D01*
X636263Y409449D01*
X645490Y400221D01*
X645560Y400169D01*
X645624Y400109D01*
X645674Y400083D01*
X645718Y400050D01*
X645799Y400019D01*
X645877Y399979D01*
X645925Y399971D01*
X645983Y399949D01*
X646131Y399937D01*
X646208Y399924D01*
X757142Y399924D01*
X757228Y399936D01*
X757316Y399939D01*
X757368Y399956D01*
X757423Y399964D01*
X757503Y399999D01*
X757586Y400026D01*
X757625Y400054D01*
X757683Y400080D01*
X757796Y400176D01*
X757860Y400221D01*
X764271Y406632D01*
X764306Y406679D01*
X764348Y406719D01*
X764391Y406792D01*
X764441Y406859D01*
X764462Y406914D01*
X764492Y406964D01*
X764513Y407046D01*
X764543Y407125D01*
X764548Y407183D01*
X764562Y407240D01*
X764559Y407324D01*
X764566Y407408D01*
X764555Y407466D01*
X764553Y407524D01*
X764527Y407604D01*
X764510Y407687D01*
X764484Y407739D01*
X764465Y407795D01*
X764425Y407851D01*
X764379Y407939D01*
X764311Y408012D01*
X764271Y408068D01*
X763523Y408815D01*
X763523Y429085D01*
X764565Y430127D01*
X784835Y430127D01*
X785877Y429085D01*
X785877Y408815D01*
X784835Y407773D01*
X774455Y407773D01*
X774369Y407761D01*
X774281Y407758D01*
X774229Y407741D01*
X774174Y407733D01*
X774094Y407698D01*
X774011Y407671D01*
X773972Y407643D01*
X773914Y407617D01*
X773801Y407521D01*
X773737Y407476D01*
X760088Y393826D01*
X643262Y393826D01*
G37*
%LPD*%
%LPC*%
G36*
X646244Y545131D02*
X646244Y545131D01*
X643554Y546246D01*
X641496Y548304D01*
X640381Y550994D01*
X640381Y553906D01*
X641496Y556596D01*
X643554Y558655D01*
X644025Y558849D01*
X644026Y558850D01*
X644027Y558851D01*
X644148Y558922D01*
X644269Y558994D01*
X644270Y558995D01*
X644272Y558996D01*
X644369Y559100D01*
X644465Y559200D01*
X644465Y559202D01*
X644466Y559203D01*
X644531Y559329D01*
X644595Y559453D01*
X644595Y559455D01*
X644596Y559456D01*
X644598Y559471D01*
X644650Y559732D01*
X644647Y559763D01*
X644651Y559787D01*
X644651Y563467D01*
X644641Y563539D01*
X644642Y563585D01*
X644637Y563604D01*
X644636Y563641D01*
X644619Y563693D01*
X644611Y563748D01*
X644583Y563811D01*
X644570Y563860D01*
X644559Y563880D01*
X644549Y563911D01*
X644521Y563950D01*
X644495Y564008D01*
X644454Y564056D01*
X644425Y564105D01*
X644382Y564146D01*
X644354Y564185D01*
X599003Y609536D01*
X599001Y609537D01*
X599000Y609538D01*
X598885Y609625D01*
X598775Y609707D01*
X598774Y609707D01*
X598773Y609708D01*
X598641Y609758D01*
X598510Y609808D01*
X598508Y609808D01*
X598507Y609809D01*
X598362Y609820D01*
X598226Y609832D01*
X598225Y609831D01*
X598223Y609831D01*
X598208Y609828D01*
X597948Y609776D01*
X597920Y609762D01*
X597896Y609756D01*
X595181Y608631D01*
X592269Y608631D01*
X589579Y609746D01*
X587521Y611804D01*
X586406Y614494D01*
X586406Y617406D01*
X587521Y620096D01*
X589579Y622155D01*
X590541Y622553D01*
X590615Y622597D01*
X590694Y622632D01*
X590737Y622669D01*
X590786Y622698D01*
X590845Y622760D01*
X590911Y622816D01*
X590942Y622863D01*
X590981Y622904D01*
X591021Y622981D01*
X591068Y623052D01*
X591086Y623106D01*
X591112Y623157D01*
X591128Y623241D01*
X591154Y623323D01*
X591156Y623380D01*
X591167Y623436D01*
X591159Y623521D01*
X591161Y623607D01*
X591147Y623662D01*
X591142Y623719D01*
X591111Y623799D01*
X591090Y623882D01*
X591061Y623931D01*
X591040Y623984D01*
X590988Y624053D01*
X590944Y624127D01*
X590903Y624166D01*
X590869Y624211D01*
X590800Y624263D01*
X590737Y624321D01*
X590686Y624347D01*
X590641Y624381D01*
X590561Y624412D01*
X590484Y624451D01*
X590435Y624459D01*
X590375Y624482D01*
X590230Y624493D01*
X590153Y624506D01*
X589094Y624506D01*
X586404Y625621D01*
X584346Y627679D01*
X583231Y630369D01*
X583231Y633281D01*
X584346Y635971D01*
X586404Y638029D01*
X589094Y639144D01*
X592006Y639144D01*
X594696Y638029D01*
X596754Y635971D01*
X597869Y633281D01*
X597869Y630369D01*
X597674Y629899D01*
X597674Y629897D01*
X597673Y629896D01*
X597639Y629763D01*
X597603Y629624D01*
X597603Y629622D01*
X597603Y629621D01*
X597607Y629478D01*
X597611Y629340D01*
X597612Y629338D01*
X597612Y629336D01*
X597656Y629201D01*
X597698Y629069D01*
X597699Y629067D01*
X597699Y629066D01*
X597708Y629053D01*
X597856Y628833D01*
X597880Y628813D01*
X597894Y628793D01*
X660270Y566416D01*
X660340Y566364D01*
X660404Y566304D01*
X660454Y566278D01*
X660498Y566245D01*
X660579Y566214D01*
X660657Y566174D01*
X660705Y566166D01*
X660763Y566144D01*
X660911Y566132D01*
X660988Y566119D01*
X661856Y566119D01*
X664546Y565004D01*
X666604Y562946D01*
X667719Y560256D01*
X667719Y557344D01*
X666604Y554654D01*
X664546Y552596D01*
X661856Y551481D01*
X658944Y551481D01*
X656423Y552526D01*
X656311Y552554D01*
X656202Y552589D01*
X656174Y552590D01*
X656147Y552597D01*
X656033Y552593D01*
X655918Y552596D01*
X655891Y552589D01*
X655863Y552589D01*
X655754Y552554D01*
X655643Y552525D01*
X655619Y552510D01*
X655592Y552502D01*
X655497Y552438D01*
X655398Y552379D01*
X655379Y552359D01*
X655356Y552344D01*
X655282Y552256D01*
X655204Y552172D01*
X655191Y552147D01*
X655173Y552126D01*
X655127Y552021D01*
X655074Y551919D01*
X655070Y551894D01*
X655058Y551866D01*
X655021Y551603D01*
X655019Y551588D01*
X655019Y550994D01*
X653904Y548304D01*
X651846Y546246D01*
X649156Y545131D01*
X646244Y545131D01*
G37*
%LPD*%
%LPC*%
G36*
X477969Y611806D02*
X477969Y611806D01*
X475279Y612921D01*
X473221Y614979D01*
X472106Y617669D01*
X472106Y620581D01*
X473221Y623271D01*
X475279Y625329D01*
X477969Y626444D01*
X480881Y626444D01*
X483571Y625329D01*
X485630Y623271D01*
X486586Y620961D01*
X486645Y620862D01*
X486698Y620760D01*
X486717Y620740D01*
X486731Y620716D01*
X486814Y620637D01*
X486893Y620554D01*
X486917Y620540D01*
X486938Y620521D01*
X487040Y620468D01*
X487139Y620410D01*
X487166Y620403D01*
X487190Y620391D01*
X487303Y620368D01*
X487414Y620340D01*
X487442Y620341D01*
X487469Y620336D01*
X487584Y620345D01*
X487698Y620349D01*
X487725Y620358D01*
X487752Y620360D01*
X487860Y620401D01*
X487969Y620437D01*
X487989Y620451D01*
X488018Y620462D01*
X488230Y620623D01*
X488242Y620631D01*
X595634Y728023D01*
X595686Y728093D01*
X595746Y728157D01*
X595772Y728206D01*
X595805Y728250D01*
X595836Y728332D01*
X595876Y728410D01*
X595884Y728457D01*
X595906Y728516D01*
X595918Y728664D01*
X595931Y728741D01*
X595931Y731706D01*
X597046Y734396D01*
X599104Y736454D01*
X601794Y737569D01*
X604706Y737569D01*
X607396Y736454D01*
X609454Y734396D01*
X610569Y731706D01*
X610569Y728794D01*
X609454Y726104D01*
X607396Y724046D01*
X604706Y722931D01*
X601741Y722931D01*
X601654Y722919D01*
X601567Y722916D01*
X601514Y722899D01*
X601459Y722891D01*
X601380Y722856D01*
X601296Y722829D01*
X601257Y722801D01*
X601200Y722775D01*
X601087Y722679D01*
X601023Y722634D01*
X493058Y614669D01*
X490528Y612139D01*
X481887Y612139D01*
X481856Y612135D01*
X481825Y612137D01*
X481749Y612120D01*
X481605Y612099D01*
X481546Y612073D01*
X481498Y612062D01*
X480881Y611806D01*
X477969Y611806D01*
G37*
%LPD*%
%LPC*%
G36*
X41310Y468091D02*
X41310Y468091D01*
X29091Y480310D01*
X29091Y497590D01*
X41310Y509809D01*
X58590Y509809D01*
X70809Y497590D01*
X70809Y480310D01*
X58590Y468091D01*
X41310Y468091D01*
G37*
%LPD*%
%LPC*%
G36*
X157310Y468091D02*
X157310Y468091D01*
X145091Y480310D01*
X145091Y497590D01*
X157310Y509809D01*
X174590Y509809D01*
X186809Y497590D01*
X186809Y480310D01*
X174590Y468091D01*
X157310Y468091D01*
G37*
%LPD*%
%LPC*%
G36*
X830394Y545131D02*
X830394Y545131D01*
X827704Y546246D01*
X825646Y548304D01*
X824531Y550994D01*
X824531Y553906D01*
X825646Y556596D01*
X827704Y558655D01*
X828175Y558849D01*
X828176Y558850D01*
X828177Y558851D01*
X828298Y558922D01*
X828419Y558994D01*
X828420Y558995D01*
X828422Y558996D01*
X828519Y559100D01*
X828615Y559200D01*
X828615Y559202D01*
X828616Y559203D01*
X828681Y559329D01*
X828745Y559453D01*
X828745Y559455D01*
X828746Y559456D01*
X828748Y559471D01*
X828800Y559732D01*
X828797Y559763D01*
X828801Y559787D01*
X828801Y702866D01*
X828793Y702924D01*
X828795Y702982D01*
X828773Y703064D01*
X828761Y703148D01*
X828738Y703201D01*
X828723Y703257D01*
X828680Y703330D01*
X828645Y703407D01*
X828607Y703452D01*
X828578Y703502D01*
X828516Y703560D01*
X828462Y703624D01*
X828413Y703656D01*
X828370Y703696D01*
X828295Y703735D01*
X828225Y703782D01*
X828169Y703799D01*
X828117Y703826D01*
X828049Y703837D01*
X827954Y703867D01*
X827854Y703870D01*
X827786Y703881D01*
X827219Y703881D01*
X824529Y704996D01*
X822471Y707054D01*
X821356Y709744D01*
X821356Y712656D01*
X822471Y715346D01*
X824529Y717404D01*
X827219Y718519D01*
X830131Y718519D01*
X832821Y717404D01*
X834879Y715346D01*
X835994Y712656D01*
X835994Y709744D01*
X834976Y707287D01*
X834968Y707257D01*
X834954Y707230D01*
X834941Y707152D01*
X834905Y707012D01*
X834907Y706948D01*
X834899Y706899D01*
X834899Y559787D01*
X834899Y559786D01*
X834899Y559784D01*
X834919Y559643D01*
X834939Y559506D01*
X834939Y559504D01*
X834939Y559503D01*
X834997Y559375D01*
X835055Y559246D01*
X835056Y559245D01*
X835057Y559244D01*
X835148Y559137D01*
X835238Y559029D01*
X835240Y559028D01*
X835241Y559027D01*
X835254Y559019D01*
X835475Y558872D01*
X835504Y558863D01*
X835525Y558849D01*
X835996Y558655D01*
X838054Y556596D01*
X839169Y553906D01*
X839169Y550994D01*
X838054Y548304D01*
X835996Y546246D01*
X833306Y545131D01*
X830394Y545131D01*
G37*
%LPD*%
%LPC*%
G36*
X27119Y332406D02*
X27119Y332406D01*
X24429Y333521D01*
X22371Y335579D01*
X21256Y338269D01*
X21256Y341181D01*
X22371Y343871D01*
X24429Y345929D01*
X27119Y347044D01*
X30031Y347044D01*
X32721Y345930D01*
X34817Y343833D01*
X34887Y343781D01*
X34951Y343721D01*
X35000Y343695D01*
X35044Y343662D01*
X35126Y343631D01*
X35204Y343591D01*
X35252Y343583D01*
X35310Y343561D01*
X35458Y343549D01*
X35535Y343536D01*
X118651Y343536D01*
X118738Y343548D01*
X118825Y343551D01*
X118878Y343568D01*
X118933Y343576D01*
X119012Y343611D01*
X119096Y343638D01*
X119135Y343666D01*
X119192Y343692D01*
X119305Y343788D01*
X119369Y343833D01*
X125734Y350198D01*
X125786Y350268D01*
X125846Y350332D01*
X125872Y350381D01*
X125905Y350425D01*
X125936Y350507D01*
X125976Y350585D01*
X125984Y350632D01*
X126006Y350691D01*
X126018Y350839D01*
X126031Y350916D01*
X126031Y353881D01*
X127146Y356571D01*
X129204Y358629D01*
X131894Y359744D01*
X134806Y359744D01*
X137496Y358629D01*
X139554Y356571D01*
X140669Y353881D01*
X140669Y350969D01*
X139554Y348279D01*
X137496Y346221D01*
X134806Y345106D01*
X131841Y345106D01*
X131754Y345094D01*
X131667Y345091D01*
X131614Y345074D01*
X131559Y345066D01*
X131480Y345031D01*
X131396Y345004D01*
X131357Y344976D01*
X131300Y344950D01*
X131187Y344854D01*
X131123Y344809D01*
X122228Y335914D01*
X35535Y335914D01*
X35448Y335902D01*
X35361Y335899D01*
X35308Y335882D01*
X35254Y335874D01*
X35174Y335839D01*
X35090Y335812D01*
X35051Y335784D01*
X34994Y335758D01*
X34881Y335662D01*
X34817Y335617D01*
X32721Y333520D01*
X30031Y332406D01*
X27119Y332406D01*
G37*
%LPD*%
%LPC*%
G36*
X662119Y405431D02*
X662119Y405431D01*
X659429Y406546D01*
X657371Y408604D01*
X656256Y411294D01*
X656256Y414206D01*
X657371Y416896D01*
X659429Y418954D01*
X662119Y420069D01*
X665031Y420069D01*
X667721Y418954D01*
X669780Y416896D01*
X669974Y416425D01*
X669975Y416424D01*
X669976Y416423D01*
X670047Y416302D01*
X670119Y416181D01*
X670120Y416180D01*
X670121Y416178D01*
X670225Y416081D01*
X670325Y415985D01*
X670327Y415985D01*
X670328Y415984D01*
X670454Y415919D01*
X670578Y415855D01*
X670580Y415855D01*
X670581Y415854D01*
X670596Y415852D01*
X670857Y415800D01*
X670888Y415803D01*
X670912Y415799D01*
X703167Y415799D01*
X703253Y415811D01*
X703341Y415814D01*
X703393Y415831D01*
X703448Y415839D01*
X703528Y415874D01*
X703611Y415901D01*
X703650Y415929D01*
X703708Y415955D01*
X703821Y416051D01*
X703885Y416096D01*
X738512Y450724D01*
X761013Y450724D01*
X761014Y450724D01*
X761016Y450724D01*
X761157Y450744D01*
X761294Y450764D01*
X761296Y450764D01*
X761297Y450764D01*
X761425Y450822D01*
X761554Y450880D01*
X761555Y450881D01*
X761556Y450882D01*
X761663Y450973D01*
X761771Y451063D01*
X761772Y451065D01*
X761773Y451066D01*
X761781Y451079D01*
X761928Y451300D01*
X761937Y451329D01*
X761951Y451350D01*
X762145Y451821D01*
X764204Y453879D01*
X766894Y454994D01*
X769806Y454994D01*
X772496Y453879D01*
X774554Y451821D01*
X775669Y449131D01*
X775669Y446219D01*
X774554Y443529D01*
X772496Y441471D01*
X769806Y440356D01*
X766894Y440356D01*
X764204Y441471D01*
X762145Y443529D01*
X761951Y444000D01*
X761950Y444001D01*
X761949Y444002D01*
X761878Y444123D01*
X761806Y444244D01*
X761805Y444245D01*
X761804Y444247D01*
X761700Y444344D01*
X761600Y444440D01*
X761598Y444440D01*
X761597Y444441D01*
X761471Y444506D01*
X761347Y444570D01*
X761345Y444570D01*
X761344Y444571D01*
X761329Y444573D01*
X761068Y444625D01*
X761037Y444622D01*
X761013Y444626D01*
X741458Y444626D01*
X741372Y444614D01*
X741284Y444611D01*
X741232Y444594D01*
X741177Y444586D01*
X741097Y444551D01*
X741014Y444524D01*
X740975Y444496D01*
X740917Y444470D01*
X740804Y444374D01*
X740740Y444329D01*
X706113Y409701D01*
X670912Y409701D01*
X670911Y409701D01*
X670909Y409701D01*
X670768Y409681D01*
X670631Y409661D01*
X670629Y409661D01*
X670628Y409661D01*
X670500Y409603D01*
X670371Y409545D01*
X670370Y409544D01*
X670369Y409543D01*
X670259Y409450D01*
X670154Y409362D01*
X670153Y409360D01*
X670152Y409359D01*
X670144Y409346D01*
X669997Y409125D01*
X669988Y409096D01*
X669974Y409075D01*
X669780Y408604D01*
X667721Y406546D01*
X665031Y405431D01*
X662119Y405431D01*
G37*
%LPD*%
%LPC*%
G36*
X129965Y687173D02*
X129965Y687173D01*
X128923Y688215D01*
X128923Y708485D01*
X129965Y709527D01*
X135636Y709527D01*
X135694Y709535D01*
X135752Y709533D01*
X135834Y709555D01*
X135918Y709567D01*
X135971Y709590D01*
X136027Y709605D01*
X136100Y709648D01*
X136177Y709683D01*
X136222Y709721D01*
X136272Y709750D01*
X136330Y709812D01*
X136394Y709866D01*
X136426Y709915D01*
X136466Y709958D01*
X136505Y710033D01*
X136552Y710103D01*
X136569Y710159D01*
X136596Y710211D01*
X136607Y710279D01*
X136637Y710374D01*
X136640Y710474D01*
X136651Y710542D01*
X136651Y745138D01*
X136651Y745139D01*
X136651Y745141D01*
X136631Y745282D01*
X136611Y745419D01*
X136611Y745421D01*
X136611Y745422D01*
X136553Y745550D01*
X136495Y745679D01*
X136494Y745680D01*
X136493Y745681D01*
X136402Y745788D01*
X136312Y745896D01*
X136310Y745897D01*
X136309Y745898D01*
X136296Y745906D01*
X136075Y746053D01*
X136046Y746062D01*
X136025Y746076D01*
X135554Y746270D01*
X133496Y748329D01*
X132381Y751019D01*
X132381Y753931D01*
X133496Y756621D01*
X135554Y758679D01*
X138244Y759794D01*
X141156Y759794D01*
X143846Y758679D01*
X145904Y756621D01*
X147019Y753931D01*
X147019Y751019D01*
X145904Y748329D01*
X143846Y746270D01*
X143375Y746076D01*
X143374Y746075D01*
X143373Y746074D01*
X143252Y746003D01*
X143131Y745931D01*
X143130Y745930D01*
X143128Y745929D01*
X143028Y745823D01*
X142935Y745725D01*
X142935Y745723D01*
X142934Y745722D01*
X142869Y745596D01*
X142805Y745472D01*
X142805Y745470D01*
X142804Y745469D01*
X142802Y745454D01*
X142750Y745193D01*
X142753Y745162D01*
X142749Y745138D01*
X142749Y710542D01*
X142757Y710484D01*
X142755Y710426D01*
X142777Y710344D01*
X142789Y710260D01*
X142812Y710207D01*
X142827Y710151D01*
X142870Y710078D01*
X142905Y710001D01*
X142943Y709956D01*
X142972Y709906D01*
X143034Y709848D01*
X143088Y709784D01*
X143137Y709752D01*
X143180Y709712D01*
X143255Y709673D01*
X143325Y709626D01*
X143381Y709609D01*
X143433Y709582D01*
X143501Y709571D01*
X143596Y709541D01*
X143696Y709538D01*
X143764Y709527D01*
X150235Y709527D01*
X151277Y708485D01*
X151277Y688215D01*
X150235Y687173D01*
X129965Y687173D01*
G37*
%LPD*%
%LPC*%
G36*
X582937Y644651D02*
X582937Y644651D01*
X580882Y646706D01*
X580881Y646707D01*
X580880Y646708D01*
X580767Y646793D01*
X580655Y646877D01*
X580654Y646877D01*
X580653Y646878D01*
X580522Y646928D01*
X580390Y646978D01*
X580388Y646978D01*
X580387Y646979D01*
X580248Y646990D01*
X580106Y647002D01*
X580105Y647001D01*
X580103Y647001D01*
X580088Y646998D01*
X579828Y646946D01*
X579800Y646932D01*
X579776Y646926D01*
X579306Y646731D01*
X576394Y646731D01*
X573704Y647846D01*
X571646Y649904D01*
X570531Y652594D01*
X570531Y655506D01*
X571646Y658196D01*
X573704Y660254D01*
X576394Y661369D01*
X579306Y661369D01*
X581996Y660254D01*
X584054Y658196D01*
X585169Y655506D01*
X585169Y652594D01*
X584986Y652153D01*
X584957Y652041D01*
X584922Y651932D01*
X584922Y651904D01*
X584915Y651877D01*
X584918Y651763D01*
X584915Y651648D01*
X584922Y651621D01*
X584923Y651593D01*
X584958Y651484D01*
X584987Y651373D01*
X585001Y651349D01*
X585010Y651322D01*
X585074Y651227D01*
X585132Y651128D01*
X585152Y651109D01*
X585168Y651086D01*
X585256Y651012D01*
X585340Y650934D01*
X585364Y650921D01*
X585385Y650903D01*
X585490Y650857D01*
X585593Y650804D01*
X585617Y650800D01*
X585645Y650788D01*
X585909Y650751D01*
X585924Y650749D01*
X611092Y650749D01*
X611178Y650761D01*
X611266Y650764D01*
X611318Y650781D01*
X611373Y650789D01*
X611453Y650824D01*
X611536Y650851D01*
X611575Y650879D01*
X611633Y650905D01*
X611746Y651001D01*
X611810Y651046D01*
X617862Y657099D01*
X636492Y657099D01*
X636578Y657111D01*
X636666Y657114D01*
X636718Y657131D01*
X636773Y657139D01*
X636853Y657174D01*
X636936Y657201D01*
X636975Y657229D01*
X637033Y657255D01*
X637146Y657351D01*
X637210Y657396D01*
X656231Y676418D01*
X656232Y676419D01*
X656233Y676420D01*
X656318Y676533D01*
X656402Y676645D01*
X656402Y676646D01*
X656403Y676647D01*
X656452Y676776D01*
X656503Y676910D01*
X656503Y676912D01*
X656504Y676913D01*
X656515Y677052D01*
X656527Y677194D01*
X656526Y677195D01*
X656526Y677197D01*
X656523Y677212D01*
X656471Y677472D01*
X656457Y677500D01*
X656451Y677524D01*
X656256Y677994D01*
X656256Y680906D01*
X657371Y683596D01*
X659429Y685654D01*
X662119Y686769D01*
X665031Y686769D01*
X667721Y685654D01*
X669779Y683596D01*
X670894Y680906D01*
X670894Y677994D01*
X669779Y675304D01*
X667721Y673246D01*
X665031Y672131D01*
X662119Y672131D01*
X661649Y672326D01*
X661647Y672326D01*
X661646Y672327D01*
X661513Y672361D01*
X661374Y672397D01*
X661372Y672397D01*
X661371Y672397D01*
X661230Y672393D01*
X661090Y672389D01*
X661088Y672388D01*
X661086Y672388D01*
X660951Y672344D01*
X660819Y672302D01*
X660817Y672301D01*
X660816Y672301D01*
X660803Y672292D01*
X660583Y672144D01*
X660563Y672121D01*
X660543Y672106D01*
X641521Y653085D01*
X641521Y653084D01*
X639438Y651001D01*
X620808Y651001D01*
X620722Y650989D01*
X620634Y650986D01*
X620582Y650969D01*
X620527Y650961D01*
X620447Y650926D01*
X620364Y650899D01*
X620325Y650871D01*
X620267Y650845D01*
X620154Y650749D01*
X620090Y650704D01*
X614038Y644651D01*
X582937Y644651D01*
G37*
%LPD*%
%LPC*%
G36*
X328744Y176831D02*
X328744Y176831D01*
X326054Y177946D01*
X323995Y180004D01*
X323801Y180475D01*
X323800Y180476D01*
X323799Y180477D01*
X323728Y180598D01*
X323656Y180719D01*
X323655Y180720D01*
X323654Y180722D01*
X323550Y180819D01*
X323450Y180915D01*
X323448Y180915D01*
X323447Y180916D01*
X323321Y180981D01*
X323197Y181045D01*
X323195Y181045D01*
X323194Y181046D01*
X323179Y181048D01*
X322918Y181100D01*
X322887Y181097D01*
X322863Y181101D01*
X316237Y181101D01*
X301751Y195587D01*
X301751Y253013D01*
X301751Y253014D01*
X301751Y253016D01*
X301731Y253157D01*
X301711Y253294D01*
X301711Y253296D01*
X301711Y253297D01*
X301653Y253425D01*
X301595Y253554D01*
X301594Y253555D01*
X301593Y253556D01*
X301504Y253662D01*
X301412Y253771D01*
X301410Y253772D01*
X301409Y253773D01*
X301396Y253781D01*
X301175Y253928D01*
X301146Y253937D01*
X301125Y253951D01*
X300654Y254145D01*
X298596Y256204D01*
X297481Y258894D01*
X297481Y261806D01*
X298596Y264496D01*
X300654Y266554D01*
X303344Y267669D01*
X306256Y267669D01*
X308946Y266554D01*
X311004Y264496D01*
X312119Y261806D01*
X312119Y258894D01*
X311004Y256204D01*
X308946Y254145D01*
X308475Y253951D01*
X308474Y253950D01*
X308473Y253949D01*
X308352Y253878D01*
X308231Y253806D01*
X308230Y253805D01*
X308228Y253804D01*
X308131Y253700D01*
X308035Y253600D01*
X308035Y253598D01*
X308034Y253597D01*
X307969Y253471D01*
X307905Y253347D01*
X307905Y253345D01*
X307904Y253344D01*
X307902Y253329D01*
X307850Y253068D01*
X307853Y253037D01*
X307849Y253013D01*
X307849Y198533D01*
X307861Y198447D01*
X307864Y198359D01*
X307881Y198307D01*
X307889Y198252D01*
X307924Y198172D01*
X307951Y198089D01*
X307979Y198050D01*
X308005Y197992D01*
X308101Y197879D01*
X308146Y197815D01*
X318465Y187496D01*
X318535Y187444D01*
X318599Y187384D01*
X318649Y187358D01*
X318693Y187325D01*
X318774Y187294D01*
X318852Y187254D01*
X318900Y187246D01*
X318958Y187224D01*
X319106Y187212D01*
X319183Y187199D01*
X322863Y187199D01*
X322864Y187199D01*
X322866Y187199D01*
X323007Y187219D01*
X323144Y187239D01*
X323146Y187239D01*
X323147Y187239D01*
X323275Y187297D01*
X323404Y187355D01*
X323405Y187356D01*
X323406Y187357D01*
X323513Y187447D01*
X323621Y187538D01*
X323622Y187540D01*
X323623Y187541D01*
X323631Y187554D01*
X323778Y187775D01*
X323787Y187804D01*
X323801Y187825D01*
X323995Y188296D01*
X326054Y190354D01*
X328744Y191469D01*
X331656Y191469D01*
X334346Y190354D01*
X336404Y188296D01*
X337519Y185606D01*
X337519Y182694D01*
X336404Y180004D01*
X334346Y177946D01*
X331656Y176831D01*
X328744Y176831D01*
G37*
%LPD*%
%LPC*%
G36*
X716094Y646731D02*
X716094Y646731D01*
X713404Y647846D01*
X711346Y649904D01*
X710231Y652594D01*
X710231Y655506D01*
X711346Y658196D01*
X713404Y660255D01*
X713875Y660449D01*
X713876Y660450D01*
X713877Y660451D01*
X713998Y660522D01*
X714119Y660594D01*
X714120Y660595D01*
X714122Y660596D01*
X714219Y660700D01*
X714315Y660800D01*
X714315Y660802D01*
X714316Y660803D01*
X714379Y660926D01*
X714445Y661053D01*
X714445Y661055D01*
X714446Y661056D01*
X714448Y661071D01*
X714500Y661332D01*
X714497Y661363D01*
X714501Y661387D01*
X714501Y686158D01*
X714493Y686216D01*
X714495Y686274D01*
X714473Y686356D01*
X714461Y686440D01*
X714438Y686493D01*
X714423Y686549D01*
X714380Y686622D01*
X714345Y686699D01*
X714307Y686744D01*
X714278Y686794D01*
X714216Y686852D01*
X714162Y686916D01*
X714113Y686948D01*
X714070Y686988D01*
X713995Y687027D01*
X713925Y687074D01*
X713869Y687091D01*
X713817Y687118D01*
X713749Y687129D01*
X713654Y687159D01*
X713554Y687162D01*
X713486Y687173D01*
X707415Y687173D01*
X706373Y688215D01*
X706373Y708485D01*
X707415Y709527D01*
X727685Y709527D01*
X728727Y708485D01*
X728727Y688215D01*
X727685Y687173D01*
X721614Y687173D01*
X721556Y687165D01*
X721498Y687167D01*
X721416Y687145D01*
X721332Y687133D01*
X721279Y687110D01*
X721223Y687095D01*
X721150Y687052D01*
X721073Y687017D01*
X721028Y686979D01*
X720978Y686950D01*
X720920Y686888D01*
X720856Y686834D01*
X720824Y686785D01*
X720784Y686742D01*
X720745Y686667D01*
X720698Y686597D01*
X720681Y686541D01*
X720654Y686489D01*
X720643Y686421D01*
X720613Y686326D01*
X720610Y686226D01*
X720599Y686158D01*
X720599Y661387D01*
X720599Y661386D01*
X720599Y661384D01*
X720619Y661243D01*
X720639Y661106D01*
X720639Y661104D01*
X720639Y661103D01*
X720697Y660975D01*
X720755Y660846D01*
X720756Y660845D01*
X720757Y660844D01*
X720848Y660737D01*
X720938Y660629D01*
X720940Y660628D01*
X720941Y660627D01*
X720954Y660619D01*
X721175Y660472D01*
X721204Y660463D01*
X721225Y660449D01*
X721696Y660255D01*
X723754Y658196D01*
X724869Y655506D01*
X724869Y652594D01*
X723754Y649904D01*
X721696Y647846D01*
X719006Y646731D01*
X716094Y646731D01*
G37*
%LPD*%
%LPC*%
G36*
X219051Y47419D02*
X219051Y47419D01*
X213141Y49867D01*
X208617Y54391D01*
X206169Y60301D01*
X206169Y66699D01*
X208617Y72609D01*
X213141Y77133D01*
X219051Y79581D01*
X225449Y79581D01*
X231359Y77133D01*
X235883Y72609D01*
X238331Y66699D01*
X238331Y60301D01*
X235883Y54391D01*
X231359Y49867D01*
X225449Y47419D01*
X219051Y47419D01*
G37*
%LPD*%
%LPC*%
G36*
X73001Y47419D02*
X73001Y47419D01*
X67091Y49867D01*
X62567Y54391D01*
X60119Y60301D01*
X60119Y66699D01*
X62567Y72609D01*
X67091Y77133D01*
X73001Y79581D01*
X79399Y79581D01*
X85309Y77133D01*
X89833Y72609D01*
X92281Y66699D01*
X92281Y60301D01*
X89833Y54391D01*
X85309Y49867D01*
X79399Y47419D01*
X73001Y47419D01*
G37*
%LPD*%
%LPC*%
G36*
X73001Y193469D02*
X73001Y193469D01*
X67091Y195917D01*
X62567Y200441D01*
X60119Y206351D01*
X60119Y212749D01*
X62567Y218659D01*
X67091Y223183D01*
X73001Y225631D01*
X79399Y225631D01*
X85309Y223183D01*
X89833Y218659D01*
X92281Y212749D01*
X92281Y206351D01*
X89833Y200441D01*
X85309Y195917D01*
X79399Y193469D01*
X73001Y193469D01*
G37*
%LPD*%
%LPC*%
G36*
X803251Y47419D02*
X803251Y47419D01*
X797341Y49867D01*
X792817Y54391D01*
X790369Y60301D01*
X790369Y66699D01*
X792817Y72609D01*
X797341Y77133D01*
X803251Y79581D01*
X809649Y79581D01*
X815559Y77133D01*
X820083Y72609D01*
X822531Y66699D01*
X822531Y60301D01*
X820083Y54391D01*
X815559Y49867D01*
X809649Y47419D01*
X803251Y47419D01*
G37*
%LPD*%
%LPC*%
G36*
X365101Y47419D02*
X365101Y47419D01*
X359191Y49867D01*
X354667Y54391D01*
X352219Y60301D01*
X352219Y66699D01*
X354667Y72609D01*
X359191Y77133D01*
X365101Y79581D01*
X371499Y79581D01*
X377409Y77133D01*
X381933Y72609D01*
X384381Y66699D01*
X384381Y60301D01*
X381933Y54391D01*
X377409Y49867D01*
X371499Y47419D01*
X365101Y47419D01*
G37*
%LPD*%
%LPC*%
G36*
X657201Y47419D02*
X657201Y47419D01*
X651291Y49867D01*
X646767Y54391D01*
X644319Y60301D01*
X644319Y66699D01*
X646767Y72609D01*
X651291Y77133D01*
X657201Y79581D01*
X663599Y79581D01*
X669509Y77133D01*
X674033Y72609D01*
X676481Y66699D01*
X676481Y60301D01*
X674033Y54391D01*
X669509Y49867D01*
X663599Y47419D01*
X657201Y47419D01*
G37*
%LPD*%
%LPC*%
G36*
X657201Y193469D02*
X657201Y193469D01*
X651291Y195917D01*
X646767Y200441D01*
X644319Y206351D01*
X644319Y212749D01*
X646767Y218659D01*
X651291Y223183D01*
X657201Y225631D01*
X663599Y225631D01*
X669509Y223183D01*
X674033Y218659D01*
X676481Y212749D01*
X676481Y206351D01*
X674033Y200441D01*
X669509Y195917D01*
X663599Y193469D01*
X657201Y193469D01*
G37*
%LPD*%
%LPC*%
G36*
X219051Y193469D02*
X219051Y193469D01*
X213141Y195917D01*
X208617Y200441D01*
X206169Y206351D01*
X206169Y212749D01*
X208617Y218659D01*
X213141Y223183D01*
X219051Y225631D01*
X225449Y225631D01*
X231359Y223183D01*
X235883Y218659D01*
X238331Y212749D01*
X238331Y206351D01*
X235883Y200441D01*
X231359Y195917D01*
X225449Y193469D01*
X219051Y193469D01*
G37*
%LPD*%
%LPC*%
G36*
X803251Y193469D02*
X803251Y193469D01*
X797341Y195917D01*
X792817Y200441D01*
X790369Y206351D01*
X790369Y212749D01*
X792817Y218659D01*
X797341Y223183D01*
X803251Y225631D01*
X809649Y225631D01*
X815559Y223183D01*
X820083Y218659D01*
X822531Y212749D01*
X822531Y206351D01*
X820083Y200441D01*
X815559Y195917D01*
X809649Y193469D01*
X803251Y193469D01*
G37*
%LPD*%
%LPC*%
G36*
X511151Y193469D02*
X511151Y193469D01*
X505241Y195917D01*
X500717Y200441D01*
X498269Y206351D01*
X498269Y212749D01*
X500717Y218659D01*
X505241Y223183D01*
X511151Y225631D01*
X517549Y225631D01*
X523459Y223183D01*
X527983Y218659D01*
X530431Y212749D01*
X530431Y206351D01*
X527983Y200441D01*
X523459Y195917D01*
X517549Y193469D01*
X511151Y193469D01*
G37*
%LPD*%
%LPC*%
G36*
X511151Y47419D02*
X511151Y47419D01*
X505241Y49867D01*
X500717Y54391D01*
X498269Y60301D01*
X498269Y66699D01*
X500717Y72609D01*
X505241Y77133D01*
X511151Y79581D01*
X517549Y79581D01*
X523459Y77133D01*
X527983Y72609D01*
X530431Y66699D01*
X530431Y60301D01*
X527983Y54391D01*
X523459Y49867D01*
X517549Y47419D01*
X511151Y47419D01*
G37*
%LPD*%
%LPC*%
G36*
X365101Y193469D02*
X365101Y193469D01*
X359191Y195917D01*
X354667Y200441D01*
X352219Y206351D01*
X352219Y212749D01*
X354667Y218659D01*
X359191Y223183D01*
X365101Y225631D01*
X371499Y225631D01*
X377409Y223183D01*
X381933Y218659D01*
X384381Y212749D01*
X384381Y206351D01*
X381933Y200441D01*
X377409Y195917D01*
X371499Y193469D01*
X365101Y193469D01*
G37*
%LPD*%
%LPC*%
G36*
X138244Y173656D02*
X138244Y173656D01*
X135554Y174771D01*
X133496Y176829D01*
X132381Y179519D01*
X132381Y182431D01*
X133496Y185121D01*
X135554Y187179D01*
X138244Y188294D01*
X141156Y188294D01*
X143846Y187179D01*
X145905Y185121D01*
X146099Y184650D01*
X146100Y184649D01*
X146101Y184648D01*
X146172Y184527D01*
X146244Y184406D01*
X146245Y184405D01*
X146246Y184403D01*
X146350Y184306D01*
X146450Y184210D01*
X146452Y184210D01*
X146453Y184209D01*
X146579Y184144D01*
X146703Y184080D01*
X146705Y184080D01*
X146706Y184079D01*
X146721Y184077D01*
X146982Y184025D01*
X147013Y184028D01*
X147037Y184024D01*
X163417Y184024D01*
X163503Y184036D01*
X163591Y184039D01*
X163643Y184056D01*
X163698Y184064D01*
X163778Y184099D01*
X163861Y184126D01*
X163900Y184154D01*
X163958Y184180D01*
X164071Y184276D01*
X164135Y184321D01*
X174454Y194640D01*
X174506Y194710D01*
X174566Y194774D01*
X174592Y194824D01*
X174625Y194868D01*
X174656Y194949D01*
X174696Y195027D01*
X174704Y195075D01*
X174726Y195133D01*
X174738Y195281D01*
X174751Y195358D01*
X174751Y197866D01*
X174743Y197924D01*
X174745Y197982D01*
X174723Y198064D01*
X174711Y198148D01*
X174688Y198201D01*
X174673Y198257D01*
X174630Y198330D01*
X174595Y198407D01*
X174557Y198452D01*
X174528Y198502D01*
X174466Y198560D01*
X174412Y198624D01*
X174363Y198656D01*
X174320Y198696D01*
X174245Y198735D01*
X174175Y198782D01*
X174119Y198799D01*
X174067Y198826D01*
X173999Y198837D01*
X173904Y198867D01*
X173804Y198870D01*
X173736Y198881D01*
X173381Y198881D01*
X167131Y205131D01*
X167131Y213969D01*
X173381Y220219D01*
X182219Y220219D01*
X188469Y213969D01*
X188469Y205131D01*
X182219Y198881D01*
X181864Y198881D01*
X181806Y198873D01*
X181748Y198875D01*
X181666Y198853D01*
X181582Y198841D01*
X181529Y198818D01*
X181473Y198803D01*
X181400Y198760D01*
X181323Y198725D01*
X181278Y198687D01*
X181228Y198658D01*
X181170Y198596D01*
X181106Y198542D01*
X181074Y198493D01*
X181034Y198450D01*
X180995Y198375D01*
X180948Y198305D01*
X180931Y198249D01*
X180904Y198197D01*
X180893Y198129D01*
X180863Y198034D01*
X180860Y197934D01*
X180849Y197866D01*
X180849Y192412D01*
X166363Y177926D01*
X147037Y177926D01*
X147036Y177926D01*
X147034Y177926D01*
X146893Y177906D01*
X146756Y177886D01*
X146754Y177886D01*
X146753Y177886D01*
X146625Y177828D01*
X146496Y177770D01*
X146495Y177769D01*
X146494Y177768D01*
X146387Y177677D01*
X146279Y177587D01*
X146278Y177585D01*
X146277Y177584D01*
X146269Y177571D01*
X146122Y177350D01*
X146113Y177321D01*
X146099Y177300D01*
X145905Y176829D01*
X143846Y174771D01*
X141156Y173656D01*
X138244Y173656D01*
G37*
%LPD*%
%LPC*%
G36*
X71570Y785748D02*
X71570Y785748D01*
X65023Y792295D01*
X65023Y801555D01*
X71570Y808102D01*
X80830Y808102D01*
X87409Y801522D01*
X87417Y801469D01*
X87440Y801416D01*
X87455Y801360D01*
X87498Y801287D01*
X87533Y801210D01*
X87571Y801165D01*
X87600Y801115D01*
X87662Y801057D01*
X87716Y800993D01*
X87765Y800961D01*
X87808Y800921D01*
X87883Y800882D01*
X87953Y800835D01*
X88009Y800818D01*
X88061Y800791D01*
X88129Y800780D01*
X88224Y800750D01*
X88324Y800747D01*
X88392Y800736D01*
X96426Y800736D01*
X96513Y800748D01*
X96600Y800751D01*
X96653Y800768D01*
X96708Y800776D01*
X96787Y800811D01*
X96871Y800838D01*
X96910Y800866D01*
X96967Y800892D01*
X97080Y800988D01*
X97144Y801033D01*
X103509Y807398D01*
X103561Y807468D01*
X103621Y807532D01*
X103647Y807581D01*
X103680Y807625D01*
X103711Y807707D01*
X103751Y807785D01*
X103759Y807832D01*
X103781Y807891D01*
X103787Y807958D01*
X103792Y807976D01*
X103794Y808043D01*
X103806Y808116D01*
X103806Y811081D01*
X104921Y813771D01*
X106979Y815829D01*
X109669Y816944D01*
X112581Y816944D01*
X115271Y815829D01*
X117329Y813771D01*
X118444Y811081D01*
X118444Y808169D01*
X117329Y805479D01*
X115271Y803421D01*
X112581Y802306D01*
X109616Y802306D01*
X109529Y802294D01*
X109442Y802291D01*
X109389Y802274D01*
X109334Y802266D01*
X109255Y802231D01*
X109171Y802204D01*
X109132Y802176D01*
X109075Y802150D01*
X108962Y802054D01*
X108898Y802009D01*
X100003Y793114D01*
X88392Y793114D01*
X88334Y793106D01*
X88276Y793108D01*
X88194Y793086D01*
X88110Y793074D01*
X88057Y793051D01*
X88001Y793036D01*
X87928Y792993D01*
X87851Y792958D01*
X87806Y792920D01*
X87756Y792891D01*
X87698Y792829D01*
X87634Y792775D01*
X87602Y792726D01*
X87562Y792683D01*
X87523Y792608D01*
X87476Y792538D01*
X87459Y792482D01*
X87432Y792430D01*
X87421Y792362D01*
X87410Y792329D01*
X80830Y785748D01*
X71570Y785748D01*
G37*
%LPD*%
%LPC*%
G36*
X96969Y259381D02*
X96969Y259381D01*
X94279Y260496D01*
X92221Y262554D01*
X91106Y265244D01*
X91106Y268209D01*
X91094Y268296D01*
X91091Y268383D01*
X91074Y268436D01*
X91066Y268491D01*
X91031Y268570D01*
X91004Y268654D01*
X90976Y268693D01*
X90950Y268750D01*
X90854Y268863D01*
X90809Y268927D01*
X84444Y275292D01*
X84374Y275344D01*
X84310Y275404D01*
X84261Y275430D01*
X84217Y275463D01*
X84135Y275494D01*
X84057Y275534D01*
X84010Y275542D01*
X83951Y275564D01*
X83803Y275576D01*
X83726Y275589D01*
X48235Y275589D01*
X48148Y275577D01*
X48061Y275574D01*
X48008Y275557D01*
X47954Y275549D01*
X47874Y275514D01*
X47791Y275487D01*
X47751Y275459D01*
X47694Y275433D01*
X47581Y275337D01*
X47517Y275292D01*
X45421Y273196D01*
X42731Y272081D01*
X39819Y272081D01*
X37129Y273196D01*
X35071Y275254D01*
X33956Y277944D01*
X33956Y280856D01*
X35071Y283546D01*
X37129Y285604D01*
X39819Y286719D01*
X42731Y286719D01*
X45421Y285604D01*
X47517Y283508D01*
X47587Y283456D01*
X47651Y283396D01*
X47700Y283370D01*
X47744Y283337D01*
X47826Y283306D01*
X47904Y283266D01*
X47952Y283258D01*
X48010Y283236D01*
X48158Y283224D01*
X48235Y283211D01*
X87303Y283211D01*
X96198Y274316D01*
X96268Y274264D01*
X96332Y274204D01*
X96381Y274178D01*
X96425Y274145D01*
X96507Y274114D01*
X96585Y274074D01*
X96632Y274066D01*
X96691Y274044D01*
X96839Y274032D01*
X96916Y274019D01*
X99881Y274019D01*
X102571Y272904D01*
X104629Y270846D01*
X105744Y268156D01*
X105744Y265244D01*
X104629Y262554D01*
X102571Y260496D01*
X99881Y259381D01*
X96969Y259381D01*
G37*
%LPD*%
%LPC*%
G36*
X758553Y753871D02*
X758553Y753871D01*
X750071Y762353D01*
X750071Y774347D01*
X758553Y782829D01*
X770547Y782829D01*
X779029Y774347D01*
X779029Y762353D01*
X770547Y753871D01*
X758553Y753871D01*
G37*
%LPD*%
%LPC*%
G36*
X815703Y474471D02*
X815703Y474471D01*
X807221Y482953D01*
X807221Y494947D01*
X815703Y503429D01*
X827697Y503429D01*
X836179Y494947D01*
X836179Y482953D01*
X827697Y474471D01*
X815703Y474471D01*
G37*
%LPD*%
%LPC*%
G36*
X721703Y474471D02*
X721703Y474471D01*
X713221Y482953D01*
X713221Y494947D01*
X721703Y503429D01*
X733697Y503429D01*
X742179Y494947D01*
X742179Y482953D01*
X733697Y474471D01*
X721703Y474471D01*
G37*
%LPD*%
%LPC*%
G36*
X277203Y474471D02*
X277203Y474471D01*
X268721Y482953D01*
X268721Y494947D01*
X277203Y503429D01*
X289197Y503429D01*
X297679Y494947D01*
X297679Y482953D01*
X289197Y474471D01*
X277203Y474471D01*
G37*
%LPD*%
%LPC*%
G36*
X371203Y474471D02*
X371203Y474471D01*
X362721Y482953D01*
X362721Y494947D01*
X371203Y503429D01*
X383197Y503429D01*
X391679Y494947D01*
X391679Y482953D01*
X383197Y474471D01*
X371203Y474471D01*
G37*
%LPD*%
%LPC*%
G36*
X482328Y753871D02*
X482328Y753871D01*
X473846Y762353D01*
X473846Y774347D01*
X482328Y782829D01*
X494322Y782829D01*
X502804Y774347D01*
X502804Y762353D01*
X494322Y753871D01*
X482328Y753871D01*
G37*
%LPD*%
%LPC*%
G36*
X206103Y753871D02*
X206103Y753871D01*
X197621Y762353D01*
X197621Y774347D01*
X206103Y782829D01*
X218097Y782829D01*
X226579Y774347D01*
X226579Y762353D01*
X218097Y753871D01*
X206103Y753871D01*
G37*
%LPD*%
%LPC*%
G36*
X112103Y753871D02*
X112103Y753871D01*
X103621Y762353D01*
X103621Y774347D01*
X112103Y782829D01*
X124097Y782829D01*
X132579Y774347D01*
X132579Y762353D01*
X124097Y753871D01*
X112103Y753871D01*
G37*
%LPD*%
%LPC*%
G36*
X499453Y474471D02*
X499453Y474471D01*
X490971Y482953D01*
X490971Y494947D01*
X499453Y503429D01*
X511447Y503429D01*
X519929Y494947D01*
X519929Y482953D01*
X511447Y474471D01*
X499453Y474471D01*
G37*
%LPD*%
%LPC*%
G36*
X593453Y474471D02*
X593453Y474471D01*
X584971Y482953D01*
X584971Y494947D01*
X593453Y503429D01*
X605447Y503429D01*
X613929Y494947D01*
X613929Y482953D01*
X605447Y474471D01*
X593453Y474471D01*
G37*
%LPD*%
%LPC*%
G36*
X388328Y753871D02*
X388328Y753871D01*
X379846Y762353D01*
X379846Y774347D01*
X388328Y782829D01*
X400322Y782829D01*
X408804Y774347D01*
X408804Y762353D01*
X400322Y753871D01*
X388328Y753871D01*
G37*
%LPD*%
%LPC*%
G36*
X776419Y929306D02*
X776419Y929306D01*
X773729Y930421D01*
X771671Y932479D01*
X770556Y935169D01*
X770556Y938081D01*
X770751Y938551D01*
X770751Y938553D01*
X770752Y938554D01*
X770786Y938687D01*
X770822Y938826D01*
X770822Y938828D01*
X770822Y938829D01*
X770818Y938970D01*
X770814Y939110D01*
X770813Y939112D01*
X770813Y939114D01*
X770769Y939249D01*
X770727Y939381D01*
X770726Y939383D01*
X770726Y939384D01*
X770717Y939397D01*
X770569Y939617D01*
X770545Y939637D01*
X770531Y939657D01*
X764274Y945914D01*
X764228Y945949D01*
X764187Y945992D01*
X764114Y946035D01*
X764047Y946085D01*
X763992Y946106D01*
X763942Y946136D01*
X763860Y946156D01*
X763781Y946186D01*
X763723Y946191D01*
X763666Y946206D01*
X763582Y946203D01*
X763498Y946210D01*
X763441Y946198D01*
X763382Y946197D01*
X763302Y946171D01*
X763219Y946154D01*
X763167Y946127D01*
X763112Y946109D01*
X763056Y946069D01*
X762967Y946023D01*
X762895Y945954D01*
X762838Y945914D01*
X762743Y945819D01*
X758635Y944117D01*
X754189Y944117D01*
X750081Y945819D01*
X746937Y948963D01*
X745235Y953071D01*
X745235Y957517D01*
X746937Y961625D01*
X750081Y964769D01*
X754189Y966471D01*
X758635Y966471D01*
X762743Y964769D01*
X765887Y961625D01*
X767589Y957517D01*
X767589Y953071D01*
X767307Y952391D01*
X767307Y952389D01*
X767306Y952388D01*
X767272Y952254D01*
X767236Y952116D01*
X767236Y952114D01*
X767236Y952112D01*
X767240Y951970D01*
X767244Y951831D01*
X767245Y951830D01*
X767245Y951828D01*
X767289Y951693D01*
X767331Y951561D01*
X767332Y951559D01*
X767332Y951558D01*
X767341Y951545D01*
X767489Y951324D01*
X767513Y951305D01*
X767527Y951284D01*
X774843Y943969D01*
X774844Y943968D01*
X774845Y943967D01*
X774963Y943878D01*
X775070Y943798D01*
X775071Y943798D01*
X775072Y943797D01*
X775204Y943747D01*
X775335Y943697D01*
X775337Y943697D01*
X775338Y943696D01*
X775477Y943685D01*
X775619Y943673D01*
X775620Y943674D01*
X775622Y943674D01*
X775637Y943677D01*
X775897Y943729D01*
X775925Y943743D01*
X775949Y943749D01*
X776419Y943944D01*
X779331Y943944D01*
X782021Y942829D01*
X784079Y940771D01*
X785194Y938081D01*
X785194Y935169D01*
X784079Y932479D01*
X782021Y930421D01*
X779331Y929306D01*
X776419Y929306D01*
G37*
%LPD*%
%LPC*%
G36*
X639894Y929306D02*
X639894Y929306D01*
X637204Y930421D01*
X635146Y932479D01*
X634031Y935169D01*
X634031Y938081D01*
X635146Y940771D01*
X637204Y942829D01*
X639894Y943944D01*
X642806Y943944D01*
X645496Y942829D01*
X647555Y940771D01*
X647749Y940300D01*
X647750Y940299D01*
X647751Y940298D01*
X647822Y940177D01*
X647894Y940056D01*
X647895Y940055D01*
X647896Y940053D01*
X648001Y939955D01*
X648100Y939860D01*
X648102Y939860D01*
X648103Y939859D01*
X648229Y939794D01*
X648353Y939730D01*
X648355Y939730D01*
X648356Y939729D01*
X648371Y939727D01*
X648632Y939675D01*
X648663Y939678D01*
X648687Y939674D01*
X694338Y939674D01*
X694339Y939674D01*
X694341Y939674D01*
X694482Y939694D01*
X694619Y939714D01*
X694621Y939714D01*
X694622Y939714D01*
X694750Y939772D01*
X694879Y939830D01*
X694880Y939831D01*
X694881Y939832D01*
X694988Y939923D01*
X695096Y940013D01*
X695097Y940015D01*
X695098Y940016D01*
X695106Y940029D01*
X695253Y940250D01*
X695262Y940279D01*
X695276Y940300D01*
X695470Y940771D01*
X697529Y942829D01*
X700219Y943944D01*
X703131Y943944D01*
X705821Y942829D01*
X707879Y940771D01*
X708994Y938081D01*
X708994Y935169D01*
X707879Y932479D01*
X705821Y930421D01*
X703131Y929306D01*
X700219Y929306D01*
X697529Y930421D01*
X695470Y932479D01*
X695276Y932950D01*
X695275Y932951D01*
X695274Y932952D01*
X695203Y933073D01*
X695131Y933194D01*
X695130Y933195D01*
X695129Y933197D01*
X695025Y933294D01*
X694925Y933390D01*
X694923Y933390D01*
X694922Y933391D01*
X694796Y933456D01*
X694672Y933520D01*
X694670Y933520D01*
X694669Y933521D01*
X694654Y933523D01*
X694393Y933575D01*
X694362Y933572D01*
X694338Y933576D01*
X648687Y933576D01*
X648686Y933576D01*
X648684Y933576D01*
X648543Y933556D01*
X648406Y933536D01*
X648404Y933536D01*
X648403Y933536D01*
X648275Y933478D01*
X648146Y933420D01*
X648145Y933419D01*
X648144Y933418D01*
X648037Y933327D01*
X647929Y933237D01*
X647928Y933235D01*
X647927Y933234D01*
X647919Y933221D01*
X647772Y933000D01*
X647763Y932971D01*
X647749Y932950D01*
X647555Y932479D01*
X645496Y930421D01*
X642806Y929306D01*
X639894Y929306D01*
G37*
%LPD*%
%LPC*%
G36*
X112844Y316531D02*
X112844Y316531D01*
X110154Y317646D01*
X108096Y319704D01*
X106981Y322394D01*
X106981Y325306D01*
X108096Y327996D01*
X110154Y330054D01*
X112844Y331169D01*
X115756Y331169D01*
X118446Y330054D01*
X120505Y327996D01*
X120699Y327525D01*
X120700Y327524D01*
X120701Y327523D01*
X120772Y327402D01*
X120844Y327281D01*
X120845Y327280D01*
X120846Y327278D01*
X120950Y327181D01*
X121050Y327085D01*
X121052Y327085D01*
X121053Y327084D01*
X121179Y327019D01*
X121303Y326955D01*
X121305Y326955D01*
X121306Y326954D01*
X121321Y326952D01*
X121582Y326900D01*
X121613Y326903D01*
X121637Y326899D01*
X167288Y326899D01*
X167289Y326899D01*
X167291Y326899D01*
X167432Y326919D01*
X167569Y326939D01*
X167571Y326939D01*
X167572Y326939D01*
X167700Y326997D01*
X167829Y327055D01*
X167830Y327056D01*
X167831Y327057D01*
X167938Y327148D01*
X168046Y327238D01*
X168047Y327240D01*
X168048Y327241D01*
X168056Y327254D01*
X168203Y327475D01*
X168207Y327487D01*
X168210Y327492D01*
X168216Y327510D01*
X168226Y327525D01*
X168420Y327996D01*
X170479Y330054D01*
X173169Y331169D01*
X176081Y331169D01*
X178771Y330054D01*
X180829Y327996D01*
X181944Y325306D01*
X181944Y322394D01*
X180829Y319704D01*
X178771Y317646D01*
X176081Y316531D01*
X173169Y316531D01*
X170479Y317646D01*
X168420Y319704D01*
X168226Y320175D01*
X168225Y320176D01*
X168224Y320177D01*
X168153Y320298D01*
X168081Y320419D01*
X168080Y320420D01*
X168079Y320422D01*
X167975Y320519D01*
X167875Y320615D01*
X167873Y320615D01*
X167872Y320616D01*
X167746Y320681D01*
X167622Y320745D01*
X167620Y320745D01*
X167619Y320746D01*
X167604Y320748D01*
X167343Y320800D01*
X167312Y320797D01*
X167288Y320801D01*
X121637Y320801D01*
X121636Y320801D01*
X121634Y320801D01*
X121493Y320781D01*
X121356Y320761D01*
X121354Y320761D01*
X121353Y320761D01*
X121225Y320703D01*
X121096Y320645D01*
X121095Y320644D01*
X121094Y320643D01*
X120987Y320552D01*
X120879Y320462D01*
X120878Y320460D01*
X120877Y320459D01*
X120869Y320446D01*
X120722Y320225D01*
X120713Y320196D01*
X120699Y320175D01*
X120505Y319704D01*
X118446Y317646D01*
X115756Y316531D01*
X112844Y316531D01*
G37*
%LPD*%
%LPC*%
G36*
X687519Y824531D02*
X687519Y824531D01*
X684829Y825646D01*
X682771Y827704D01*
X681656Y830394D01*
X681656Y833306D01*
X682771Y835996D01*
X684829Y838054D01*
X687519Y839169D01*
X690431Y839169D01*
X693121Y838054D01*
X695180Y835996D01*
X695374Y835525D01*
X695375Y835524D01*
X695376Y835523D01*
X695448Y835400D01*
X695519Y835281D01*
X695520Y835280D01*
X695521Y835278D01*
X695625Y835181D01*
X695725Y835085D01*
X695727Y835085D01*
X695728Y835084D01*
X695854Y835019D01*
X695978Y834955D01*
X695980Y834955D01*
X695981Y834954D01*
X695996Y834952D01*
X696257Y834900D01*
X696288Y834903D01*
X696312Y834899D01*
X738788Y834899D01*
X738789Y834899D01*
X738791Y834899D01*
X738932Y834919D01*
X739069Y834939D01*
X739071Y834939D01*
X739072Y834939D01*
X739200Y834997D01*
X739329Y835055D01*
X739330Y835056D01*
X739331Y835057D01*
X739438Y835148D01*
X739546Y835238D01*
X739547Y835240D01*
X739548Y835241D01*
X739556Y835254D01*
X739703Y835475D01*
X739712Y835504D01*
X739726Y835525D01*
X739920Y835996D01*
X741979Y838054D01*
X744669Y839169D01*
X747581Y839169D01*
X750271Y838054D01*
X752329Y835996D01*
X753444Y833306D01*
X753444Y830394D01*
X752329Y827704D01*
X750271Y825646D01*
X747581Y824531D01*
X744669Y824531D01*
X741979Y825646D01*
X739920Y827704D01*
X739726Y828175D01*
X739725Y828176D01*
X739724Y828177D01*
X739656Y828293D01*
X739581Y828419D01*
X739580Y828420D01*
X739579Y828422D01*
X739475Y828519D01*
X739375Y828615D01*
X739373Y828615D01*
X739372Y828616D01*
X739248Y828680D01*
X739122Y828745D01*
X739120Y828745D01*
X739119Y828746D01*
X739104Y828748D01*
X738843Y828800D01*
X738812Y828797D01*
X738788Y828801D01*
X696312Y828801D01*
X696311Y828801D01*
X696309Y828801D01*
X696168Y828781D01*
X696031Y828761D01*
X696029Y828761D01*
X696028Y828761D01*
X695900Y828703D01*
X695771Y828645D01*
X695770Y828644D01*
X695769Y828643D01*
X695662Y828552D01*
X695554Y828462D01*
X695553Y828460D01*
X695552Y828459D01*
X695544Y828446D01*
X695397Y828225D01*
X695388Y828196D01*
X695374Y828175D01*
X695180Y827704D01*
X693121Y825646D01*
X690431Y824531D01*
X687519Y824531D01*
G37*
%LPD*%
%LPC*%
G36*
X217619Y386381D02*
X217619Y386381D01*
X214929Y387496D01*
X212871Y389554D01*
X211756Y392244D01*
X211756Y395156D01*
X212871Y397846D01*
X214929Y399904D01*
X217619Y401019D01*
X220531Y401019D01*
X223221Y399904D01*
X225280Y397846D01*
X225474Y397375D01*
X225475Y397374D01*
X225476Y397373D01*
X225547Y397252D01*
X225619Y397131D01*
X225620Y397130D01*
X225621Y397128D01*
X225725Y397031D01*
X225825Y396935D01*
X225827Y396935D01*
X225828Y396934D01*
X225954Y396869D01*
X226078Y396805D01*
X226080Y396805D01*
X226081Y396804D01*
X226096Y396802D01*
X226357Y396750D01*
X226388Y396753D01*
X226412Y396749D01*
X265713Y396749D01*
X265714Y396749D01*
X265716Y396749D01*
X265857Y396769D01*
X265994Y396789D01*
X265996Y396789D01*
X265997Y396789D01*
X266125Y396847D01*
X266254Y396905D01*
X266255Y396906D01*
X266256Y396907D01*
X266363Y396998D01*
X266471Y397088D01*
X266472Y397090D01*
X266473Y397091D01*
X266481Y397104D01*
X266628Y397325D01*
X266637Y397354D01*
X266651Y397375D01*
X266845Y397846D01*
X268904Y399904D01*
X271594Y401019D01*
X274506Y401019D01*
X277196Y399904D01*
X279254Y397846D01*
X280369Y395156D01*
X280369Y392244D01*
X279254Y389554D01*
X277196Y387496D01*
X274506Y386381D01*
X271594Y386381D01*
X268904Y387496D01*
X266845Y389554D01*
X266651Y390025D01*
X266650Y390026D01*
X266649Y390027D01*
X266578Y390148D01*
X266506Y390269D01*
X266505Y390270D01*
X266504Y390272D01*
X266400Y390369D01*
X266300Y390465D01*
X266298Y390465D01*
X266297Y390466D01*
X266171Y390531D01*
X266047Y390595D01*
X266045Y390595D01*
X266044Y390596D01*
X266029Y390598D01*
X265768Y390650D01*
X265737Y390647D01*
X265713Y390651D01*
X226412Y390651D01*
X226411Y390651D01*
X226409Y390651D01*
X226268Y390631D01*
X226131Y390611D01*
X226129Y390611D01*
X226128Y390611D01*
X226000Y390553D01*
X225871Y390495D01*
X225870Y390494D01*
X225869Y390493D01*
X225762Y390402D01*
X225654Y390312D01*
X225653Y390310D01*
X225652Y390309D01*
X225644Y390296D01*
X225497Y390075D01*
X225488Y390046D01*
X225474Y390025D01*
X225280Y389554D01*
X223221Y387496D01*
X220531Y386381D01*
X217619Y386381D01*
G37*
%LPD*%
%LPC*%
G36*
X274769Y729281D02*
X274769Y729281D01*
X272079Y730396D01*
X270021Y732454D01*
X268906Y735144D01*
X268906Y738056D01*
X270021Y740746D01*
X272079Y742805D01*
X272550Y742999D01*
X272551Y743000D01*
X272552Y743001D01*
X272673Y743072D01*
X272794Y743144D01*
X272795Y743145D01*
X272797Y743146D01*
X272894Y743250D01*
X272990Y743350D01*
X272990Y743352D01*
X272991Y743353D01*
X273056Y743479D01*
X273120Y743603D01*
X273120Y743605D01*
X273121Y743606D01*
X273123Y743621D01*
X273175Y743882D01*
X273172Y743913D01*
X273176Y743937D01*
X273176Y770538D01*
X273176Y770539D01*
X273176Y770541D01*
X273156Y770682D01*
X273136Y770819D01*
X273136Y770821D01*
X273136Y770822D01*
X273078Y770950D01*
X273020Y771079D01*
X273019Y771080D01*
X273018Y771081D01*
X272927Y771188D01*
X272837Y771296D01*
X272835Y771297D01*
X272834Y771298D01*
X272821Y771306D01*
X272600Y771453D01*
X272571Y771462D01*
X272550Y771476D01*
X272079Y771670D01*
X270021Y773729D01*
X268906Y776419D01*
X268906Y779331D01*
X270021Y782021D01*
X272079Y784079D01*
X274769Y785194D01*
X277681Y785194D01*
X280371Y784079D01*
X282429Y782021D01*
X283544Y779331D01*
X283544Y776419D01*
X282429Y773729D01*
X280371Y771670D01*
X279900Y771476D01*
X279899Y771475D01*
X279898Y771474D01*
X279777Y771403D01*
X279656Y771331D01*
X279655Y771330D01*
X279653Y771329D01*
X279556Y771225D01*
X279460Y771125D01*
X279460Y771123D01*
X279459Y771122D01*
X279394Y770996D01*
X279330Y770872D01*
X279330Y770870D01*
X279329Y770869D01*
X279327Y770854D01*
X279275Y770593D01*
X279278Y770562D01*
X279274Y770538D01*
X279274Y743937D01*
X279274Y743936D01*
X279274Y743934D01*
X279294Y743792D01*
X279314Y743656D01*
X279314Y743654D01*
X279314Y743653D01*
X279372Y743525D01*
X279430Y743396D01*
X279431Y743395D01*
X279432Y743394D01*
X279523Y743287D01*
X279613Y743179D01*
X279615Y743178D01*
X279616Y743177D01*
X279629Y743169D01*
X279850Y743022D01*
X279879Y743013D01*
X279900Y742999D01*
X280371Y742805D01*
X282429Y740746D01*
X283544Y738056D01*
X283544Y735144D01*
X282429Y732454D01*
X280371Y730396D01*
X277681Y729281D01*
X274769Y729281D01*
G37*
%LPD*%
%LPC*%
G36*
X567315Y407773D02*
X567315Y407773D01*
X566273Y408815D01*
X566273Y429085D01*
X567315Y430127D01*
X587585Y430127D01*
X588627Y429085D01*
X588627Y408815D01*
X587585Y407773D01*
X567315Y407773D01*
G37*
%LPD*%
%LPC*%
G36*
X789565Y407773D02*
X789565Y407773D01*
X788523Y408815D01*
X788523Y429085D01*
X789565Y430127D01*
X809835Y430127D01*
X810877Y429085D01*
X810877Y408815D01*
X809835Y407773D01*
X789565Y407773D01*
G37*
%LPD*%
%LPC*%
G36*
X295065Y407773D02*
X295065Y407773D01*
X294023Y408815D01*
X294023Y429085D01*
X295065Y430127D01*
X315335Y430127D01*
X316377Y429085D01*
X316377Y408815D01*
X315335Y407773D01*
X295065Y407773D01*
G37*
%LPD*%
%LPC*%
G36*
X320065Y407773D02*
X320065Y407773D01*
X319023Y408815D01*
X319023Y429085D01*
X320065Y430127D01*
X340335Y430127D01*
X341377Y429085D01*
X341377Y408815D01*
X340335Y407773D01*
X320065Y407773D01*
G37*
%LPD*%
%LPC*%
G36*
X542315Y407773D02*
X542315Y407773D01*
X541273Y408815D01*
X541273Y429085D01*
X542315Y430127D01*
X562585Y430127D01*
X563627Y429085D01*
X563627Y408815D01*
X562585Y407773D01*
X542315Y407773D01*
G37*
%LPD*%
%LPC*%
G36*
X154965Y687173D02*
X154965Y687173D01*
X153923Y688215D01*
X153923Y708485D01*
X154965Y709527D01*
X175235Y709527D01*
X176277Y708485D01*
X176277Y688215D01*
X175235Y687173D01*
X154965Y687173D01*
G37*
%LPD*%
%LPC*%
G36*
X732415Y687173D02*
X732415Y687173D01*
X731373Y688215D01*
X731373Y708485D01*
X732415Y709527D01*
X752685Y709527D01*
X753727Y708485D01*
X753727Y688215D01*
X752685Y687173D01*
X732415Y687173D01*
G37*
%LPD*%
%LPC*%
G36*
X431190Y687173D02*
X431190Y687173D01*
X430148Y688215D01*
X430148Y708485D01*
X431190Y709527D01*
X451460Y709527D01*
X452502Y708485D01*
X452502Y688215D01*
X451460Y687173D01*
X431190Y687173D01*
G37*
%LPD*%
%LPC*%
G36*
X789119Y646731D02*
X789119Y646731D01*
X786429Y647846D01*
X784371Y649904D01*
X783256Y652594D01*
X783256Y655506D01*
X784371Y658196D01*
X786429Y660255D01*
X786900Y660449D01*
X786901Y660450D01*
X786902Y660451D01*
X787023Y660522D01*
X787144Y660594D01*
X787145Y660595D01*
X787147Y660596D01*
X787244Y660700D01*
X787340Y660800D01*
X787340Y660802D01*
X787341Y660803D01*
X787404Y660926D01*
X787470Y661053D01*
X787470Y661055D01*
X787471Y661056D01*
X787473Y661071D01*
X787525Y661332D01*
X787522Y661363D01*
X787526Y661387D01*
X787526Y678463D01*
X787526Y678464D01*
X787526Y678466D01*
X787506Y678607D01*
X787486Y678744D01*
X787486Y678746D01*
X787486Y678747D01*
X787428Y678875D01*
X787370Y679004D01*
X787369Y679005D01*
X787368Y679006D01*
X787277Y679113D01*
X787187Y679221D01*
X787185Y679222D01*
X787184Y679223D01*
X787171Y679231D01*
X786950Y679378D01*
X786921Y679387D01*
X786900Y679401D01*
X786429Y679595D01*
X784371Y681654D01*
X783256Y684344D01*
X783256Y687256D01*
X784371Y689946D01*
X786429Y692004D01*
X789119Y693119D01*
X792031Y693119D01*
X794721Y692004D01*
X796779Y689946D01*
X797894Y687256D01*
X797894Y684344D01*
X796779Y681654D01*
X794721Y679595D01*
X794250Y679401D01*
X794249Y679400D01*
X794248Y679399D01*
X794127Y679328D01*
X794006Y679256D01*
X794005Y679255D01*
X794003Y679254D01*
X793906Y679150D01*
X793810Y679050D01*
X793810Y679048D01*
X793809Y679047D01*
X793744Y678920D01*
X793680Y678797D01*
X793680Y678795D01*
X793679Y678794D01*
X793677Y678779D01*
X793625Y678518D01*
X793628Y678487D01*
X793624Y678463D01*
X793624Y661387D01*
X793624Y661386D01*
X793624Y661384D01*
X793644Y661243D01*
X793664Y661106D01*
X793664Y661104D01*
X793664Y661103D01*
X793722Y660975D01*
X793780Y660846D01*
X793781Y660845D01*
X793782Y660844D01*
X793873Y660737D01*
X793963Y660629D01*
X793965Y660628D01*
X793966Y660627D01*
X793979Y660619D01*
X794200Y660472D01*
X794229Y660463D01*
X794250Y660449D01*
X794721Y660255D01*
X796779Y658196D01*
X797894Y655506D01*
X797894Y652594D01*
X796779Y649904D01*
X794721Y647846D01*
X792031Y646731D01*
X789119Y646731D01*
G37*
%LPD*%
%LPC*%
G36*
X808169Y646731D02*
X808169Y646731D01*
X805479Y647846D01*
X803421Y649904D01*
X802306Y652594D01*
X802306Y655506D01*
X803421Y658196D01*
X805479Y660255D01*
X805950Y660449D01*
X805951Y660450D01*
X805952Y660451D01*
X806073Y660522D01*
X806194Y660594D01*
X806195Y660595D01*
X806197Y660596D01*
X806294Y660700D01*
X806390Y660800D01*
X806390Y660802D01*
X806391Y660803D01*
X806454Y660926D01*
X806520Y661053D01*
X806520Y661055D01*
X806521Y661056D01*
X806523Y661071D01*
X806575Y661332D01*
X806572Y661363D01*
X806576Y661387D01*
X806576Y678463D01*
X806576Y678464D01*
X806576Y678466D01*
X806556Y678607D01*
X806536Y678744D01*
X806536Y678746D01*
X806536Y678747D01*
X806478Y678875D01*
X806420Y679004D01*
X806419Y679005D01*
X806418Y679006D01*
X806327Y679113D01*
X806237Y679221D01*
X806235Y679222D01*
X806234Y679223D01*
X806221Y679231D01*
X806000Y679378D01*
X805971Y679387D01*
X805950Y679401D01*
X805479Y679595D01*
X803421Y681654D01*
X802306Y684344D01*
X802306Y687256D01*
X803421Y689946D01*
X805479Y692004D01*
X808169Y693119D01*
X811081Y693119D01*
X813771Y692004D01*
X815829Y689946D01*
X816944Y687256D01*
X816944Y684344D01*
X815829Y681654D01*
X813771Y679595D01*
X813300Y679401D01*
X813299Y679400D01*
X813298Y679399D01*
X813177Y679328D01*
X813056Y679256D01*
X813055Y679255D01*
X813053Y679254D01*
X812956Y679150D01*
X812860Y679050D01*
X812860Y679048D01*
X812859Y679047D01*
X812794Y678920D01*
X812730Y678797D01*
X812730Y678795D01*
X812729Y678794D01*
X812727Y678779D01*
X812675Y678518D01*
X812678Y678487D01*
X812674Y678463D01*
X812674Y661387D01*
X812674Y661386D01*
X812674Y661384D01*
X812694Y661243D01*
X812714Y661106D01*
X812714Y661104D01*
X812714Y661103D01*
X812772Y660975D01*
X812830Y660846D01*
X812831Y660845D01*
X812832Y660844D01*
X812923Y660737D01*
X813013Y660629D01*
X813015Y660628D01*
X813016Y660627D01*
X813029Y660619D01*
X813250Y660472D01*
X813279Y660463D01*
X813300Y660449D01*
X813771Y660255D01*
X815829Y658196D01*
X816944Y655506D01*
X816944Y652594D01*
X815829Y649904D01*
X813771Y647846D01*
X811081Y646731D01*
X808169Y646731D01*
G37*
%LPD*%
%LPC*%
G36*
X360494Y386381D02*
X360494Y386381D01*
X357804Y387496D01*
X355746Y389554D01*
X354631Y392244D01*
X354631Y395156D01*
X355746Y397846D01*
X357804Y399904D01*
X360494Y401019D01*
X363406Y401019D01*
X366096Y399904D01*
X368155Y397846D01*
X368349Y397375D01*
X368350Y397374D01*
X368351Y397373D01*
X368422Y397252D01*
X368494Y397131D01*
X368495Y397130D01*
X368496Y397128D01*
X368600Y397031D01*
X368700Y396935D01*
X368702Y396935D01*
X368703Y396934D01*
X368829Y396869D01*
X368953Y396805D01*
X368955Y396805D01*
X368956Y396804D01*
X368971Y396802D01*
X369232Y396750D01*
X369263Y396753D01*
X369287Y396749D01*
X386363Y396749D01*
X386364Y396749D01*
X386366Y396749D01*
X386507Y396769D01*
X386644Y396789D01*
X386646Y396789D01*
X386647Y396789D01*
X386775Y396847D01*
X386904Y396905D01*
X386905Y396906D01*
X386906Y396907D01*
X387013Y396998D01*
X387121Y397088D01*
X387122Y397090D01*
X387123Y397091D01*
X387131Y397104D01*
X387278Y397325D01*
X387287Y397354D01*
X387301Y397375D01*
X387495Y397846D01*
X389554Y399904D01*
X392244Y401019D01*
X395156Y401019D01*
X397846Y399904D01*
X399904Y397846D01*
X401019Y395156D01*
X401019Y392244D01*
X399904Y389554D01*
X397846Y387496D01*
X395156Y386381D01*
X392244Y386381D01*
X389554Y387496D01*
X387495Y389554D01*
X387301Y390025D01*
X387300Y390026D01*
X387299Y390027D01*
X387228Y390148D01*
X387156Y390269D01*
X387155Y390270D01*
X387154Y390272D01*
X387050Y390369D01*
X386950Y390465D01*
X386948Y390465D01*
X386947Y390466D01*
X386821Y390531D01*
X386697Y390595D01*
X386695Y390595D01*
X386694Y390596D01*
X386679Y390598D01*
X386418Y390650D01*
X386387Y390647D01*
X386363Y390651D01*
X369287Y390651D01*
X369286Y390651D01*
X369284Y390651D01*
X369143Y390631D01*
X369006Y390611D01*
X369004Y390611D01*
X369003Y390611D01*
X368875Y390553D01*
X368746Y390495D01*
X368745Y390494D01*
X368744Y390493D01*
X368637Y390402D01*
X368529Y390312D01*
X368528Y390310D01*
X368527Y390309D01*
X368519Y390296D01*
X368372Y390075D01*
X368363Y390046D01*
X368349Y390025D01*
X368155Y389554D01*
X366096Y387496D01*
X363406Y386381D01*
X360494Y386381D01*
G37*
%LPD*%
%LPC*%
G36*
X608144Y529256D02*
X608144Y529256D01*
X605454Y530371D01*
X603396Y532429D01*
X602281Y535119D01*
X602281Y538031D01*
X602476Y538501D01*
X602476Y538503D01*
X602477Y538504D01*
X602511Y538637D01*
X602547Y538776D01*
X602547Y538778D01*
X602547Y538779D01*
X602543Y538918D01*
X602539Y539060D01*
X602538Y539062D01*
X602538Y539064D01*
X602494Y539199D01*
X602452Y539331D01*
X602451Y539333D01*
X602451Y539334D01*
X602442Y539347D01*
X602294Y539567D01*
X602271Y539587D01*
X602256Y539607D01*
X597026Y544837D01*
X597026Y554638D01*
X597026Y554639D01*
X597026Y554641D01*
X597006Y554782D01*
X596986Y554919D01*
X596986Y554921D01*
X596986Y554922D01*
X596928Y555050D01*
X596870Y555179D01*
X596869Y555180D01*
X596868Y555181D01*
X596777Y555288D01*
X596687Y555396D01*
X596685Y555397D01*
X596684Y555398D01*
X596671Y555406D01*
X596450Y555553D01*
X596421Y555562D01*
X596400Y555576D01*
X595929Y555770D01*
X593871Y557829D01*
X592756Y560519D01*
X592756Y563431D01*
X593871Y566121D01*
X595929Y568179D01*
X598619Y569294D01*
X601531Y569294D01*
X604221Y568179D01*
X606279Y566121D01*
X607394Y563431D01*
X607394Y560519D01*
X606279Y557829D01*
X604221Y555770D01*
X603750Y555576D01*
X603749Y555575D01*
X603748Y555574D01*
X603627Y555503D01*
X603506Y555431D01*
X603505Y555430D01*
X603503Y555429D01*
X603406Y555325D01*
X603310Y555225D01*
X603310Y555223D01*
X603309Y555222D01*
X603244Y555096D01*
X603180Y554972D01*
X603180Y554970D01*
X603179Y554969D01*
X603177Y554954D01*
X603125Y554693D01*
X603128Y554662D01*
X603124Y554638D01*
X603124Y547783D01*
X603136Y547697D01*
X603139Y547609D01*
X603156Y547557D01*
X603164Y547502D01*
X603199Y547422D01*
X603226Y547339D01*
X603254Y547300D01*
X603280Y547242D01*
X603376Y547129D01*
X603421Y547065D01*
X606568Y543919D01*
X606569Y543918D01*
X606570Y543917D01*
X606683Y543832D01*
X606795Y543748D01*
X606796Y543748D01*
X606797Y543747D01*
X606928Y543697D01*
X607060Y543647D01*
X607062Y543647D01*
X607063Y543646D01*
X607202Y543635D01*
X607344Y543623D01*
X607345Y543624D01*
X607347Y543624D01*
X607362Y543627D01*
X607622Y543679D01*
X607650Y543693D01*
X607674Y543699D01*
X608144Y543894D01*
X611056Y543894D01*
X613746Y542779D01*
X615804Y540721D01*
X616919Y538031D01*
X616919Y535119D01*
X615804Y532429D01*
X613746Y530371D01*
X611056Y529256D01*
X608144Y529256D01*
G37*
%LPD*%
%LPC*%
G36*
X71570Y887348D02*
X71570Y887348D01*
X65023Y893895D01*
X65023Y903155D01*
X71570Y909702D01*
X80830Y909702D01*
X87377Y903155D01*
X87377Y893895D01*
X80830Y887348D01*
X71570Y887348D01*
G37*
%LPD*%
%LPC*%
G36*
X46170Y887348D02*
X46170Y887348D01*
X39623Y893895D01*
X39623Y903155D01*
X46170Y909702D01*
X55430Y909702D01*
X61977Y903155D01*
X61977Y893895D01*
X55430Y887348D01*
X46170Y887348D01*
G37*
%LPD*%
%LPC*%
G36*
X46170Y785748D02*
X46170Y785748D01*
X39623Y792295D01*
X39623Y801555D01*
X46170Y808102D01*
X55430Y808102D01*
X61977Y801555D01*
X61977Y792295D01*
X55430Y785748D01*
X46170Y785748D01*
G37*
%LPD*%
%LPC*%
G36*
X485906Y878506D02*
X485906Y878506D01*
X483216Y879621D01*
X481158Y881679D01*
X480043Y884369D01*
X480043Y887281D01*
X481158Y889971D01*
X483216Y892029D01*
X485906Y893144D01*
X488818Y893144D01*
X491508Y892029D01*
X493567Y889971D01*
X493761Y889500D01*
X493762Y889499D01*
X493763Y889498D01*
X493834Y889377D01*
X493906Y889256D01*
X493907Y889255D01*
X493908Y889253D01*
X494012Y889156D01*
X494112Y889060D01*
X494114Y889060D01*
X494115Y889059D01*
X494241Y888994D01*
X494365Y888930D01*
X494367Y888930D01*
X494368Y888929D01*
X494383Y888927D01*
X494644Y888875D01*
X494675Y888878D01*
X494699Y888874D01*
X505425Y888874D01*
X505426Y888874D01*
X505428Y888874D01*
X505569Y888894D01*
X505706Y888914D01*
X505708Y888914D01*
X505709Y888914D01*
X505837Y888972D01*
X505966Y889030D01*
X505967Y889031D01*
X505968Y889032D01*
X506075Y889123D01*
X506183Y889213D01*
X506184Y889215D01*
X506185Y889216D01*
X506193Y889229D01*
X506340Y889450D01*
X506349Y889479D01*
X506363Y889500D01*
X506557Y889971D01*
X508616Y892029D01*
X511306Y893144D01*
X514218Y893144D01*
X516908Y892029D01*
X518966Y889971D01*
X520081Y887281D01*
X520081Y884369D01*
X518966Y881679D01*
X516908Y879621D01*
X514218Y878506D01*
X511306Y878506D01*
X508616Y879621D01*
X506557Y881679D01*
X506363Y882150D01*
X506362Y882151D01*
X506361Y882152D01*
X506290Y882273D01*
X506218Y882394D01*
X506217Y882395D01*
X506216Y882397D01*
X506112Y882494D01*
X506012Y882590D01*
X506010Y882590D01*
X506009Y882591D01*
X505883Y882656D01*
X505759Y882720D01*
X505757Y882720D01*
X505756Y882721D01*
X505741Y882723D01*
X505480Y882775D01*
X505449Y882772D01*
X505425Y882776D01*
X494699Y882776D01*
X494698Y882776D01*
X494696Y882776D01*
X494555Y882756D01*
X494418Y882736D01*
X494416Y882736D01*
X494415Y882736D01*
X494287Y882678D01*
X494158Y882620D01*
X494157Y882619D01*
X494156Y882618D01*
X494049Y882527D01*
X493941Y882437D01*
X493940Y882435D01*
X493939Y882434D01*
X493931Y882421D01*
X493784Y882200D01*
X493775Y882171D01*
X493761Y882150D01*
X493567Y881679D01*
X491508Y879621D01*
X488818Y878506D01*
X485906Y878506D01*
G37*
%LPD*%
%LPC*%
G36*
X855027Y522223D02*
X855027Y522223D01*
X850919Y523925D01*
X847775Y527069D01*
X846073Y531177D01*
X846073Y535623D01*
X847775Y539731D01*
X850919Y542875D01*
X855027Y544577D01*
X859473Y544577D01*
X863581Y542875D01*
X866725Y539731D01*
X868427Y535623D01*
X868427Y531177D01*
X866725Y527069D01*
X863581Y523925D01*
X859473Y522223D01*
X855027Y522223D01*
G37*
%LPD*%
%LPC*%
G36*
X855027Y471423D02*
X855027Y471423D01*
X850919Y473125D01*
X847775Y476269D01*
X846073Y480377D01*
X846073Y484823D01*
X847775Y488931D01*
X850919Y492075D01*
X855027Y493777D01*
X859473Y493777D01*
X863581Y492075D01*
X866725Y488931D01*
X868427Y484823D01*
X868427Y480377D01*
X866725Y476269D01*
X863581Y473125D01*
X859473Y471423D01*
X855027Y471423D01*
G37*
%LPD*%
%LPC*%
G36*
X855027Y573023D02*
X855027Y573023D01*
X850919Y574725D01*
X847775Y577869D01*
X846073Y581977D01*
X846073Y586423D01*
X847775Y590531D01*
X850919Y593675D01*
X855027Y595377D01*
X859473Y595377D01*
X863581Y593675D01*
X866725Y590531D01*
X868427Y586423D01*
X868427Y581977D01*
X866725Y577869D01*
X863581Y574725D01*
X859473Y573023D01*
X855027Y573023D01*
G37*
%LPD*%
%LPC*%
G36*
X855027Y547623D02*
X855027Y547623D01*
X850919Y549325D01*
X847775Y552469D01*
X846073Y556577D01*
X846073Y561023D01*
X847775Y565131D01*
X850919Y568275D01*
X855027Y569977D01*
X859473Y569977D01*
X863581Y568275D01*
X866725Y565131D01*
X868427Y561023D01*
X868427Y556577D01*
X866725Y552469D01*
X863581Y549325D01*
X859473Y547623D01*
X855027Y547623D01*
G37*
%LPD*%
%LPC*%
G36*
X855027Y496823D02*
X855027Y496823D01*
X850919Y498525D01*
X847775Y501669D01*
X846073Y505777D01*
X846073Y510223D01*
X847775Y514331D01*
X850919Y517475D01*
X855027Y519177D01*
X859473Y519177D01*
X863581Y517475D01*
X866725Y514331D01*
X868427Y510223D01*
X868427Y505777D01*
X866725Y501669D01*
X863581Y498525D01*
X859473Y496823D01*
X855027Y496823D01*
G37*
%LPD*%
%LPC*%
G36*
X689165Y944117D02*
X689165Y944117D01*
X685057Y945819D01*
X681913Y948963D01*
X680211Y953071D01*
X680211Y957517D01*
X681913Y961625D01*
X685057Y964769D01*
X689165Y966471D01*
X693611Y966471D01*
X697719Y964769D01*
X700863Y961625D01*
X702565Y957517D01*
X702565Y953071D01*
X700863Y948963D01*
X697719Y945819D01*
X693611Y944117D01*
X689165Y944117D01*
G37*
%LPD*%
%LPC*%
G36*
X784415Y944117D02*
X784415Y944117D01*
X780307Y945819D01*
X777163Y948963D01*
X775461Y953071D01*
X775461Y957517D01*
X777163Y961625D01*
X780307Y964769D01*
X784415Y966471D01*
X788861Y966471D01*
X792969Y964769D01*
X796113Y961625D01*
X797815Y957517D01*
X797815Y953071D01*
X796113Y948963D01*
X792969Y945819D01*
X788861Y944117D01*
X784415Y944117D01*
G37*
%LPD*%
%LPC*%
G36*
X849439Y944117D02*
X849439Y944117D01*
X845331Y945819D01*
X842187Y948963D01*
X840485Y953071D01*
X840485Y957517D01*
X842187Y961625D01*
X845331Y964769D01*
X849439Y966471D01*
X853885Y966471D01*
X857993Y964769D01*
X861137Y961625D01*
X862839Y957517D01*
X862839Y953071D01*
X861137Y948963D01*
X857993Y945819D01*
X853885Y944117D01*
X849439Y944117D01*
G37*
%LPD*%
%LPC*%
G36*
X773244Y84756D02*
X773244Y84756D01*
X770554Y85871D01*
X768496Y87929D01*
X767381Y90619D01*
X767381Y93531D01*
X768496Y96221D01*
X770554Y98279D01*
X773244Y99394D01*
X776156Y99394D01*
X778846Y98279D01*
X780905Y96221D01*
X781099Y95750D01*
X781100Y95749D01*
X781101Y95748D01*
X781174Y95624D01*
X781244Y95506D01*
X781245Y95505D01*
X781246Y95503D01*
X781350Y95406D01*
X781450Y95310D01*
X781452Y95310D01*
X781453Y95309D01*
X781579Y95244D01*
X781703Y95180D01*
X781705Y95180D01*
X781706Y95179D01*
X781721Y95177D01*
X781982Y95125D01*
X782013Y95128D01*
X782037Y95124D01*
X789588Y95124D01*
X789589Y95124D01*
X789591Y95124D01*
X789732Y95144D01*
X789869Y95164D01*
X789871Y95164D01*
X789872Y95164D01*
X790000Y95222D01*
X790129Y95280D01*
X790130Y95281D01*
X790131Y95282D01*
X790238Y95373D01*
X790346Y95463D01*
X790347Y95465D01*
X790348Y95466D01*
X790356Y95479D01*
X790503Y95700D01*
X790512Y95729D01*
X790526Y95750D01*
X790720Y96221D01*
X792779Y98279D01*
X795469Y99394D01*
X798381Y99394D01*
X801071Y98279D01*
X803129Y96221D01*
X804244Y93531D01*
X804244Y90619D01*
X803129Y87929D01*
X801071Y85871D01*
X798381Y84756D01*
X795469Y84756D01*
X792779Y85871D01*
X790720Y87929D01*
X790526Y88400D01*
X790525Y88401D01*
X790524Y88402D01*
X790453Y88523D01*
X790381Y88644D01*
X790380Y88645D01*
X790379Y88647D01*
X790275Y88744D01*
X790175Y88840D01*
X790173Y88840D01*
X790172Y88841D01*
X790046Y88906D01*
X789922Y88970D01*
X789920Y88970D01*
X789919Y88971D01*
X789904Y88973D01*
X789643Y89025D01*
X789612Y89022D01*
X789588Y89026D01*
X782037Y89026D01*
X782036Y89026D01*
X782034Y89026D01*
X781893Y89006D01*
X781756Y88986D01*
X781754Y88986D01*
X781753Y88986D01*
X781625Y88928D01*
X781496Y88870D01*
X781495Y88869D01*
X781494Y88868D01*
X781387Y88777D01*
X781279Y88687D01*
X781278Y88685D01*
X781277Y88684D01*
X781269Y88671D01*
X781122Y88450D01*
X781113Y88421D01*
X781099Y88400D01*
X780905Y87929D01*
X778846Y85871D01*
X776156Y84756D01*
X773244Y84756D01*
G37*
%LPD*%
%LPC*%
G36*
X74744Y500681D02*
X74744Y500681D01*
X72054Y501796D01*
X69996Y503854D01*
X68881Y506544D01*
X68881Y509456D01*
X69996Y512146D01*
X72054Y514204D01*
X74744Y515319D01*
X77656Y515319D01*
X80346Y514205D01*
X82442Y512108D01*
X82512Y512056D01*
X82576Y511996D01*
X82625Y511970D01*
X82669Y511937D01*
X82751Y511906D01*
X82829Y511866D01*
X82877Y511858D01*
X82935Y511836D01*
X83083Y511824D01*
X83160Y511811D01*
X88290Y511811D01*
X88377Y511823D01*
X88464Y511826D01*
X88517Y511843D01*
X88571Y511851D01*
X88651Y511886D01*
X88735Y511913D01*
X88774Y511941D01*
X88831Y511967D01*
X88944Y512063D01*
X89008Y512108D01*
X91104Y514205D01*
X93794Y515319D01*
X96706Y515319D01*
X99396Y514204D01*
X101454Y512146D01*
X102569Y509456D01*
X102569Y506544D01*
X101454Y503854D01*
X99396Y501796D01*
X96706Y500681D01*
X93794Y500681D01*
X91104Y501795D01*
X89008Y503892D01*
X88938Y503944D01*
X88874Y504004D01*
X88825Y504030D01*
X88781Y504063D01*
X88699Y504094D01*
X88621Y504134D01*
X88573Y504142D01*
X88515Y504164D01*
X88367Y504176D01*
X88290Y504189D01*
X83160Y504189D01*
X83073Y504177D01*
X82986Y504174D01*
X82933Y504157D01*
X82879Y504149D01*
X82799Y504114D01*
X82715Y504087D01*
X82676Y504059D01*
X82619Y504033D01*
X82506Y503937D01*
X82442Y503892D01*
X80346Y501795D01*
X77656Y500681D01*
X74744Y500681D01*
G37*
%LPD*%
%LPC*%
G36*
X541681Y198881D02*
X541681Y198881D01*
X535431Y205131D01*
X535431Y213969D01*
X541681Y220219D01*
X550519Y220219D01*
X556769Y213969D01*
X556769Y205131D01*
X550519Y198881D01*
X541681Y198881D01*
G37*
%LPD*%
%LPC*%
G36*
X833781Y198881D02*
X833781Y198881D01*
X827531Y205131D01*
X827531Y213969D01*
X833781Y220219D01*
X842619Y220219D01*
X848869Y213969D01*
X848869Y205131D01*
X842619Y198881D01*
X833781Y198881D01*
G37*
%LPD*%
%LPC*%
G36*
X687731Y198881D02*
X687731Y198881D01*
X681481Y205131D01*
X681481Y213969D01*
X687731Y220219D01*
X696569Y220219D01*
X702819Y213969D01*
X702819Y205131D01*
X696569Y198881D01*
X687731Y198881D01*
G37*
%LPD*%
%LPC*%
G36*
X757581Y198881D02*
X757581Y198881D01*
X751331Y205131D01*
X751331Y213969D01*
X757581Y220219D01*
X766419Y220219D01*
X772669Y213969D01*
X772669Y205131D01*
X766419Y198881D01*
X757581Y198881D01*
G37*
%LPD*%
%LPC*%
G36*
X611531Y198881D02*
X611531Y198881D01*
X605281Y205131D01*
X605281Y213969D01*
X611531Y220219D01*
X620369Y220219D01*
X626619Y213969D01*
X626619Y205131D01*
X620369Y198881D01*
X611531Y198881D01*
G37*
%LPD*%
%LPC*%
G36*
X27331Y198881D02*
X27331Y198881D01*
X21081Y205131D01*
X21081Y213969D01*
X27331Y220219D01*
X36169Y220219D01*
X42419Y213969D01*
X42419Y205131D01*
X36169Y198881D01*
X27331Y198881D01*
G37*
%LPD*%
%LPC*%
G36*
X541681Y52831D02*
X541681Y52831D01*
X535431Y59081D01*
X535431Y67919D01*
X541681Y74169D01*
X550519Y74169D01*
X556769Y67919D01*
X556769Y59081D01*
X550519Y52831D01*
X541681Y52831D01*
G37*
%LPD*%
%LPC*%
G36*
X27331Y52831D02*
X27331Y52831D01*
X21081Y59081D01*
X21081Y67919D01*
X27331Y74169D01*
X36169Y74169D01*
X42419Y67919D01*
X42419Y59081D01*
X36169Y52831D01*
X27331Y52831D01*
G37*
%LPD*%
%LPC*%
G36*
X103531Y52831D02*
X103531Y52831D01*
X97281Y59081D01*
X97281Y67919D01*
X103531Y74169D01*
X112369Y74169D01*
X118619Y67919D01*
X118619Y59081D01*
X112369Y52831D01*
X103531Y52831D01*
G37*
%LPD*%
%LPC*%
G36*
X173381Y52831D02*
X173381Y52831D01*
X167131Y59081D01*
X167131Y67919D01*
X173381Y74169D01*
X182219Y74169D01*
X188469Y67919D01*
X188469Y59081D01*
X182219Y52831D01*
X173381Y52831D01*
G37*
%LPD*%
%LPC*%
G36*
X395631Y198881D02*
X395631Y198881D01*
X389381Y205131D01*
X389381Y213969D01*
X395631Y220219D01*
X404469Y220219D01*
X410719Y213969D01*
X410719Y205131D01*
X404469Y198881D01*
X395631Y198881D01*
G37*
%LPD*%
%LPC*%
G36*
X249581Y52831D02*
X249581Y52831D01*
X243331Y59081D01*
X243331Y67919D01*
X249581Y74169D01*
X258419Y74169D01*
X264669Y67919D01*
X264669Y59081D01*
X258419Y52831D01*
X249581Y52831D01*
G37*
%LPD*%
%LPC*%
G36*
X319431Y52831D02*
X319431Y52831D01*
X313181Y59081D01*
X313181Y67919D01*
X319431Y74169D01*
X328269Y74169D01*
X334519Y67919D01*
X334519Y59081D01*
X328269Y52831D01*
X319431Y52831D01*
G37*
%LPD*%
%LPC*%
G36*
X395631Y52831D02*
X395631Y52831D01*
X389381Y59081D01*
X389381Y67919D01*
X395631Y74169D01*
X404469Y74169D01*
X410719Y67919D01*
X410719Y59081D01*
X404469Y52831D01*
X395631Y52831D01*
G37*
%LPD*%
%LPC*%
G36*
X465481Y52831D02*
X465481Y52831D01*
X459231Y59081D01*
X459231Y67919D01*
X465481Y74169D01*
X474319Y74169D01*
X480569Y67919D01*
X480569Y59081D01*
X474319Y52831D01*
X465481Y52831D01*
G37*
%LPD*%
%LPC*%
G36*
X611531Y52831D02*
X611531Y52831D01*
X605281Y59081D01*
X605281Y67919D01*
X611531Y74169D01*
X620369Y74169D01*
X626619Y67919D01*
X626619Y59081D01*
X620369Y52831D01*
X611531Y52831D01*
G37*
%LPD*%
%LPC*%
G36*
X687731Y52831D02*
X687731Y52831D01*
X681481Y59081D01*
X681481Y67919D01*
X687731Y74169D01*
X696569Y74169D01*
X702819Y67919D01*
X702819Y59081D01*
X696569Y52831D01*
X687731Y52831D01*
G37*
%LPD*%
%LPC*%
G36*
X757581Y52831D02*
X757581Y52831D01*
X751331Y59081D01*
X751331Y67919D01*
X757581Y74169D01*
X766419Y74169D01*
X772669Y67919D01*
X772669Y59081D01*
X766419Y52831D01*
X757581Y52831D01*
G37*
%LPD*%
%LPC*%
G36*
X833781Y52831D02*
X833781Y52831D01*
X827531Y59081D01*
X827531Y67919D01*
X833781Y74169D01*
X842619Y74169D01*
X848869Y67919D01*
X848869Y59081D01*
X842619Y52831D01*
X833781Y52831D01*
G37*
%LPD*%
%LPC*%
G36*
X319431Y198881D02*
X319431Y198881D01*
X313181Y205131D01*
X313181Y213969D01*
X319431Y220219D01*
X328269Y220219D01*
X334519Y213969D01*
X334519Y205131D01*
X328269Y198881D01*
X319431Y198881D01*
G37*
%LPD*%
%LPC*%
G36*
X276778Y993139D02*
X276778Y993139D01*
X270826Y999091D01*
X270826Y1007509D01*
X276778Y1013461D01*
X285196Y1013461D01*
X291148Y1007509D01*
X291148Y999091D01*
X285196Y993139D01*
X276778Y993139D01*
G37*
%LPD*%
%LPC*%
G36*
X383140Y993139D02*
X383140Y993139D01*
X377188Y999091D01*
X377188Y1007509D01*
X383140Y1013461D01*
X391558Y1013461D01*
X397510Y1007509D01*
X397510Y999091D01*
X391558Y993139D01*
X383140Y993139D01*
G37*
%LPD*%
%LPC*%
G36*
X489503Y993139D02*
X489503Y993139D01*
X483551Y999091D01*
X483551Y1007509D01*
X489503Y1013461D01*
X497921Y1013461D01*
X503873Y1007509D01*
X503873Y999091D01*
X497921Y993139D01*
X489503Y993139D01*
G37*
%LPD*%
%LPC*%
G36*
X595866Y993139D02*
X595866Y993139D01*
X589914Y999091D01*
X589914Y1007509D01*
X595866Y1013461D01*
X604284Y1013461D01*
X610236Y1007509D01*
X610236Y999091D01*
X604284Y993139D01*
X595866Y993139D01*
G37*
%LPD*%
%LPC*%
G36*
X276778Y942339D02*
X276778Y942339D01*
X270826Y948291D01*
X270826Y956709D01*
X276778Y962661D01*
X285196Y962661D01*
X291148Y956709D01*
X291148Y948291D01*
X285196Y942339D01*
X276778Y942339D01*
G37*
%LPD*%
%LPC*%
G36*
X383140Y942339D02*
X383140Y942339D01*
X377188Y948291D01*
X377188Y956709D01*
X383140Y962661D01*
X391558Y962661D01*
X397510Y956709D01*
X397510Y948291D01*
X391558Y942339D01*
X383140Y942339D01*
G37*
%LPD*%
%LPC*%
G36*
X489503Y942339D02*
X489503Y942339D01*
X483551Y948291D01*
X483551Y956709D01*
X489503Y962661D01*
X497921Y962661D01*
X503873Y956709D01*
X503873Y948291D01*
X497921Y942339D01*
X489503Y942339D01*
G37*
%LPD*%
%LPC*%
G36*
X595866Y942339D02*
X595866Y942339D01*
X589914Y948291D01*
X589914Y956709D01*
X595866Y962661D01*
X604284Y962661D01*
X610236Y956709D01*
X610236Y948291D01*
X604284Y942339D01*
X595866Y942339D01*
G37*
%LPD*%
%LPC*%
G36*
X74504Y944371D02*
X74504Y944371D01*
X71369Y945670D01*
X68970Y948069D01*
X67671Y951204D01*
X67671Y954596D01*
X68970Y957731D01*
X71369Y960130D01*
X74504Y961429D01*
X77896Y961429D01*
X81031Y960130D01*
X83430Y957731D01*
X84729Y954596D01*
X84729Y951204D01*
X83430Y948069D01*
X81031Y945670D01*
X77896Y944371D01*
X74504Y944371D01*
G37*
%LPD*%
%LPC*%
G36*
X99504Y944371D02*
X99504Y944371D01*
X96369Y945670D01*
X93970Y948069D01*
X92671Y951204D01*
X92671Y954596D01*
X93970Y957731D01*
X96369Y960130D01*
X99504Y961429D01*
X102896Y961429D01*
X106031Y960130D01*
X108430Y957731D01*
X109729Y954596D01*
X109729Y951204D01*
X108430Y948069D01*
X106031Y945670D01*
X102896Y944371D01*
X99504Y944371D01*
G37*
%LPD*%
%LPC*%
G36*
X99504Y994371D02*
X99504Y994371D01*
X96369Y995670D01*
X93970Y998069D01*
X92671Y1001204D01*
X92671Y1004596D01*
X93970Y1007731D01*
X96369Y1010130D01*
X99504Y1011429D01*
X102896Y1011429D01*
X106031Y1010130D01*
X108430Y1007731D01*
X109729Y1004596D01*
X109729Y1001204D01*
X108430Y998069D01*
X106031Y995670D01*
X102896Y994371D01*
X99504Y994371D01*
G37*
%LPD*%
%LPC*%
G36*
X74504Y994371D02*
X74504Y994371D01*
X71369Y995670D01*
X68970Y998069D01*
X67671Y1001204D01*
X67671Y1004596D01*
X68970Y1007731D01*
X71369Y1010130D01*
X74504Y1011429D01*
X77896Y1011429D01*
X81031Y1010130D01*
X83430Y1007731D01*
X84729Y1004596D01*
X84729Y1001204D01*
X83430Y998069D01*
X81031Y995670D01*
X77896Y994371D01*
X74504Y994371D01*
G37*
%LPD*%
%LPC*%
G36*
X123172Y970589D02*
X123172Y970589D01*
X118889Y974872D01*
X118889Y980928D01*
X123172Y985211D01*
X129228Y985211D01*
X133511Y980928D01*
X133511Y974872D01*
X129228Y970589D01*
X123172Y970589D01*
G37*
%LPD*%
%LPC*%
G36*
X192131Y700381D02*
X192131Y700381D01*
X192131Y709781D01*
X199766Y709781D01*
X200283Y709642D01*
X200746Y709375D01*
X201125Y708996D01*
X201392Y708533D01*
X201531Y708016D01*
X201531Y700381D01*
X192131Y700381D01*
G37*
%LPD*%
%LPC*%
G36*
X694581Y700381D02*
X694581Y700381D01*
X694581Y709781D01*
X702216Y709781D01*
X702733Y709642D01*
X703196Y709375D01*
X703575Y708996D01*
X703842Y708533D01*
X703981Y708016D01*
X703981Y700381D01*
X694581Y700381D01*
G37*
%LPD*%
%LPC*%
G36*
X418356Y700381D02*
X418356Y700381D01*
X418356Y709781D01*
X425991Y709781D01*
X426508Y709642D01*
X426971Y709375D01*
X427350Y708996D01*
X427617Y708533D01*
X427756Y708016D01*
X427756Y700381D01*
X418356Y700381D01*
G37*
%LPD*%
%LPC*%
G36*
X751731Y420981D02*
X751731Y420981D01*
X751731Y430381D01*
X759366Y430381D01*
X759883Y430242D01*
X760346Y429975D01*
X760725Y429596D01*
X760992Y429133D01*
X761131Y428616D01*
X761131Y420981D01*
X751731Y420981D01*
G37*
%LPD*%
%LPC*%
G36*
X529481Y420981D02*
X529481Y420981D01*
X529481Y430381D01*
X537116Y430381D01*
X537633Y430242D01*
X538096Y429975D01*
X538475Y429596D01*
X538742Y429133D01*
X538881Y428616D01*
X538881Y420981D01*
X529481Y420981D01*
G37*
%LPD*%
%LPC*%
G36*
X357231Y420981D02*
X357231Y420981D01*
X357231Y430381D01*
X364866Y430381D01*
X365383Y430242D01*
X365846Y429975D01*
X366225Y429596D01*
X366492Y429133D01*
X366631Y428616D01*
X366631Y420981D01*
X357231Y420981D01*
G37*
%LPD*%
%LPC*%
G36*
X516019Y420981D02*
X516019Y420981D01*
X516019Y428616D01*
X516158Y429133D01*
X516425Y429596D01*
X516804Y429975D01*
X517267Y430242D01*
X517784Y430381D01*
X525419Y430381D01*
X525419Y420981D01*
X516019Y420981D01*
G37*
%LPD*%
%LPC*%
G36*
X738269Y420981D02*
X738269Y420981D01*
X738269Y428616D01*
X738408Y429133D01*
X738675Y429596D01*
X739054Y429975D01*
X739517Y430242D01*
X740034Y430381D01*
X747669Y430381D01*
X747669Y420981D01*
X738269Y420981D01*
G37*
%LPD*%
%LPC*%
G36*
X178669Y700381D02*
X178669Y700381D01*
X178669Y708016D01*
X178808Y708533D01*
X179075Y708996D01*
X179454Y709375D01*
X179917Y709642D01*
X180434Y709781D01*
X188069Y709781D01*
X188069Y700381D01*
X178669Y700381D01*
G37*
%LPD*%
%LPC*%
G36*
X681119Y700381D02*
X681119Y700381D01*
X681119Y708016D01*
X681258Y708533D01*
X681525Y708996D01*
X681904Y709375D01*
X682367Y709642D01*
X682884Y709781D01*
X690519Y709781D01*
X690519Y700381D01*
X681119Y700381D01*
G37*
%LPD*%
%LPC*%
G36*
X404894Y700381D02*
X404894Y700381D01*
X404894Y708016D01*
X405033Y708533D01*
X405300Y708996D01*
X405679Y709375D01*
X406142Y709642D01*
X406659Y709781D01*
X414294Y709781D01*
X414294Y700381D01*
X404894Y700381D01*
G37*
%LPD*%
%LPC*%
G36*
X343769Y420981D02*
X343769Y420981D01*
X343769Y428616D01*
X343908Y429133D01*
X344175Y429596D01*
X344554Y429975D01*
X345017Y430242D01*
X345534Y430381D01*
X353169Y430381D01*
X353169Y420981D01*
X343769Y420981D01*
G37*
%LPD*%
%LPC*%
G36*
X418356Y686919D02*
X418356Y686919D01*
X418356Y696319D01*
X427756Y696319D01*
X427756Y688684D01*
X427617Y688167D01*
X427350Y687704D01*
X426971Y687325D01*
X426508Y687058D01*
X425991Y686919D01*
X418356Y686919D01*
G37*
%LPD*%
%LPC*%
G36*
X192131Y686919D02*
X192131Y686919D01*
X192131Y696319D01*
X201531Y696319D01*
X201531Y688684D01*
X201392Y688167D01*
X201125Y687704D01*
X200746Y687325D01*
X200283Y687058D01*
X199766Y686919D01*
X192131Y686919D01*
G37*
%LPD*%
%LPC*%
G36*
X694581Y686919D02*
X694581Y686919D01*
X694581Y696319D01*
X703981Y696319D01*
X703981Y688684D01*
X703842Y688167D01*
X703575Y687704D01*
X703196Y687325D01*
X702733Y687058D01*
X702216Y686919D01*
X694581Y686919D01*
G37*
%LPD*%
%LPC*%
G36*
X529481Y407519D02*
X529481Y407519D01*
X529481Y416919D01*
X538881Y416919D01*
X538881Y409284D01*
X538742Y408767D01*
X538475Y408304D01*
X538096Y407925D01*
X537633Y407658D01*
X537116Y407519D01*
X529481Y407519D01*
G37*
%LPD*%
%LPC*%
G36*
X751731Y407519D02*
X751731Y407519D01*
X751731Y416919D01*
X761131Y416919D01*
X761131Y409284D01*
X760992Y408767D01*
X760725Y408304D01*
X760346Y407925D01*
X759883Y407658D01*
X759366Y407519D01*
X751731Y407519D01*
G37*
%LPD*%
%LPC*%
G36*
X357231Y407519D02*
X357231Y407519D01*
X357231Y416919D01*
X366631Y416919D01*
X366631Y409284D01*
X366492Y408767D01*
X366225Y408304D01*
X365846Y407925D01*
X365383Y407658D01*
X364866Y407519D01*
X357231Y407519D01*
G37*
%LPD*%
%LPC*%
G36*
X740034Y407519D02*
X740034Y407519D01*
X739517Y407658D01*
X739054Y407925D01*
X738675Y408304D01*
X738408Y408767D01*
X738269Y409284D01*
X738269Y416919D01*
X747669Y416919D01*
X747669Y407519D01*
X740034Y407519D01*
G37*
%LPD*%
%LPC*%
G36*
X517784Y407519D02*
X517784Y407519D01*
X517267Y407658D01*
X516804Y407925D01*
X516425Y408304D01*
X516158Y408767D01*
X516019Y409284D01*
X516019Y416919D01*
X525419Y416919D01*
X525419Y407519D01*
X517784Y407519D01*
G37*
%LPD*%
%LPC*%
G36*
X345534Y407519D02*
X345534Y407519D01*
X345017Y407658D01*
X344554Y407925D01*
X344175Y408304D01*
X343908Y408767D01*
X343769Y409284D01*
X343769Y416919D01*
X353169Y416919D01*
X353169Y407519D01*
X345534Y407519D01*
G37*
%LPD*%
%LPC*%
G36*
X406659Y686919D02*
X406659Y686919D01*
X406142Y687058D01*
X405679Y687325D01*
X405300Y687704D01*
X405033Y688167D01*
X404894Y688684D01*
X404894Y696319D01*
X414294Y696319D01*
X414294Y686919D01*
X406659Y686919D01*
G37*
%LPD*%
%LPC*%
G36*
X180434Y686919D02*
X180434Y686919D01*
X179917Y687058D01*
X179454Y687325D01*
X179075Y687704D01*
X178808Y688167D01*
X178669Y688684D01*
X178669Y696319D01*
X188069Y696319D01*
X188069Y686919D01*
X180434Y686919D01*
G37*
%LPD*%
%LPC*%
G36*
X78231Y875156D02*
X78231Y875156D01*
X78231Y884556D01*
X80935Y884556D01*
X87631Y877860D01*
X87631Y875156D01*
X78231Y875156D01*
G37*
%LPD*%
%LPC*%
G36*
X78231Y849756D02*
X78231Y849756D01*
X78231Y859156D01*
X80935Y859156D01*
X87631Y852460D01*
X87631Y849756D01*
X78231Y849756D01*
G37*
%LPD*%
%LPC*%
G36*
X52831Y875156D02*
X52831Y875156D01*
X52831Y884556D01*
X55535Y884556D01*
X62231Y877860D01*
X62231Y875156D01*
X52831Y875156D01*
G37*
%LPD*%
%LPC*%
G36*
X52831Y849756D02*
X52831Y849756D01*
X52831Y859156D01*
X55535Y859156D01*
X62231Y852460D01*
X62231Y849756D01*
X52831Y849756D01*
G37*
%LPD*%
%LPC*%
G36*
X52831Y824356D02*
X52831Y824356D01*
X52831Y833756D01*
X55535Y833756D01*
X62231Y827060D01*
X62231Y824356D01*
X52831Y824356D01*
G37*
%LPD*%
%LPC*%
G36*
X78231Y824356D02*
X78231Y824356D01*
X78231Y833756D01*
X80935Y833756D01*
X87631Y827060D01*
X87631Y824356D01*
X78231Y824356D01*
G37*
%LPD*%
%LPC*%
G36*
X64769Y849756D02*
X64769Y849756D01*
X64769Y852460D01*
X71465Y859156D01*
X74169Y859156D01*
X74169Y849756D01*
X64769Y849756D01*
G37*
%LPD*%
%LPC*%
G36*
X64769Y875156D02*
X64769Y875156D01*
X64769Y877860D01*
X71465Y884556D01*
X74169Y884556D01*
X74169Y875156D01*
X64769Y875156D01*
G37*
%LPD*%
%LPC*%
G36*
X39369Y875156D02*
X39369Y875156D01*
X39369Y877860D01*
X46065Y884556D01*
X48769Y884556D01*
X48769Y875156D01*
X39369Y875156D01*
G37*
%LPD*%
%LPC*%
G36*
X64769Y824356D02*
X64769Y824356D01*
X64769Y827060D01*
X71465Y833756D01*
X74169Y833756D01*
X74169Y824356D01*
X64769Y824356D01*
G37*
%LPD*%
%LPC*%
G36*
X39369Y824356D02*
X39369Y824356D01*
X39369Y827060D01*
X46065Y833756D01*
X48769Y833756D01*
X48769Y824356D01*
X39369Y824356D01*
G37*
%LPD*%
%LPC*%
G36*
X39369Y849756D02*
X39369Y849756D01*
X39369Y852460D01*
X46065Y859156D01*
X48769Y859156D01*
X48769Y849756D01*
X39369Y849756D01*
G37*
%LPD*%
%LPC*%
G36*
X78231Y810894D02*
X78231Y810894D01*
X78231Y820294D01*
X87631Y820294D01*
X87631Y817590D01*
X80935Y810894D01*
X78231Y810894D01*
G37*
%LPD*%
%LPC*%
G36*
X52831Y861694D02*
X52831Y861694D01*
X52831Y871094D01*
X62231Y871094D01*
X62231Y868390D01*
X55535Y861694D01*
X52831Y861694D01*
G37*
%LPD*%
%LPC*%
G36*
X52831Y836294D02*
X52831Y836294D01*
X52831Y845694D01*
X62231Y845694D01*
X62231Y842990D01*
X55535Y836294D01*
X52831Y836294D01*
G37*
%LPD*%
%LPC*%
G36*
X78231Y861694D02*
X78231Y861694D01*
X78231Y871094D01*
X87631Y871094D01*
X87631Y868390D01*
X80935Y861694D01*
X78231Y861694D01*
G37*
%LPD*%
%LPC*%
G36*
X52831Y810894D02*
X52831Y810894D01*
X52831Y820294D01*
X62231Y820294D01*
X62231Y817590D01*
X55535Y810894D01*
X52831Y810894D01*
G37*
%LPD*%
%LPC*%
G36*
X78231Y836294D02*
X78231Y836294D01*
X78231Y845694D01*
X87631Y845694D01*
X87631Y842990D01*
X80935Y836294D01*
X78231Y836294D01*
G37*
%LPD*%
%LPC*%
G36*
X46065Y810894D02*
X46065Y810894D01*
X39369Y817590D01*
X39369Y820294D01*
X48769Y820294D01*
X48769Y810894D01*
X46065Y810894D01*
G37*
%LPD*%
%LPC*%
G36*
X71465Y810894D02*
X71465Y810894D01*
X64769Y817590D01*
X64769Y820294D01*
X74169Y820294D01*
X74169Y810894D01*
X71465Y810894D01*
G37*
%LPD*%
%LPC*%
G36*
X46065Y836294D02*
X46065Y836294D01*
X39369Y842990D01*
X39369Y845694D01*
X48769Y845694D01*
X48769Y836294D01*
X46065Y836294D01*
G37*
%LPD*%
%LPC*%
G36*
X71465Y861694D02*
X71465Y861694D01*
X64769Y868390D01*
X64769Y871094D01*
X74169Y871094D01*
X74169Y861694D01*
X71465Y861694D01*
G37*
%LPD*%
%LPC*%
G36*
X46065Y861694D02*
X46065Y861694D01*
X39369Y868390D01*
X39369Y871094D01*
X48769Y871094D01*
X48769Y861694D01*
X46065Y861694D01*
G37*
%LPD*%
%LPC*%
G36*
X71465Y836294D02*
X71465Y836294D01*
X64769Y842990D01*
X64769Y845694D01*
X74169Y845694D01*
X74169Y836294D01*
X71465Y836294D01*
G37*
%LPD*%
%LPC*%
G36*
X693419Y1002537D02*
X693419Y1002537D01*
X693419Y1011758D01*
X694065Y1011655D01*
X695776Y1011099D01*
X697379Y1010282D01*
X698835Y1009225D01*
X700107Y1007953D01*
X701164Y1006497D01*
X701981Y1004894D01*
X702537Y1003183D01*
X702640Y1002537D01*
X693419Y1002537D01*
G37*
%LPD*%
%LPC*%
G36*
X758443Y1002537D02*
X758443Y1002537D01*
X758443Y1011758D01*
X759089Y1011655D01*
X760800Y1011099D01*
X762403Y1010282D01*
X763859Y1009225D01*
X765131Y1007953D01*
X766188Y1006497D01*
X767005Y1004894D01*
X767561Y1003183D01*
X767664Y1002537D01*
X758443Y1002537D01*
G37*
%LPD*%
%LPC*%
G36*
X788669Y1002537D02*
X788669Y1002537D01*
X788669Y1011758D01*
X789315Y1011655D01*
X791026Y1011099D01*
X792629Y1010282D01*
X794085Y1009225D01*
X795357Y1007953D01*
X796414Y1006497D01*
X797231Y1004894D01*
X797787Y1003183D01*
X797890Y1002537D01*
X788669Y1002537D01*
G37*
%LPD*%
%LPC*%
G36*
X859281Y611631D02*
X859281Y611631D01*
X859281Y620852D01*
X859927Y620749D01*
X861638Y620193D01*
X863241Y619376D01*
X864697Y618319D01*
X865969Y617047D01*
X867026Y615591D01*
X867843Y613988D01*
X868399Y612277D01*
X868502Y611631D01*
X859281Y611631D01*
G37*
%LPD*%
%LPC*%
G36*
X853693Y1002537D02*
X853693Y1002537D01*
X853693Y1011758D01*
X854339Y1011655D01*
X856050Y1011099D01*
X857653Y1010282D01*
X859109Y1009225D01*
X860381Y1007953D01*
X861438Y1006497D01*
X862255Y1004894D01*
X862811Y1003183D01*
X862914Y1002537D01*
X853693Y1002537D01*
G37*
%LPD*%
%LPC*%
G36*
X845998Y611631D02*
X845998Y611631D01*
X846101Y612277D01*
X846657Y613988D01*
X847474Y615591D01*
X848531Y617047D01*
X849803Y618319D01*
X851259Y619376D01*
X852862Y620193D01*
X854573Y620749D01*
X855219Y620852D01*
X855219Y611631D01*
X845998Y611631D01*
G37*
%LPD*%
%LPC*%
G36*
X853693Y998475D02*
X853693Y998475D01*
X862914Y998475D01*
X862811Y997829D01*
X862255Y996118D01*
X861438Y994515D01*
X860381Y993059D01*
X859109Y991787D01*
X857653Y990730D01*
X856050Y989913D01*
X854339Y989357D01*
X853693Y989254D01*
X853693Y998475D01*
G37*
%LPD*%
%LPC*%
G36*
X758443Y998475D02*
X758443Y998475D01*
X767664Y998475D01*
X767561Y997829D01*
X767005Y996118D01*
X766188Y994515D01*
X765131Y993059D01*
X763859Y991787D01*
X762403Y990730D01*
X760800Y989913D01*
X759089Y989357D01*
X758443Y989254D01*
X758443Y998475D01*
G37*
%LPD*%
%LPC*%
G36*
X859281Y607569D02*
X859281Y607569D01*
X868502Y607569D01*
X868399Y606923D01*
X867843Y605212D01*
X867026Y603609D01*
X865969Y602153D01*
X864697Y600881D01*
X863241Y599824D01*
X861638Y599007D01*
X859927Y598451D01*
X859281Y598348D01*
X859281Y607569D01*
G37*
%LPD*%
%LPC*%
G36*
X788669Y998475D02*
X788669Y998475D01*
X797890Y998475D01*
X797787Y997829D01*
X797231Y996118D01*
X796414Y994515D01*
X795357Y993059D01*
X794085Y991787D01*
X792629Y990730D01*
X791026Y989913D01*
X789315Y989357D01*
X788669Y989254D01*
X788669Y998475D01*
G37*
%LPD*%
%LPC*%
G36*
X693419Y998475D02*
X693419Y998475D01*
X702640Y998475D01*
X702537Y997829D01*
X701981Y996118D01*
X701164Y994515D01*
X700107Y993059D01*
X698835Y991787D01*
X697379Y990730D01*
X695776Y989913D01*
X694065Y989357D01*
X693419Y989254D01*
X693419Y998475D01*
G37*
%LPD*%
%LPC*%
G36*
X840410Y1002537D02*
X840410Y1002537D01*
X840513Y1003183D01*
X841069Y1004894D01*
X841886Y1006497D01*
X842943Y1007953D01*
X844215Y1009225D01*
X845671Y1010282D01*
X847274Y1011099D01*
X848985Y1011655D01*
X849631Y1011758D01*
X849631Y1002537D01*
X840410Y1002537D01*
G37*
%LPD*%
%LPC*%
G36*
X775386Y1002537D02*
X775386Y1002537D01*
X775489Y1003183D01*
X776045Y1004894D01*
X776862Y1006497D01*
X777919Y1007953D01*
X779191Y1009225D01*
X780647Y1010282D01*
X782250Y1011099D01*
X783961Y1011655D01*
X784607Y1011758D01*
X784607Y1002537D01*
X775386Y1002537D01*
G37*
%LPD*%
%LPC*%
G36*
X745160Y1002537D02*
X745160Y1002537D01*
X745263Y1003183D01*
X745819Y1004894D01*
X746636Y1006497D01*
X747693Y1007953D01*
X748965Y1009225D01*
X750421Y1010282D01*
X752024Y1011099D01*
X753735Y1011655D01*
X754381Y1011758D01*
X754381Y1002537D01*
X745160Y1002537D01*
G37*
%LPD*%
%LPC*%
G36*
X680136Y1002537D02*
X680136Y1002537D01*
X680239Y1003183D01*
X680795Y1004894D01*
X681612Y1006497D01*
X682669Y1007953D01*
X683941Y1009225D01*
X685397Y1010282D01*
X687000Y1011099D01*
X688711Y1011655D01*
X689357Y1011758D01*
X689357Y1002537D01*
X680136Y1002537D01*
G37*
%LPD*%
%LPC*%
G36*
X753735Y989357D02*
X753735Y989357D01*
X752024Y989913D01*
X750421Y990730D01*
X748965Y991787D01*
X747693Y993059D01*
X746636Y994515D01*
X745819Y996118D01*
X745263Y997829D01*
X745160Y998475D01*
X754381Y998475D01*
X754381Y989254D01*
X753735Y989357D01*
G37*
%LPD*%
%LPC*%
G36*
X783961Y989357D02*
X783961Y989357D01*
X782250Y989913D01*
X780647Y990730D01*
X779191Y991787D01*
X777919Y993059D01*
X776862Y994515D01*
X776045Y996118D01*
X775489Y997829D01*
X775386Y998475D01*
X784607Y998475D01*
X784607Y989254D01*
X783961Y989357D01*
G37*
%LPD*%
%LPC*%
G36*
X848985Y989357D02*
X848985Y989357D01*
X847274Y989913D01*
X845671Y990730D01*
X844215Y991787D01*
X842943Y993059D01*
X841886Y994515D01*
X841069Y996118D01*
X840513Y997829D01*
X840410Y998475D01*
X849631Y998475D01*
X849631Y989254D01*
X848985Y989357D01*
G37*
%LPD*%
%LPC*%
G36*
X854573Y598451D02*
X854573Y598451D01*
X852862Y599007D01*
X851259Y599824D01*
X849803Y600881D01*
X848531Y602153D01*
X847474Y603609D01*
X846657Y605212D01*
X846101Y606923D01*
X845998Y607569D01*
X855219Y607569D01*
X855219Y598348D01*
X854573Y598451D01*
G37*
%LPD*%
%LPC*%
G36*
X688711Y989357D02*
X688711Y989357D01*
X687000Y989913D01*
X685397Y990730D01*
X683941Y991787D01*
X682669Y993059D01*
X681612Y994515D01*
X680795Y996118D01*
X680239Y997829D01*
X680136Y998475D01*
X689357Y998475D01*
X689357Y989254D01*
X688711Y989357D01*
G37*
%LPD*%
%LPC*%
G36*
X427481Y65531D02*
X427481Y65531D01*
X427481Y74423D01*
X429974Y74423D01*
X436373Y68024D01*
X436373Y65531D01*
X427481Y65531D01*
G37*
%LPD*%
%LPC*%
G36*
X573531Y65531D02*
X573531Y65531D01*
X573531Y74423D01*
X576024Y74423D01*
X582423Y68024D01*
X582423Y65531D01*
X573531Y65531D01*
G37*
%LPD*%
%LPC*%
G36*
X281431Y65531D02*
X281431Y65531D01*
X281431Y74423D01*
X283924Y74423D01*
X290323Y68024D01*
X290323Y65531D01*
X281431Y65531D01*
G37*
%LPD*%
%LPC*%
G36*
X719581Y65531D02*
X719581Y65531D01*
X719581Y74423D01*
X722074Y74423D01*
X728473Y68024D01*
X728473Y65531D01*
X719581Y65531D01*
G37*
%LPD*%
%LPC*%
G36*
X865631Y65531D02*
X865631Y65531D01*
X865631Y74423D01*
X868124Y74423D01*
X874523Y68024D01*
X874523Y65531D01*
X865631Y65531D01*
G37*
%LPD*%
%LPC*%
G36*
X135381Y65531D02*
X135381Y65531D01*
X135381Y74423D01*
X137874Y74423D01*
X144273Y68024D01*
X144273Y65531D01*
X135381Y65531D01*
G37*
%LPD*%
%LPC*%
G36*
X256031Y211581D02*
X256031Y211581D01*
X256031Y220473D01*
X258524Y220473D01*
X264923Y214074D01*
X264923Y211581D01*
X256031Y211581D01*
G37*
%LPD*%
%LPC*%
G36*
X573531Y211581D02*
X573531Y211581D01*
X573531Y220473D01*
X576024Y220473D01*
X582423Y214074D01*
X582423Y211581D01*
X573531Y211581D01*
G37*
%LPD*%
%LPC*%
G36*
X281431Y211581D02*
X281431Y211581D01*
X281431Y220473D01*
X283924Y220473D01*
X290323Y214074D01*
X290323Y211581D01*
X281431Y211581D01*
G37*
%LPD*%
%LPC*%
G36*
X135381Y211581D02*
X135381Y211581D01*
X135381Y220473D01*
X137874Y220473D01*
X144273Y214074D01*
X144273Y211581D01*
X135381Y211581D01*
G37*
%LPD*%
%LPC*%
G36*
X109981Y211581D02*
X109981Y211581D01*
X109981Y220473D01*
X112474Y220473D01*
X118873Y214074D01*
X118873Y211581D01*
X109981Y211581D01*
G37*
%LPD*%
%LPC*%
G36*
X719581Y211581D02*
X719581Y211581D01*
X719581Y220473D01*
X722074Y220473D01*
X728473Y214074D01*
X728473Y211581D01*
X719581Y211581D01*
G37*
%LPD*%
%LPC*%
G36*
X865631Y211581D02*
X865631Y211581D01*
X865631Y220473D01*
X868124Y220473D01*
X874523Y214074D01*
X874523Y211581D01*
X865631Y211581D01*
G37*
%LPD*%
%LPC*%
G36*
X122427Y65531D02*
X122427Y65531D01*
X122427Y68024D01*
X128826Y74423D01*
X131319Y74423D01*
X131319Y65531D01*
X122427Y65531D01*
G37*
%LPD*%
%LPC*%
G36*
X852677Y65531D02*
X852677Y65531D01*
X852677Y68024D01*
X859076Y74423D01*
X861569Y74423D01*
X861569Y65531D01*
X852677Y65531D01*
G37*
%LPD*%
%LPC*%
G36*
X268477Y65531D02*
X268477Y65531D01*
X268477Y68024D01*
X274876Y74423D01*
X277369Y74423D01*
X277369Y65531D01*
X268477Y65531D01*
G37*
%LPD*%
%LPC*%
G36*
X414527Y65531D02*
X414527Y65531D01*
X414527Y68024D01*
X420926Y74423D01*
X423419Y74423D01*
X423419Y65531D01*
X414527Y65531D01*
G37*
%LPD*%
%LPC*%
G36*
X573531Y198627D02*
X573531Y198627D01*
X573531Y207519D01*
X582423Y207519D01*
X582423Y205026D01*
X576024Y198627D01*
X573531Y198627D01*
G37*
%LPD*%
%LPC*%
G36*
X852677Y211581D02*
X852677Y211581D01*
X852677Y214074D01*
X859076Y220473D01*
X861569Y220473D01*
X861569Y211581D01*
X852677Y211581D01*
G37*
%LPD*%
%LPC*%
G36*
X560577Y65531D02*
X560577Y65531D01*
X560577Y68024D01*
X566976Y74423D01*
X569469Y74423D01*
X569469Y65531D01*
X560577Y65531D01*
G37*
%LPD*%
%LPC*%
G36*
X109981Y198627D02*
X109981Y198627D01*
X109981Y207519D01*
X118873Y207519D01*
X118873Y205026D01*
X112474Y198627D01*
X109981Y198627D01*
G37*
%LPD*%
%LPC*%
G36*
X719581Y198627D02*
X719581Y198627D01*
X719581Y207519D01*
X728473Y207519D01*
X728473Y205026D01*
X722074Y198627D01*
X719581Y198627D01*
G37*
%LPD*%
%LPC*%
G36*
X281431Y198627D02*
X281431Y198627D01*
X281431Y207519D01*
X290323Y207519D01*
X290323Y205026D01*
X283924Y198627D01*
X281431Y198627D01*
G37*
%LPD*%
%LPC*%
G36*
X865631Y198627D02*
X865631Y198627D01*
X865631Y207519D01*
X874523Y207519D01*
X874523Y205026D01*
X868124Y198627D01*
X865631Y198627D01*
G37*
%LPD*%
%LPC*%
G36*
X706627Y211581D02*
X706627Y211581D01*
X706627Y214074D01*
X713026Y220473D01*
X715519Y220473D01*
X715519Y211581D01*
X706627Y211581D01*
G37*
%LPD*%
%LPC*%
G36*
X706627Y65531D02*
X706627Y65531D01*
X706627Y68024D01*
X713026Y74423D01*
X715519Y74423D01*
X715519Y65531D01*
X706627Y65531D01*
G37*
%LPD*%
%LPC*%
G36*
X414527Y211581D02*
X414527Y211581D01*
X414527Y214074D01*
X420926Y220473D01*
X423419Y220473D01*
X423419Y211581D01*
X414527Y211581D01*
G37*
%LPD*%
%LPC*%
G36*
X719581Y52577D02*
X719581Y52577D01*
X719581Y61469D01*
X728473Y61469D01*
X728473Y58976D01*
X722074Y52577D01*
X719581Y52577D01*
G37*
%LPD*%
%LPC*%
G36*
X560577Y211581D02*
X560577Y211581D01*
X560577Y214074D01*
X566976Y220473D01*
X569469Y220473D01*
X569469Y211581D01*
X560577Y211581D01*
G37*
%LPD*%
%LPC*%
G36*
X135381Y198627D02*
X135381Y198627D01*
X135381Y207519D01*
X144273Y207519D01*
X144273Y205026D01*
X137874Y198627D01*
X135381Y198627D01*
G37*
%LPD*%
%LPC*%
G36*
X243077Y211581D02*
X243077Y211581D01*
X243077Y214074D01*
X249476Y220473D01*
X251969Y220473D01*
X251969Y211581D01*
X243077Y211581D01*
G37*
%LPD*%
%LPC*%
G36*
X427481Y52577D02*
X427481Y52577D01*
X427481Y61469D01*
X436373Y61469D01*
X436373Y58976D01*
X429974Y52577D01*
X427481Y52577D01*
G37*
%LPD*%
%LPC*%
G36*
X122427Y211581D02*
X122427Y211581D01*
X122427Y214074D01*
X128826Y220473D01*
X131319Y220473D01*
X131319Y211581D01*
X122427Y211581D01*
G37*
%LPD*%
%LPC*%
G36*
X573531Y52577D02*
X573531Y52577D01*
X573531Y61469D01*
X582423Y61469D01*
X582423Y58976D01*
X576024Y52577D01*
X573531Y52577D01*
G37*
%LPD*%
%LPC*%
G36*
X97027Y211581D02*
X97027Y211581D01*
X97027Y214074D01*
X103426Y220473D01*
X105919Y220473D01*
X105919Y211581D01*
X97027Y211581D01*
G37*
%LPD*%
%LPC*%
G36*
X865631Y52577D02*
X865631Y52577D01*
X865631Y61469D01*
X874523Y61469D01*
X874523Y58976D01*
X868124Y52577D01*
X865631Y52577D01*
G37*
%LPD*%
%LPC*%
G36*
X268477Y211581D02*
X268477Y211581D01*
X268477Y214074D01*
X274876Y220473D01*
X277369Y220473D01*
X277369Y211581D01*
X268477Y211581D01*
G37*
%LPD*%
%LPC*%
G36*
X256031Y198627D02*
X256031Y198627D01*
X256031Y207519D01*
X264923Y207519D01*
X264923Y205026D01*
X258524Y198627D01*
X256031Y198627D01*
G37*
%LPD*%
%LPC*%
G36*
X281431Y52577D02*
X281431Y52577D01*
X281431Y61469D01*
X290323Y61469D01*
X290323Y58976D01*
X283924Y52577D01*
X281431Y52577D01*
G37*
%LPD*%
%LPC*%
G36*
X135381Y52577D02*
X135381Y52577D01*
X135381Y61469D01*
X144273Y61469D01*
X144273Y58976D01*
X137874Y52577D01*
X135381Y52577D01*
G37*
%LPD*%
%LPC*%
G36*
X566976Y198627D02*
X566976Y198627D01*
X560577Y205026D01*
X560577Y207519D01*
X569469Y207519D01*
X569469Y198627D01*
X566976Y198627D01*
G37*
%LPD*%
%LPC*%
G36*
X713026Y198627D02*
X713026Y198627D01*
X706627Y205026D01*
X706627Y207519D01*
X715519Y207519D01*
X715519Y198627D01*
X713026Y198627D01*
G37*
%LPD*%
%LPC*%
G36*
X103426Y198627D02*
X103426Y198627D01*
X97027Y205026D01*
X97027Y207519D01*
X105919Y207519D01*
X105919Y198627D01*
X103426Y198627D01*
G37*
%LPD*%
%LPC*%
G36*
X274876Y198627D02*
X274876Y198627D01*
X268477Y205026D01*
X268477Y207519D01*
X277369Y207519D01*
X277369Y198627D01*
X274876Y198627D01*
G37*
%LPD*%
%LPC*%
G36*
X249476Y198627D02*
X249476Y198627D01*
X243077Y205026D01*
X243077Y207519D01*
X251969Y207519D01*
X251969Y198627D01*
X249476Y198627D01*
G37*
%LPD*%
%LPC*%
G36*
X128826Y198627D02*
X128826Y198627D01*
X122427Y205026D01*
X122427Y207519D01*
X131319Y207519D01*
X131319Y198627D01*
X128826Y198627D01*
G37*
%LPD*%
%LPC*%
G36*
X859076Y52577D02*
X859076Y52577D01*
X852677Y58976D01*
X852677Y61469D01*
X861569Y61469D01*
X861569Y52577D01*
X859076Y52577D01*
G37*
%LPD*%
%LPC*%
G36*
X713026Y52577D02*
X713026Y52577D01*
X706627Y58976D01*
X706627Y61469D01*
X715519Y61469D01*
X715519Y52577D01*
X713026Y52577D01*
G37*
%LPD*%
%LPC*%
G36*
X566976Y52577D02*
X566976Y52577D01*
X560577Y58976D01*
X560577Y61469D01*
X569469Y61469D01*
X569469Y52577D01*
X566976Y52577D01*
G37*
%LPD*%
%LPC*%
G36*
X420926Y52577D02*
X420926Y52577D01*
X414527Y58976D01*
X414527Y61469D01*
X423419Y61469D01*
X423419Y52577D01*
X420926Y52577D01*
G37*
%LPD*%
%LPC*%
G36*
X859076Y198627D02*
X859076Y198627D01*
X852677Y205026D01*
X852677Y207519D01*
X861569Y207519D01*
X861569Y198627D01*
X859076Y198627D01*
G37*
%LPD*%
%LPC*%
G36*
X274876Y52577D02*
X274876Y52577D01*
X268477Y58976D01*
X268477Y61469D01*
X277369Y61469D01*
X277369Y52577D01*
X274876Y52577D01*
G37*
%LPD*%
%LPC*%
G36*
X420926Y198627D02*
X420926Y198627D01*
X414527Y205026D01*
X414527Y207519D01*
X423419Y207519D01*
X423419Y198627D01*
X420926Y198627D01*
G37*
%LPD*%
%LPC*%
G36*
X128826Y52577D02*
X128826Y52577D01*
X122427Y58976D01*
X122427Y61469D01*
X131319Y61469D01*
X131319Y52577D01*
X128826Y52577D01*
G37*
%LPD*%
%LPC*%
G36*
X389380Y979931D02*
X389380Y979931D01*
X389380Y988315D01*
X391663Y988315D01*
X397764Y982214D01*
X397764Y979931D01*
X389380Y979931D01*
G37*
%LPD*%
%LPC*%
G36*
X495743Y979931D02*
X495743Y979931D01*
X495743Y988315D01*
X498026Y988315D01*
X504127Y982214D01*
X504127Y979931D01*
X495743Y979931D01*
G37*
%LPD*%
%LPC*%
G36*
X602106Y979931D02*
X602106Y979931D01*
X602106Y988315D01*
X604389Y988315D01*
X610490Y982214D01*
X610490Y979931D01*
X602106Y979931D01*
G37*
%LPD*%
%LPC*%
G36*
X283018Y979931D02*
X283018Y979931D01*
X283018Y988315D01*
X285301Y988315D01*
X291402Y982214D01*
X291402Y979931D01*
X283018Y979931D01*
G37*
%LPD*%
%LPC*%
G36*
X389380Y967485D02*
X389380Y967485D01*
X389380Y975869D01*
X397764Y975869D01*
X397764Y973586D01*
X391663Y967485D01*
X389380Y967485D01*
G37*
%LPD*%
%LPC*%
G36*
X483297Y979931D02*
X483297Y979931D01*
X483297Y982214D01*
X489398Y988315D01*
X491681Y988315D01*
X491681Y979931D01*
X483297Y979931D01*
G37*
%LPD*%
%LPC*%
G36*
X495743Y967485D02*
X495743Y967485D01*
X495743Y975869D01*
X504127Y975869D01*
X504127Y973586D01*
X498026Y967485D01*
X495743Y967485D01*
G37*
%LPD*%
%LPC*%
G36*
X602106Y967485D02*
X602106Y967485D01*
X602106Y975869D01*
X610490Y975869D01*
X610490Y973586D01*
X604389Y967485D01*
X602106Y967485D01*
G37*
%LPD*%
%LPC*%
G36*
X283018Y967485D02*
X283018Y967485D01*
X283018Y975869D01*
X291402Y975869D01*
X291402Y973586D01*
X285301Y967485D01*
X283018Y967485D01*
G37*
%LPD*%
%LPC*%
G36*
X376934Y979931D02*
X376934Y979931D01*
X376934Y982214D01*
X383035Y988315D01*
X385318Y988315D01*
X385318Y979931D01*
X376934Y979931D01*
G37*
%LPD*%
%LPC*%
G36*
X589660Y979931D02*
X589660Y979931D01*
X589660Y982214D01*
X595761Y988315D01*
X598044Y988315D01*
X598044Y979931D01*
X589660Y979931D01*
G37*
%LPD*%
%LPC*%
G36*
X270572Y979931D02*
X270572Y979931D01*
X270572Y982214D01*
X276673Y988315D01*
X278956Y988315D01*
X278956Y979931D01*
X270572Y979931D01*
G37*
%LPD*%
%LPC*%
G36*
X383035Y967485D02*
X383035Y967485D01*
X376934Y973586D01*
X376934Y975869D01*
X385318Y975869D01*
X385318Y967485D01*
X383035Y967485D01*
G37*
%LPD*%
%LPC*%
G36*
X276673Y967485D02*
X276673Y967485D01*
X270572Y973586D01*
X270572Y975869D01*
X278956Y975869D01*
X278956Y967485D01*
X276673Y967485D01*
G37*
%LPD*%
%LPC*%
G36*
X489398Y967485D02*
X489398Y967485D01*
X483297Y973586D01*
X483297Y975869D01*
X491681Y975869D01*
X491681Y967485D01*
X489398Y967485D01*
G37*
%LPD*%
%LPC*%
G36*
X595761Y967485D02*
X595761Y967485D01*
X589660Y973586D01*
X589660Y975869D01*
X598044Y975869D01*
X598044Y967485D01*
X595761Y967485D01*
G37*
%LPD*%
%LPC*%
G36*
X865123Y677798D02*
X865123Y677798D01*
X865123Y687452D01*
X870967Y687452D01*
X870967Y685924D01*
X868386Y683343D01*
X868351Y683296D01*
X868308Y683256D01*
X868266Y683183D01*
X868215Y683116D01*
X868194Y683061D01*
X868165Y683011D01*
X868144Y682929D01*
X868114Y682850D01*
X868109Y682792D01*
X868095Y682735D01*
X868097Y682651D01*
X868090Y682567D01*
X868102Y682509D01*
X868104Y682451D01*
X868130Y682371D01*
X868146Y682288D01*
X868173Y682236D01*
X868191Y682180D01*
X868231Y682124D01*
X868277Y682036D01*
X868346Y681963D01*
X868386Y681907D01*
X870967Y679326D01*
X870967Y677798D01*
X865123Y677798D01*
G37*
%LPD*%
%LPC*%
G36*
X53231Y954931D02*
X53231Y954931D01*
X53231Y961451D01*
X53762Y961345D01*
X55360Y960683D01*
X56799Y959722D01*
X58022Y958499D01*
X58983Y957060D01*
X59645Y955462D01*
X59751Y954931D01*
X53231Y954931D01*
G37*
%LPD*%
%LPC*%
G36*
X53231Y1004931D02*
X53231Y1004931D01*
X53231Y1011451D01*
X53762Y1011345D01*
X55360Y1010683D01*
X56799Y1009722D01*
X58022Y1008499D01*
X58983Y1007060D01*
X59645Y1005462D01*
X59751Y1004931D01*
X53231Y1004931D01*
G37*
%LPD*%
%LPC*%
G36*
X53231Y950869D02*
X53231Y950869D01*
X59751Y950869D01*
X59645Y950338D01*
X58983Y948740D01*
X58022Y947301D01*
X56799Y946078D01*
X55360Y945117D01*
X53762Y944455D01*
X53231Y944349D01*
X53231Y950869D01*
G37*
%LPD*%
%LPC*%
G36*
X42649Y954931D02*
X42649Y954931D01*
X42755Y955462D01*
X43417Y957060D01*
X44378Y958499D01*
X45601Y959722D01*
X47040Y960683D01*
X48638Y961345D01*
X49169Y961451D01*
X49169Y954931D01*
X42649Y954931D01*
G37*
%LPD*%
%LPC*%
G36*
X53231Y1000869D02*
X53231Y1000869D01*
X59751Y1000869D01*
X59645Y1000338D01*
X58983Y998740D01*
X58022Y997301D01*
X56799Y996078D01*
X55360Y995117D01*
X53762Y994455D01*
X53231Y994349D01*
X53231Y1000869D01*
G37*
%LPD*%
%LPC*%
G36*
X42649Y1004931D02*
X42649Y1004931D01*
X42755Y1005462D01*
X43417Y1007060D01*
X44378Y1008499D01*
X45601Y1009722D01*
X47040Y1010683D01*
X48638Y1011345D01*
X49169Y1011451D01*
X49169Y1004931D01*
X42649Y1004931D01*
G37*
%LPD*%
%LPC*%
G36*
X48638Y944455D02*
X48638Y944455D01*
X47040Y945117D01*
X45601Y946078D01*
X44378Y947301D01*
X43417Y948740D01*
X42755Y950338D01*
X42649Y950869D01*
X49169Y950869D01*
X49169Y944349D01*
X48638Y944455D01*
G37*
%LPD*%
%LPC*%
G36*
X48638Y994455D02*
X48638Y994455D01*
X47040Y995117D01*
X45601Y996078D01*
X44378Y997301D01*
X43417Y998740D01*
X42755Y1000338D01*
X42649Y1000869D01*
X49169Y1000869D01*
X49169Y994349D01*
X48638Y994455D01*
G37*
%LPD*%
%LPC*%
G36*
X865123Y643508D02*
X865123Y643508D01*
X865123Y649352D01*
X870967Y649352D01*
X870967Y647824D01*
X866651Y643508D01*
X865123Y643508D01*
G37*
%LPD*%
%LPC*%
G36*
X27949Y979649D02*
X27949Y979649D01*
X27949Y985465D01*
X29333Y985465D01*
X33765Y981033D01*
X33765Y979649D01*
X27949Y979649D01*
G37*
%LPD*%
%LPC*%
G36*
X18635Y979649D02*
X18635Y979649D01*
X18635Y981033D01*
X23067Y985465D01*
X24451Y985465D01*
X24451Y979649D01*
X18635Y979649D01*
G37*
%LPD*%
%LPC*%
G36*
X27949Y970335D02*
X27949Y970335D01*
X27949Y976151D01*
X33765Y976151D01*
X33765Y974767D01*
X29333Y970335D01*
X27949Y970335D01*
G37*
%LPD*%
%LPC*%
G36*
X23067Y970335D02*
X23067Y970335D01*
X18635Y974767D01*
X18635Y976151D01*
X24451Y976151D01*
X24451Y970335D01*
X23067Y970335D01*
G37*
%LPD*%
%LPC*%
G36*
X50799Y847724D02*
X50799Y847724D01*
X50799Y847726D01*
X50801Y847726D01*
X50801Y847724D01*
X50799Y847724D01*
G37*
%LPD*%
%LPC*%
G36*
X76199Y822324D02*
X76199Y822324D01*
X76199Y822326D01*
X76201Y822326D01*
X76201Y822324D01*
X76199Y822324D01*
G37*
%LPD*%
%LPC*%
G36*
X50799Y822324D02*
X50799Y822324D01*
X50799Y822326D01*
X50801Y822326D01*
X50801Y822324D01*
X50799Y822324D01*
G37*
%LPD*%
%LPC*%
G36*
X857249Y609599D02*
X857249Y609599D01*
X857249Y609601D01*
X857251Y609601D01*
X857251Y609599D01*
X857249Y609599D01*
G37*
%LPD*%
%LPC*%
G36*
X416324Y698349D02*
X416324Y698349D01*
X416324Y698351D01*
X416326Y698351D01*
X416326Y698349D01*
X416324Y698349D01*
G37*
%LPD*%
%LPC*%
G36*
X190099Y698349D02*
X190099Y698349D01*
X190099Y698351D01*
X190101Y698351D01*
X190101Y698349D01*
X190099Y698349D01*
G37*
%LPD*%
%LPC*%
G36*
X863599Y209549D02*
X863599Y209549D01*
X863599Y209551D01*
X863601Y209551D01*
X863601Y209549D01*
X863599Y209549D01*
G37*
%LPD*%
%LPC*%
G36*
X717549Y209549D02*
X717549Y209549D01*
X717549Y209551D01*
X717551Y209551D01*
X717551Y209549D01*
X717549Y209549D01*
G37*
%LPD*%
%LPC*%
G36*
X50799Y873124D02*
X50799Y873124D01*
X50799Y873126D01*
X50801Y873126D01*
X50801Y873124D01*
X50799Y873124D01*
G37*
%LPD*%
%LPC*%
G36*
X51199Y952899D02*
X51199Y952899D01*
X51199Y952901D01*
X51201Y952901D01*
X51201Y952899D01*
X51199Y952899D01*
G37*
%LPD*%
%LPC*%
G36*
X387348Y977899D02*
X387348Y977899D01*
X387348Y977901D01*
X387350Y977901D01*
X387350Y977899D01*
X387348Y977899D01*
G37*
%LPD*%
%LPC*%
G36*
X692549Y698349D02*
X692549Y698349D01*
X692549Y698351D01*
X692551Y698351D01*
X692551Y698349D01*
X692549Y698349D01*
G37*
%LPD*%
%LPC*%
G36*
X691387Y1000505D02*
X691387Y1000505D01*
X691387Y1000507D01*
X691389Y1000507D01*
X691389Y1000505D01*
X691387Y1000505D01*
G37*
%LPD*%
%LPC*%
G36*
X756411Y1000505D02*
X756411Y1000505D01*
X756411Y1000507D01*
X756413Y1000507D01*
X756413Y1000505D01*
X756411Y1000505D01*
G37*
%LPD*%
%LPC*%
G36*
X786637Y1000505D02*
X786637Y1000505D01*
X786637Y1000507D01*
X786639Y1000507D01*
X786639Y1000505D01*
X786637Y1000505D01*
G37*
%LPD*%
%LPC*%
G36*
X600074Y977899D02*
X600074Y977899D01*
X600074Y977901D01*
X600076Y977901D01*
X600076Y977899D01*
X600074Y977899D01*
G37*
%LPD*%
%LPC*%
G36*
X851661Y1000505D02*
X851661Y1000505D01*
X851661Y1000507D01*
X851663Y1000507D01*
X851663Y1000505D01*
X851661Y1000505D01*
G37*
%LPD*%
%LPC*%
G36*
X493711Y977899D02*
X493711Y977899D01*
X493711Y977901D01*
X493713Y977901D01*
X493713Y977899D01*
X493711Y977899D01*
G37*
%LPD*%
%LPC*%
G36*
X863599Y63499D02*
X863599Y63499D01*
X863599Y63501D01*
X863601Y63501D01*
X863601Y63499D01*
X863599Y63499D01*
G37*
%LPD*%
%LPC*%
G36*
X76199Y873124D02*
X76199Y873124D01*
X76199Y873126D01*
X76201Y873126D01*
X76201Y873124D01*
X76199Y873124D01*
G37*
%LPD*%
%LPC*%
G36*
X571499Y63499D02*
X571499Y63499D01*
X571499Y63501D01*
X571501Y63501D01*
X571501Y63499D01*
X571499Y63499D01*
G37*
%LPD*%
%LPC*%
G36*
X425449Y63499D02*
X425449Y63499D01*
X425449Y63501D01*
X425451Y63501D01*
X425451Y63499D01*
X425449Y63499D01*
G37*
%LPD*%
%LPC*%
G36*
X279399Y63499D02*
X279399Y63499D01*
X279399Y63501D01*
X279401Y63501D01*
X279401Y63499D01*
X279399Y63499D01*
G37*
%LPD*%
%LPC*%
G36*
X133349Y63499D02*
X133349Y63499D01*
X133349Y63501D01*
X133351Y63501D01*
X133351Y63499D01*
X133349Y63499D01*
G37*
%LPD*%
%LPC*%
G36*
X749699Y418949D02*
X749699Y418949D01*
X749699Y418951D01*
X749701Y418951D01*
X749701Y418949D01*
X749699Y418949D01*
G37*
%LPD*%
%LPC*%
G36*
X355199Y418949D02*
X355199Y418949D01*
X355199Y418951D01*
X355201Y418951D01*
X355201Y418949D01*
X355199Y418949D01*
G37*
%LPD*%
%LPC*%
G36*
X51199Y1002899D02*
X51199Y1002899D01*
X51199Y1002901D01*
X51201Y1002901D01*
X51201Y1002899D01*
X51199Y1002899D01*
G37*
%LPD*%
%LPC*%
G36*
X717549Y63499D02*
X717549Y63499D01*
X717549Y63501D01*
X717551Y63501D01*
X717551Y63499D01*
X717549Y63499D01*
G37*
%LPD*%
%LPC*%
G36*
X527449Y418949D02*
X527449Y418949D01*
X527449Y418951D01*
X527451Y418951D01*
X527451Y418949D01*
X527449Y418949D01*
G37*
%LPD*%
%LPC*%
G36*
X280986Y977899D02*
X280986Y977899D01*
X280986Y977901D01*
X280988Y977901D01*
X280988Y977899D01*
X280986Y977899D01*
G37*
%LPD*%
%LPC*%
G36*
X76199Y847724D02*
X76199Y847724D01*
X76199Y847726D01*
X76201Y847726D01*
X76201Y847724D01*
X76199Y847724D01*
G37*
%LPD*%
%LPC*%
G36*
X279399Y209549D02*
X279399Y209549D01*
X279399Y209551D01*
X279401Y209551D01*
X279401Y209549D01*
X279399Y209549D01*
G37*
%LPD*%
%LPC*%
G36*
X107949Y209549D02*
X107949Y209549D01*
X107949Y209551D01*
X107951Y209551D01*
X107951Y209549D01*
X107949Y209549D01*
G37*
%LPD*%
%LPC*%
G36*
X253999Y209549D02*
X253999Y209549D01*
X253999Y209551D01*
X254001Y209551D01*
X254001Y209549D01*
X253999Y209549D01*
G37*
%LPD*%
%LPC*%
G36*
X571499Y209549D02*
X571499Y209549D01*
X571499Y209551D01*
X571501Y209551D01*
X571501Y209549D01*
X571499Y209549D01*
G37*
%LPD*%
%LPC*%
G36*
X133349Y209549D02*
X133349Y209549D01*
X133349Y209551D01*
X133351Y209551D01*
X133351Y209549D01*
X133349Y209549D01*
G37*
%LPD*%
D10*
X863600Y701675D03*
X850900Y701675D03*
X863600Y688975D03*
X850900Y688975D03*
X863600Y676275D03*
X850900Y676275D03*
X863600Y663575D03*
X850900Y663575D03*
X863600Y650875D03*
X850900Y650875D03*
D11*
X857250Y609600D03*
X857250Y584200D03*
X857250Y558800D03*
X857250Y533400D03*
X857250Y508000D03*
X857250Y482600D03*
D12*
X50800Y796925D03*
X76200Y796925D03*
X50800Y822325D03*
X76200Y822325D03*
X50800Y847725D03*
X76200Y847725D03*
X50800Y873125D03*
X76200Y873125D03*
X50800Y898525D03*
X76200Y898525D03*
D13*
X355200Y418950D03*
X330200Y418950D03*
X305200Y418950D03*
D14*
X377200Y488950D03*
X283200Y488950D03*
D13*
X190100Y698350D03*
X165100Y698350D03*
X140100Y698350D03*
D14*
X212100Y768350D03*
X118100Y768350D03*
D15*
X76200Y1002900D03*
X51200Y1002900D03*
X51200Y952900D03*
X76200Y952900D03*
X101200Y952900D03*
X101200Y1002900D03*
D16*
X26200Y977900D03*
X126200Y977900D03*
D13*
X466325Y698350D03*
X441325Y698350D03*
X416325Y698350D03*
D14*
X488325Y768350D03*
X394325Y768350D03*
D13*
X577450Y418950D03*
X552450Y418950D03*
X527450Y418950D03*
D14*
X599450Y488950D03*
X505450Y488950D03*
D13*
X742550Y698350D03*
X717550Y698350D03*
X692550Y698350D03*
D14*
X764550Y768350D03*
X670550Y768350D03*
D13*
X799700Y418950D03*
X774700Y418950D03*
X749700Y418950D03*
D14*
X821700Y488950D03*
X727700Y488950D03*
D11*
X691388Y1000506D03*
X756412Y1000506D03*
X691388Y955294D03*
X756412Y955294D03*
X786638Y1000506D03*
X851662Y1000506D03*
X786638Y955294D03*
X851662Y955294D03*
D17*
X600075Y977900D03*
X600075Y952500D03*
X600075Y1003300D03*
X493712Y977900D03*
X493712Y952500D03*
X493712Y1003300D03*
X387349Y977900D03*
X387349Y952500D03*
X387349Y1003300D03*
X280987Y977900D03*
X280987Y952500D03*
X280987Y1003300D03*
D18*
X97950Y378950D03*
X77950Y378950D03*
X117950Y378950D03*
X137950Y378950D03*
X57950Y378950D03*
X157950Y378950D03*
D19*
X49950Y488950D03*
X165950Y488950D03*
D20*
X254000Y63500D03*
X177800Y63500D03*
X279400Y63500D03*
X838200Y63500D03*
X762000Y63500D03*
X863600Y63500D03*
X107950Y63500D03*
X31750Y63500D03*
X133350Y63500D03*
X692150Y63500D03*
X615950Y63500D03*
X717550Y63500D03*
X400050Y209550D03*
X323850Y209550D03*
X425450Y209550D03*
X692150Y209550D03*
X615950Y209550D03*
X717550Y209550D03*
X838200Y209550D03*
X762000Y209550D03*
X863600Y209550D03*
X400050Y63500D03*
X323850Y63500D03*
X425450Y63500D03*
X546100Y209550D03*
X469900Y209550D03*
X571500Y209550D03*
X546100Y63500D03*
X469900Y63500D03*
X571500Y63500D03*
X107950Y209550D03*
X31750Y209550D03*
X133350Y209550D03*
X254000Y209550D03*
X177800Y209550D03*
X279400Y209550D03*
D21*
X107950Y304800D03*
X863600Y266700D03*
X571500Y298450D03*
X411162Y923925D03*
X330200Y708025D03*
X279400Y679450D03*
X279400Y625475D03*
X323850Y561975D03*
X479425Y644525D03*
X733425Y342900D03*
X520700Y542925D03*
X684212Y625475D03*
X584200Y746125D03*
X155575Y835025D03*
X457200Y260350D03*
X469900Y365125D03*
X209550Y647700D03*
X469900Y488950D03*
X615950Y508000D03*
X708025Y523875D03*
X676275Y561975D03*
X714375Y463550D03*
X723900Y412750D03*
X492125Y720725D03*
X565150Y787400D03*
X12700Y1047750D03*
X88900Y1047750D03*
X165100Y1047750D03*
X241300Y1047750D03*
X317500Y1047750D03*
X393700Y1047750D03*
X469900Y1047750D03*
X546100Y1047750D03*
X622300Y1047750D03*
X698500Y1047750D03*
X774700Y1047750D03*
X850900Y1047750D03*
X876300Y1028700D03*
X876300Y952500D03*
X876300Y419100D03*
X876300Y38100D03*
X876300Y114300D03*
X850900Y12700D03*
X774700Y12700D03*
X698500Y12700D03*
X622300Y12700D03*
X546100Y12700D03*
X469900Y12700D03*
X317500Y12700D03*
X165100Y12700D03*
X12700Y12700D03*
X12700Y88900D03*
X12700Y165100D03*
X876300Y800100D03*
X876300Y730250D03*
X406400Y581025D03*
X406400Y606425D03*
X276225Y574675D03*
X650875Y425450D03*
X676275Y384175D03*
X730250Y590550D03*
X762000Y654050D03*
X793750Y590550D03*
X679450Y866775D03*
X698500Y850900D03*
X587375Y692150D03*
X454025Y600075D03*
X454025Y644525D03*
X530225Y641350D03*
X422275Y428625D03*
X473075Y428625D03*
X336550Y920750D03*
X368300Y809625D03*
X409575Y876300D03*
X76200Y685800D03*
X88900Y565150D03*
X563562Y863600D03*
X225425Y835025D03*
X593725Y365125D03*
D22*
X688975Y831850D02*
X746125Y831850D01*
D21*
X688975Y831850D03*
X746125Y831850D03*
D22*
X663575Y679450D02*
X638175Y654050D01*
X584200Y647700D02*
X577850Y654050D01*
X584200Y647700D02*
X612775Y647700D01*
X619125Y654050D01*
X638175Y654050D01*
D21*
X663575Y679450D03*
X577850Y654050D03*
D22*
X790575Y654050D02*
X790575Y685800D01*
D21*
X790575Y654050D03*
X790575Y685800D03*
D22*
X809625Y685800D02*
X809625Y654050D01*
D21*
X809625Y654050D03*
X809625Y685800D03*
D22*
X609600Y536575D02*
X600075Y546100D01*
X600075Y561975D01*
D21*
X609600Y536575D03*
X600075Y561975D03*
D22*
X663575Y412750D02*
X704850Y412750D01*
D23*
X336550Y596900D02*
X196850Y596900D01*
X336550Y596900D02*
X428625Y596900D01*
X466325Y634600D01*
X466325Y698350D01*
D22*
X831850Y708025D02*
X831850Y552450D01*
X831850Y708025D02*
X828675Y711200D01*
X739775Y447675D02*
X704850Y412750D01*
X739775Y447675D02*
X768350Y447675D01*
D21*
X663575Y412750D03*
X196850Y596900D03*
X336550Y596900D03*
X428625Y596900D03*
X831850Y552450D03*
X828675Y711200D03*
X768350Y447675D03*
D22*
X660400Y558800D02*
X660400Y561975D01*
X590550Y631825D01*
D21*
X590550Y631825D03*
X660400Y558800D03*
D22*
X647700Y565150D02*
X596900Y615950D01*
X593725Y615950D01*
X647700Y565150D02*
X647700Y552450D01*
D21*
X593725Y615950D03*
X647700Y552450D03*
D22*
X304800Y260350D02*
X304800Y196850D01*
X317500Y184150D01*
X330200Y184150D01*
D21*
X304800Y260350D03*
X330200Y184150D03*
D23*
X120650Y339725D02*
X28575Y339725D01*
X120650Y339725D02*
X133350Y352425D01*
X95250Y508000D02*
X76200Y508000D01*
X454025Y228600D02*
X454025Y152400D01*
X454025Y228600D02*
X488950Y263525D01*
X488950Y361950D01*
X488950Y390525D01*
D21*
X28575Y339725D03*
X133350Y352425D03*
X76200Y508000D03*
X95250Y508000D03*
X454025Y152400D03*
X488950Y361950D03*
X488950Y390525D03*
D22*
X276225Y736600D02*
X276225Y777875D01*
X273050Y393700D02*
X219075Y393700D01*
X361950Y393700D02*
X393700Y393700D01*
X140100Y698350D02*
X139700Y698750D01*
X139700Y752475D01*
D21*
X276225Y736600D03*
X276225Y777875D03*
X273050Y393700D03*
X393700Y393700D03*
X361950Y393700D03*
X139700Y752475D03*
X219075Y393700D03*
D23*
X85725Y279400D02*
X41275Y279400D01*
X85725Y279400D02*
X98425Y266700D01*
X441325Y257175D02*
X441325Y161925D01*
D21*
X98425Y266700D03*
X41275Y279400D03*
X441325Y161925D03*
X441325Y257175D03*
D23*
X88900Y796925D02*
X76200Y796925D01*
X88900Y796925D02*
X98425Y796925D01*
X111125Y809625D01*
D21*
X111125Y809625D03*
D22*
X139700Y180975D02*
X165100Y180975D01*
X177800Y193675D01*
X177800Y209550D01*
D21*
X139700Y180975D03*
D22*
X565150Y441325D02*
X568325Y438150D01*
X587375Y438150D01*
X619125Y406400D01*
X635000Y406400D01*
X644525Y396875D01*
X758825Y396875D01*
X774700Y412750D01*
X774700Y418950D01*
D21*
X565150Y441325D03*
D22*
X777875Y936625D02*
X759206Y955294D01*
X756412Y955294D01*
D21*
X777875Y936625D03*
D22*
X628650Y819150D02*
X625475Y822325D01*
X625475Y844550D01*
X628650Y819150D02*
X628650Y692150D01*
X590550Y673100D02*
X565150Y673100D01*
X542925Y650875D01*
X542925Y619125D01*
X590550Y673100D02*
X596900Y666750D01*
X603250Y666750D01*
X628650Y692150D01*
D21*
X625475Y844550D03*
X542925Y619125D03*
D22*
X615950Y822325D02*
X615950Y854075D01*
X615950Y822325D02*
X622300Y815975D01*
X622300Y695325D01*
X603250Y676275D01*
X600075Y676275D01*
D21*
X615950Y854075D03*
X600075Y676275D03*
D22*
X174625Y323850D02*
X114300Y323850D01*
D21*
X114300Y323850D03*
X174625Y323850D03*
D22*
X82550Y355600D02*
X66675Y355600D01*
X57950Y364325D01*
X57950Y378950D01*
X774700Y92075D02*
X796925Y92075D01*
D21*
X82550Y355600D03*
X796925Y92075D03*
X774700Y92075D03*
D22*
X717550Y654050D02*
X717550Y698350D01*
D21*
X717550Y654050D03*
D22*
X512762Y885825D02*
X487362Y885825D01*
D23*
X603250Y730250D02*
X488950Y615950D01*
X482600Y615950D01*
X479425Y619125D01*
X650875Y711200D02*
X650875Y819150D01*
X650875Y711200D02*
X695325Y666750D01*
X695325Y635000D02*
X695325Y536575D01*
X695325Y635000D02*
X695325Y666750D01*
X695325Y536575D02*
X666750Y508000D01*
D22*
X647700Y508000D02*
X641350Y501650D01*
X647700Y508000D02*
X666750Y508000D01*
X622300Y625475D02*
X631825Y635000D01*
X695325Y635000D01*
X701675Y936625D02*
X641350Y936625D01*
X876300Y644525D02*
X863600Y631825D01*
X876300Y644525D02*
X876300Y692150D01*
X866775Y701675D01*
X863600Y701675D01*
D21*
X512762Y885825D03*
X487362Y885825D03*
X603250Y730250D03*
X479425Y619125D03*
X650875Y819150D03*
X641350Y501650D03*
X695325Y635000D03*
X622300Y625475D03*
X641350Y936625D03*
X701675Y936625D03*
X863600Y631825D03*
X666750Y508000D03*
D22*
X635000Y688975D02*
X635000Y835025D01*
X635000Y688975D02*
X606425Y660400D01*
X593725Y660400D01*
X587375Y666750D01*
X568325Y666750D01*
X552450Y650875D01*
X552450Y631825D01*
D21*
X635000Y835025D03*
X552450Y631825D03*
M02*
