G04 EAGLE Gerber RS-274X export*
G75*
%MOMM*%
%FSLAX34Y34*%
%LPD*%
%IN*%
%IPPOS*%
%AMOC8*
5,1,8,0,0,1.08239X$1,22.5*%
G01*
%ADD10C,0.254000*%


D10*
X0Y0D02*
X889000Y0D01*
X889000Y1060450D01*
X0Y1060450D01*
X0Y0D01*
X222682Y74500D02*
X223544Y74432D01*
X224398Y74297D01*
X225238Y74095D01*
X226060Y73828D01*
X226859Y73497D01*
X227629Y73105D01*
X228366Y72653D01*
X229065Y72145D01*
X229723Y71584D01*
X230334Y70973D01*
X230895Y70315D01*
X231403Y69616D01*
X231855Y68879D01*
X232247Y68109D01*
X232578Y67310D01*
X232845Y66488D01*
X233047Y65648D01*
X233182Y64794D01*
X233250Y63932D01*
X233250Y63068D01*
X233182Y62206D01*
X233047Y61352D01*
X232845Y60512D01*
X232578Y59690D01*
X232247Y58891D01*
X231855Y58121D01*
X231403Y57384D01*
X230895Y56685D01*
X230334Y56027D01*
X229723Y55416D01*
X229065Y54855D01*
X228366Y54347D01*
X227629Y53895D01*
X226859Y53503D01*
X226060Y53172D01*
X225238Y52905D01*
X224398Y52703D01*
X223544Y52568D01*
X222682Y52500D01*
X221818Y52500D01*
X220956Y52568D01*
X220102Y52703D01*
X219262Y52905D01*
X218440Y53172D01*
X217641Y53503D01*
X216871Y53895D01*
X216134Y54347D01*
X215435Y54855D01*
X214777Y55416D01*
X214166Y56027D01*
X213605Y56685D01*
X213097Y57384D01*
X212645Y58121D01*
X212253Y58891D01*
X211922Y59690D01*
X211655Y60512D01*
X211453Y61352D01*
X211318Y62206D01*
X211250Y63068D01*
X211250Y63932D01*
X211318Y64794D01*
X211453Y65648D01*
X211655Y66488D01*
X211922Y67310D01*
X212253Y68109D01*
X212645Y68879D01*
X213097Y69616D01*
X213605Y70315D01*
X214166Y70973D01*
X214777Y71584D01*
X215435Y72145D01*
X216134Y72653D01*
X216871Y73105D01*
X217641Y73497D01*
X218440Y73828D01*
X219262Y74095D01*
X220102Y74297D01*
X220956Y74432D01*
X221818Y74500D01*
X222682Y74500D01*
X806882Y74500D02*
X807744Y74432D01*
X808598Y74297D01*
X809438Y74095D01*
X810260Y73828D01*
X811059Y73497D01*
X811829Y73105D01*
X812566Y72653D01*
X813265Y72145D01*
X813923Y71584D01*
X814534Y70973D01*
X815095Y70315D01*
X815603Y69616D01*
X816055Y68879D01*
X816447Y68109D01*
X816778Y67310D01*
X817045Y66488D01*
X817247Y65648D01*
X817382Y64794D01*
X817450Y63932D01*
X817450Y63068D01*
X817382Y62206D01*
X817247Y61352D01*
X817045Y60512D01*
X816778Y59690D01*
X816447Y58891D01*
X816055Y58121D01*
X815603Y57384D01*
X815095Y56685D01*
X814534Y56027D01*
X813923Y55416D01*
X813265Y54855D01*
X812566Y54347D01*
X811829Y53895D01*
X811059Y53503D01*
X810260Y53172D01*
X809438Y52905D01*
X808598Y52703D01*
X807744Y52568D01*
X806882Y52500D01*
X806018Y52500D01*
X805156Y52568D01*
X804302Y52703D01*
X803462Y52905D01*
X802640Y53172D01*
X801841Y53503D01*
X801071Y53895D01*
X800334Y54347D01*
X799635Y54855D01*
X798977Y55416D01*
X798366Y56027D01*
X797805Y56685D01*
X797297Y57384D01*
X796845Y58121D01*
X796453Y58891D01*
X796122Y59690D01*
X795855Y60512D01*
X795653Y61352D01*
X795518Y62206D01*
X795450Y63068D01*
X795450Y63932D01*
X795518Y64794D01*
X795653Y65648D01*
X795855Y66488D01*
X796122Y67310D01*
X796453Y68109D01*
X796845Y68879D01*
X797297Y69616D01*
X797805Y70315D01*
X798366Y70973D01*
X798977Y71584D01*
X799635Y72145D01*
X800334Y72653D01*
X801071Y73105D01*
X801841Y73497D01*
X802640Y73828D01*
X803462Y74095D01*
X804302Y74297D01*
X805156Y74432D01*
X806018Y74500D01*
X806882Y74500D01*
X76632Y74500D02*
X77494Y74432D01*
X78348Y74297D01*
X79188Y74095D01*
X80010Y73828D01*
X80809Y73497D01*
X81579Y73105D01*
X82316Y72653D01*
X83015Y72145D01*
X83673Y71584D01*
X84284Y70973D01*
X84845Y70315D01*
X85353Y69616D01*
X85805Y68879D01*
X86197Y68109D01*
X86528Y67310D01*
X86795Y66488D01*
X86997Y65648D01*
X87132Y64794D01*
X87200Y63932D01*
X87200Y63068D01*
X87132Y62206D01*
X86997Y61352D01*
X86795Y60512D01*
X86528Y59690D01*
X86197Y58891D01*
X85805Y58121D01*
X85353Y57384D01*
X84845Y56685D01*
X84284Y56027D01*
X83673Y55416D01*
X83015Y54855D01*
X82316Y54347D01*
X81579Y53895D01*
X80809Y53503D01*
X80010Y53172D01*
X79188Y52905D01*
X78348Y52703D01*
X77494Y52568D01*
X76632Y52500D01*
X75768Y52500D01*
X74906Y52568D01*
X74052Y52703D01*
X73212Y52905D01*
X72390Y53172D01*
X71591Y53503D01*
X70821Y53895D01*
X70084Y54347D01*
X69385Y54855D01*
X68727Y55416D01*
X68116Y56027D01*
X67555Y56685D01*
X67047Y57384D01*
X66595Y58121D01*
X66203Y58891D01*
X65872Y59690D01*
X65605Y60512D01*
X65403Y61352D01*
X65268Y62206D01*
X65200Y63068D01*
X65200Y63932D01*
X65268Y64794D01*
X65403Y65648D01*
X65605Y66488D01*
X65872Y67310D01*
X66203Y68109D01*
X66595Y68879D01*
X67047Y69616D01*
X67555Y70315D01*
X68116Y70973D01*
X68727Y71584D01*
X69385Y72145D01*
X70084Y72653D01*
X70821Y73105D01*
X71591Y73497D01*
X72390Y73828D01*
X73212Y74095D01*
X74052Y74297D01*
X74906Y74432D01*
X75768Y74500D01*
X76632Y74500D01*
X660832Y74500D02*
X661694Y74432D01*
X662548Y74297D01*
X663388Y74095D01*
X664210Y73828D01*
X665009Y73497D01*
X665779Y73105D01*
X666516Y72653D01*
X667215Y72145D01*
X667873Y71584D01*
X668484Y70973D01*
X669045Y70315D01*
X669553Y69616D01*
X670005Y68879D01*
X670397Y68109D01*
X670728Y67310D01*
X670995Y66488D01*
X671197Y65648D01*
X671332Y64794D01*
X671400Y63932D01*
X671400Y63068D01*
X671332Y62206D01*
X671197Y61352D01*
X670995Y60512D01*
X670728Y59690D01*
X670397Y58891D01*
X670005Y58121D01*
X669553Y57384D01*
X669045Y56685D01*
X668484Y56027D01*
X667873Y55416D01*
X667215Y54855D01*
X666516Y54347D01*
X665779Y53895D01*
X665009Y53503D01*
X664210Y53172D01*
X663388Y52905D01*
X662548Y52703D01*
X661694Y52568D01*
X660832Y52500D01*
X659968Y52500D01*
X659106Y52568D01*
X658252Y52703D01*
X657412Y52905D01*
X656590Y53172D01*
X655791Y53503D01*
X655021Y53895D01*
X654284Y54347D01*
X653585Y54855D01*
X652927Y55416D01*
X652316Y56027D01*
X651755Y56685D01*
X651247Y57384D01*
X650795Y58121D01*
X650403Y58891D01*
X650072Y59690D01*
X649805Y60512D01*
X649603Y61352D01*
X649468Y62206D01*
X649400Y63068D01*
X649400Y63932D01*
X649468Y64794D01*
X649603Y65648D01*
X649805Y66488D01*
X650072Y67310D01*
X650403Y68109D01*
X650795Y68879D01*
X651247Y69616D01*
X651755Y70315D01*
X652316Y70973D01*
X652927Y71584D01*
X653585Y72145D01*
X654284Y72653D01*
X655021Y73105D01*
X655791Y73497D01*
X656590Y73828D01*
X657412Y74095D01*
X658252Y74297D01*
X659106Y74432D01*
X659968Y74500D01*
X660832Y74500D01*
X368732Y220550D02*
X369594Y220482D01*
X370448Y220347D01*
X371288Y220145D01*
X372110Y219878D01*
X372909Y219547D01*
X373679Y219155D01*
X374416Y218703D01*
X375115Y218195D01*
X375773Y217634D01*
X376384Y217023D01*
X376945Y216365D01*
X377453Y215666D01*
X377905Y214929D01*
X378297Y214159D01*
X378628Y213360D01*
X378895Y212538D01*
X379097Y211698D01*
X379232Y210844D01*
X379300Y209982D01*
X379300Y209118D01*
X379232Y208256D01*
X379097Y207402D01*
X378895Y206562D01*
X378628Y205740D01*
X378297Y204941D01*
X377905Y204171D01*
X377453Y203434D01*
X376945Y202735D01*
X376384Y202077D01*
X375773Y201466D01*
X375115Y200905D01*
X374416Y200397D01*
X373679Y199945D01*
X372909Y199553D01*
X372110Y199222D01*
X371288Y198955D01*
X370448Y198753D01*
X369594Y198618D01*
X368732Y198550D01*
X367868Y198550D01*
X367006Y198618D01*
X366152Y198753D01*
X365312Y198955D01*
X364490Y199222D01*
X363691Y199553D01*
X362921Y199945D01*
X362184Y200397D01*
X361485Y200905D01*
X360827Y201466D01*
X360216Y202077D01*
X359655Y202735D01*
X359147Y203434D01*
X358695Y204171D01*
X358303Y204941D01*
X357972Y205740D01*
X357705Y206562D01*
X357503Y207402D01*
X357368Y208256D01*
X357300Y209118D01*
X357300Y209982D01*
X357368Y210844D01*
X357503Y211698D01*
X357705Y212538D01*
X357972Y213360D01*
X358303Y214159D01*
X358695Y214929D01*
X359147Y215666D01*
X359655Y216365D01*
X360216Y217023D01*
X360827Y217634D01*
X361485Y218195D01*
X362184Y218703D01*
X362921Y219155D01*
X363691Y219547D01*
X364490Y219878D01*
X365312Y220145D01*
X366152Y220347D01*
X367006Y220482D01*
X367868Y220550D01*
X368732Y220550D01*
X660832Y220550D02*
X661694Y220482D01*
X662548Y220347D01*
X663388Y220145D01*
X664210Y219878D01*
X665009Y219547D01*
X665779Y219155D01*
X666516Y218703D01*
X667215Y218195D01*
X667873Y217634D01*
X668484Y217023D01*
X669045Y216365D01*
X669553Y215666D01*
X670005Y214929D01*
X670397Y214159D01*
X670728Y213360D01*
X670995Y212538D01*
X671197Y211698D01*
X671332Y210844D01*
X671400Y209982D01*
X671400Y209118D01*
X671332Y208256D01*
X671197Y207402D01*
X670995Y206562D01*
X670728Y205740D01*
X670397Y204941D01*
X670005Y204171D01*
X669553Y203434D01*
X669045Y202735D01*
X668484Y202077D01*
X667873Y201466D01*
X667215Y200905D01*
X666516Y200397D01*
X665779Y199945D01*
X665009Y199553D01*
X664210Y199222D01*
X663388Y198955D01*
X662548Y198753D01*
X661694Y198618D01*
X660832Y198550D01*
X659968Y198550D01*
X659106Y198618D01*
X658252Y198753D01*
X657412Y198955D01*
X656590Y199222D01*
X655791Y199553D01*
X655021Y199945D01*
X654284Y200397D01*
X653585Y200905D01*
X652927Y201466D01*
X652316Y202077D01*
X651755Y202735D01*
X651247Y203434D01*
X650795Y204171D01*
X650403Y204941D01*
X650072Y205740D01*
X649805Y206562D01*
X649603Y207402D01*
X649468Y208256D01*
X649400Y209118D01*
X649400Y209982D01*
X649468Y210844D01*
X649603Y211698D01*
X649805Y212538D01*
X650072Y213360D01*
X650403Y214159D01*
X650795Y214929D01*
X651247Y215666D01*
X651755Y216365D01*
X652316Y217023D01*
X652927Y217634D01*
X653585Y218195D01*
X654284Y218703D01*
X655021Y219155D01*
X655791Y219547D01*
X656590Y219878D01*
X657412Y220145D01*
X658252Y220347D01*
X659106Y220482D01*
X659968Y220550D01*
X660832Y220550D01*
X806882Y220550D02*
X807744Y220482D01*
X808598Y220347D01*
X809438Y220145D01*
X810260Y219878D01*
X811059Y219547D01*
X811829Y219155D01*
X812566Y218703D01*
X813265Y218195D01*
X813923Y217634D01*
X814534Y217023D01*
X815095Y216365D01*
X815603Y215666D01*
X816055Y214929D01*
X816447Y214159D01*
X816778Y213360D01*
X817045Y212538D01*
X817247Y211698D01*
X817382Y210844D01*
X817450Y209982D01*
X817450Y209118D01*
X817382Y208256D01*
X817247Y207402D01*
X817045Y206562D01*
X816778Y205740D01*
X816447Y204941D01*
X816055Y204171D01*
X815603Y203434D01*
X815095Y202735D01*
X814534Y202077D01*
X813923Y201466D01*
X813265Y200905D01*
X812566Y200397D01*
X811829Y199945D01*
X811059Y199553D01*
X810260Y199222D01*
X809438Y198955D01*
X808598Y198753D01*
X807744Y198618D01*
X806882Y198550D01*
X806018Y198550D01*
X805156Y198618D01*
X804302Y198753D01*
X803462Y198955D01*
X802640Y199222D01*
X801841Y199553D01*
X801071Y199945D01*
X800334Y200397D01*
X799635Y200905D01*
X798977Y201466D01*
X798366Y202077D01*
X797805Y202735D01*
X797297Y203434D01*
X796845Y204171D01*
X796453Y204941D01*
X796122Y205740D01*
X795855Y206562D01*
X795653Y207402D01*
X795518Y208256D01*
X795450Y209118D01*
X795450Y209982D01*
X795518Y210844D01*
X795653Y211698D01*
X795855Y212538D01*
X796122Y213360D01*
X796453Y214159D01*
X796845Y214929D01*
X797297Y215666D01*
X797805Y216365D01*
X798366Y217023D01*
X798977Y217634D01*
X799635Y218195D01*
X800334Y218703D01*
X801071Y219155D01*
X801841Y219547D01*
X802640Y219878D01*
X803462Y220145D01*
X804302Y220347D01*
X805156Y220482D01*
X806018Y220550D01*
X806882Y220550D01*
X368732Y74500D02*
X369594Y74432D01*
X370448Y74297D01*
X371288Y74095D01*
X372110Y73828D01*
X372909Y73497D01*
X373679Y73105D01*
X374416Y72653D01*
X375115Y72145D01*
X375773Y71584D01*
X376384Y70973D01*
X376945Y70315D01*
X377453Y69616D01*
X377905Y68879D01*
X378297Y68109D01*
X378628Y67310D01*
X378895Y66488D01*
X379097Y65648D01*
X379232Y64794D01*
X379300Y63932D01*
X379300Y63068D01*
X379232Y62206D01*
X379097Y61352D01*
X378895Y60512D01*
X378628Y59690D01*
X378297Y58891D01*
X377905Y58121D01*
X377453Y57384D01*
X376945Y56685D01*
X376384Y56027D01*
X375773Y55416D01*
X375115Y54855D01*
X374416Y54347D01*
X373679Y53895D01*
X372909Y53503D01*
X372110Y53172D01*
X371288Y52905D01*
X370448Y52703D01*
X369594Y52568D01*
X368732Y52500D01*
X367868Y52500D01*
X367006Y52568D01*
X366152Y52703D01*
X365312Y52905D01*
X364490Y53172D01*
X363691Y53503D01*
X362921Y53895D01*
X362184Y54347D01*
X361485Y54855D01*
X360827Y55416D01*
X360216Y56027D01*
X359655Y56685D01*
X359147Y57384D01*
X358695Y58121D01*
X358303Y58891D01*
X357972Y59690D01*
X357705Y60512D01*
X357503Y61352D01*
X357368Y62206D01*
X357300Y63068D01*
X357300Y63932D01*
X357368Y64794D01*
X357503Y65648D01*
X357705Y66488D01*
X357972Y67310D01*
X358303Y68109D01*
X358695Y68879D01*
X359147Y69616D01*
X359655Y70315D01*
X360216Y70973D01*
X360827Y71584D01*
X361485Y72145D01*
X362184Y72653D01*
X362921Y73105D01*
X363691Y73497D01*
X364490Y73828D01*
X365312Y74095D01*
X366152Y74297D01*
X367006Y74432D01*
X367868Y74500D01*
X368732Y74500D01*
X514782Y220550D02*
X515644Y220482D01*
X516498Y220347D01*
X517338Y220145D01*
X518160Y219878D01*
X518959Y219547D01*
X519729Y219155D01*
X520466Y218703D01*
X521165Y218195D01*
X521823Y217634D01*
X522434Y217023D01*
X522995Y216365D01*
X523503Y215666D01*
X523955Y214929D01*
X524347Y214159D01*
X524678Y213360D01*
X524945Y212538D01*
X525147Y211698D01*
X525282Y210844D01*
X525350Y209982D01*
X525350Y209118D01*
X525282Y208256D01*
X525147Y207402D01*
X524945Y206562D01*
X524678Y205740D01*
X524347Y204941D01*
X523955Y204171D01*
X523503Y203434D01*
X522995Y202735D01*
X522434Y202077D01*
X521823Y201466D01*
X521165Y200905D01*
X520466Y200397D01*
X519729Y199945D01*
X518959Y199553D01*
X518160Y199222D01*
X517338Y198955D01*
X516498Y198753D01*
X515644Y198618D01*
X514782Y198550D01*
X513918Y198550D01*
X513056Y198618D01*
X512202Y198753D01*
X511362Y198955D01*
X510540Y199222D01*
X509741Y199553D01*
X508971Y199945D01*
X508234Y200397D01*
X507535Y200905D01*
X506877Y201466D01*
X506266Y202077D01*
X505705Y202735D01*
X505197Y203434D01*
X504745Y204171D01*
X504353Y204941D01*
X504022Y205740D01*
X503755Y206562D01*
X503553Y207402D01*
X503418Y208256D01*
X503350Y209118D01*
X503350Y209982D01*
X503418Y210844D01*
X503553Y211698D01*
X503755Y212538D01*
X504022Y213360D01*
X504353Y214159D01*
X504745Y214929D01*
X505197Y215666D01*
X505705Y216365D01*
X506266Y217023D01*
X506877Y217634D01*
X507535Y218195D01*
X508234Y218703D01*
X508971Y219155D01*
X509741Y219547D01*
X510540Y219878D01*
X511362Y220145D01*
X512202Y220347D01*
X513056Y220482D01*
X513918Y220550D01*
X514782Y220550D01*
X514782Y74500D02*
X515644Y74432D01*
X516498Y74297D01*
X517338Y74095D01*
X518160Y73828D01*
X518959Y73497D01*
X519729Y73105D01*
X520466Y72653D01*
X521165Y72145D01*
X521823Y71584D01*
X522434Y70973D01*
X522995Y70315D01*
X523503Y69616D01*
X523955Y68879D01*
X524347Y68109D01*
X524678Y67310D01*
X524945Y66488D01*
X525147Y65648D01*
X525282Y64794D01*
X525350Y63932D01*
X525350Y63068D01*
X525282Y62206D01*
X525147Y61352D01*
X524945Y60512D01*
X524678Y59690D01*
X524347Y58891D01*
X523955Y58121D01*
X523503Y57384D01*
X522995Y56685D01*
X522434Y56027D01*
X521823Y55416D01*
X521165Y54855D01*
X520466Y54347D01*
X519729Y53895D01*
X518959Y53503D01*
X518160Y53172D01*
X517338Y52905D01*
X516498Y52703D01*
X515644Y52568D01*
X514782Y52500D01*
X513918Y52500D01*
X513056Y52568D01*
X512202Y52703D01*
X511362Y52905D01*
X510540Y53172D01*
X509741Y53503D01*
X508971Y53895D01*
X508234Y54347D01*
X507535Y54855D01*
X506877Y55416D01*
X506266Y56027D01*
X505705Y56685D01*
X505197Y57384D01*
X504745Y58121D01*
X504353Y58891D01*
X504022Y59690D01*
X503755Y60512D01*
X503553Y61352D01*
X503418Y62206D01*
X503350Y63068D01*
X503350Y63932D01*
X503418Y64794D01*
X503553Y65648D01*
X503755Y66488D01*
X504022Y67310D01*
X504353Y68109D01*
X504745Y68879D01*
X505197Y69616D01*
X505705Y70315D01*
X506266Y70973D01*
X506877Y71584D01*
X507535Y72145D01*
X508234Y72653D01*
X508971Y73105D01*
X509741Y73497D01*
X510540Y73828D01*
X511362Y74095D01*
X512202Y74297D01*
X513056Y74432D01*
X513918Y74500D01*
X514782Y74500D01*
X76632Y220550D02*
X77494Y220482D01*
X78348Y220347D01*
X79188Y220145D01*
X80010Y219878D01*
X80809Y219547D01*
X81579Y219155D01*
X82316Y218703D01*
X83015Y218195D01*
X83673Y217634D01*
X84284Y217023D01*
X84845Y216365D01*
X85353Y215666D01*
X85805Y214929D01*
X86197Y214159D01*
X86528Y213360D01*
X86795Y212538D01*
X86997Y211698D01*
X87132Y210844D01*
X87200Y209982D01*
X87200Y209118D01*
X87132Y208256D01*
X86997Y207402D01*
X86795Y206562D01*
X86528Y205740D01*
X86197Y204941D01*
X85805Y204171D01*
X85353Y203434D01*
X84845Y202735D01*
X84284Y202077D01*
X83673Y201466D01*
X83015Y200905D01*
X82316Y200397D01*
X81579Y199945D01*
X80809Y199553D01*
X80010Y199222D01*
X79188Y198955D01*
X78348Y198753D01*
X77494Y198618D01*
X76632Y198550D01*
X75768Y198550D01*
X74906Y198618D01*
X74052Y198753D01*
X73212Y198955D01*
X72390Y199222D01*
X71591Y199553D01*
X70821Y199945D01*
X70084Y200397D01*
X69385Y200905D01*
X68727Y201466D01*
X68116Y202077D01*
X67555Y202735D01*
X67047Y203434D01*
X66595Y204171D01*
X66203Y204941D01*
X65872Y205740D01*
X65605Y206562D01*
X65403Y207402D01*
X65268Y208256D01*
X65200Y209118D01*
X65200Y209982D01*
X65268Y210844D01*
X65403Y211698D01*
X65605Y212538D01*
X65872Y213360D01*
X66203Y214159D01*
X66595Y214929D01*
X67047Y215666D01*
X67555Y216365D01*
X68116Y217023D01*
X68727Y217634D01*
X69385Y218195D01*
X70084Y218703D01*
X70821Y219155D01*
X71591Y219547D01*
X72390Y219878D01*
X73212Y220145D01*
X74052Y220347D01*
X74906Y220482D01*
X75768Y220550D01*
X76632Y220550D01*
X222682Y220550D02*
X223544Y220482D01*
X224398Y220347D01*
X225238Y220145D01*
X226060Y219878D01*
X226859Y219547D01*
X227629Y219155D01*
X228366Y218703D01*
X229065Y218195D01*
X229723Y217634D01*
X230334Y217023D01*
X230895Y216365D01*
X231403Y215666D01*
X231855Y214929D01*
X232247Y214159D01*
X232578Y213360D01*
X232845Y212538D01*
X233047Y211698D01*
X233182Y210844D01*
X233250Y209982D01*
X233250Y209118D01*
X233182Y208256D01*
X233047Y207402D01*
X232845Y206562D01*
X232578Y205740D01*
X232247Y204941D01*
X231855Y204171D01*
X231403Y203434D01*
X230895Y202735D01*
X230334Y202077D01*
X229723Y201466D01*
X229065Y200905D01*
X228366Y200397D01*
X227629Y199945D01*
X226859Y199553D01*
X226060Y199222D01*
X225238Y198955D01*
X224398Y198753D01*
X223544Y198618D01*
X222682Y198550D01*
X221818Y198550D01*
X220956Y198618D01*
X220102Y198753D01*
X219262Y198955D01*
X218440Y199222D01*
X217641Y199553D01*
X216871Y199945D01*
X216134Y200397D01*
X215435Y200905D01*
X214777Y201466D01*
X214166Y202077D01*
X213605Y202735D01*
X213097Y203434D01*
X212645Y204171D01*
X212253Y204941D01*
X211922Y205740D01*
X211655Y206562D01*
X211453Y207402D01*
X211318Y208256D01*
X211250Y209118D01*
X211250Y209982D01*
X211318Y210844D01*
X211453Y211698D01*
X211655Y212538D01*
X211922Y213360D01*
X212253Y214159D01*
X212645Y214929D01*
X213097Y215666D01*
X213605Y216365D01*
X214166Y217023D01*
X214777Y217634D01*
X215435Y218195D01*
X216134Y218703D01*
X216871Y219155D01*
X217641Y219547D01*
X218440Y219878D01*
X219262Y220145D01*
X220102Y220347D01*
X220956Y220482D01*
X221818Y220550D01*
X222682Y220550D01*
M02*
