G04 EAGLE Gerber RS-274X export*
G75*
%MOMM*%
%FSLAX34Y34*%
%LPD*%
%INSoldermask Bottom*%
%IPPOS*%
%AMOC8*
5,1,8,0,0,1.08239X$1,22.5*%
G01*
%ADD10P,1.319650X8X292.500000*%
%ADD11C,2.032000*%
%ADD12P,2.199416X8X112.500000*%
%ADD13R,2.032000X2.032000*%
%ADD14P,2.914227X8X112.500000*%
%ADD15C,1.502400*%
%ADD16P,1.362513X8X22.500000*%
%ADD17P,1.979475X8X202.500000*%
%ADD18P,1.896780X8X22.500000*%
%ADD19P,4.295356X8X112.500000*%
%ADD20P,2.089446X8X112.500000*%
%ADD21C,2.352400*%


D10*
X863600Y701675D03*
X850900Y701675D03*
X863600Y688975D03*
X850900Y688975D03*
X863600Y676275D03*
X850900Y676275D03*
X863600Y663575D03*
X850900Y663575D03*
X863600Y650875D03*
X850900Y650875D03*
D11*
X857250Y609600D03*
X857250Y584200D03*
X857250Y558800D03*
X857250Y533400D03*
X857250Y508000D03*
X857250Y482600D03*
D12*
X50800Y796925D03*
X76200Y796925D03*
X50800Y822325D03*
X76200Y822325D03*
X50800Y847725D03*
X76200Y847725D03*
X50800Y873125D03*
X76200Y873125D03*
X50800Y898525D03*
X76200Y898525D03*
D13*
X355200Y418950D03*
X330200Y418950D03*
X305200Y418950D03*
D14*
X377200Y488950D03*
X283200Y488950D03*
D13*
X190100Y698350D03*
X165100Y698350D03*
X140100Y698350D03*
D14*
X212100Y768350D03*
X118100Y768350D03*
D15*
X76200Y1002900D03*
X51200Y1002900D03*
X51200Y952900D03*
X76200Y952900D03*
X101200Y952900D03*
X101200Y1002900D03*
D16*
X26200Y977900D03*
X126200Y977900D03*
D13*
X466325Y698350D03*
X441325Y698350D03*
X416325Y698350D03*
D14*
X488325Y768350D03*
X394325Y768350D03*
D13*
X577450Y418950D03*
X552450Y418950D03*
X527450Y418950D03*
D14*
X599450Y488950D03*
X505450Y488950D03*
D13*
X742550Y698350D03*
X717550Y698350D03*
X692550Y698350D03*
D14*
X764550Y768350D03*
X670550Y768350D03*
D13*
X799700Y418950D03*
X774700Y418950D03*
X749700Y418950D03*
D14*
X821700Y488950D03*
X727700Y488950D03*
D11*
X691388Y1000506D03*
X756412Y1000506D03*
X691388Y955294D03*
X756412Y955294D03*
X786638Y1000506D03*
X851662Y1000506D03*
X786638Y955294D03*
X851662Y955294D03*
D17*
X600075Y977900D03*
X600075Y952500D03*
X600075Y1003300D03*
X493712Y977900D03*
X493712Y952500D03*
X493712Y1003300D03*
X387349Y977900D03*
X387349Y952500D03*
X387349Y1003300D03*
X280987Y977900D03*
X280987Y952500D03*
X280987Y1003300D03*
D18*
X97950Y378950D03*
X77950Y378950D03*
X117950Y378950D03*
X137950Y378950D03*
X57950Y378950D03*
X157950Y378950D03*
D19*
X49950Y488950D03*
X165950Y488950D03*
D20*
X254000Y63500D03*
X177800Y63500D03*
X279400Y63500D03*
D21*
X222250Y63500D03*
D20*
X838200Y63500D03*
X762000Y63500D03*
X863600Y63500D03*
D21*
X806450Y63500D03*
D20*
X107950Y63500D03*
X31750Y63500D03*
X133350Y63500D03*
D21*
X76200Y63500D03*
D20*
X692150Y63500D03*
X615950Y63500D03*
X717550Y63500D03*
D21*
X660400Y63500D03*
D20*
X400050Y209550D03*
X323850Y209550D03*
X425450Y209550D03*
D21*
X368300Y209550D03*
D20*
X692150Y209550D03*
X615950Y209550D03*
X717550Y209550D03*
D21*
X660400Y209550D03*
D20*
X838200Y209550D03*
X762000Y209550D03*
X863600Y209550D03*
D21*
X806450Y209550D03*
D20*
X400050Y63500D03*
X323850Y63500D03*
X425450Y63500D03*
D21*
X368300Y63500D03*
D20*
X546100Y209550D03*
X469900Y209550D03*
X571500Y209550D03*
D21*
X514350Y209550D03*
D20*
X546100Y63500D03*
X469900Y63500D03*
X571500Y63500D03*
D21*
X514350Y63500D03*
D20*
X107950Y209550D03*
X31750Y209550D03*
X133350Y209550D03*
D21*
X76200Y209550D03*
D20*
X254000Y209550D03*
X177800Y209550D03*
X279400Y209550D03*
D21*
X222250Y209550D03*
M02*
