G04 EAGLE Gerber RS-274X export*
G75*
%MOMM*%
%FSLAX34Y34*%
%LPD*%
%INSolderpaste Top*%
%IPPOS*%
%AMOC8*
5,1,8,0,0,1.08239X$1,22.5*%
G01*
%ADD10R,5.334000X1.930400*%
%ADD11R,1.100000X1.000000*%
%ADD12R,1.200000X3.200000*%
%ADD13R,1.000000X1.100000*%
%ADD14R,0.300000X1.200000*%
%ADD15R,1.300000X1.500000*%
%ADD16R,0.660400X2.032000*%
%ADD17R,0.700000X1.000000*%
%ADD18R,1.400000X3.000000*%
%ADD19R,1.400000X1.400000*%
%ADD20R,1.905000X0.381000*%
%ADD21R,1.400000X2.200000*%
%ADD22R,2.200000X1.400000*%
%ADD23R,2.200000X0.600000*%
%ADD24R,0.600000X2.200000*%
%ADD25R,1.400000X1.000000*%
%ADD26R,3.000000X1.400000*%
%ADD27R,1.498600X2.006600*%
%ADD28R,3.810000X2.006600*%
%ADD29R,5.400000X6.200000*%
%ADD30R,1.000000X1.600000*%
%ADD31R,1.600000X1.803000*%
%ADD32R,1.500000X2.000000*%
%ADD33R,2.000000X1.500000*%


D10*
X516890Y803275D03*
X613410Y803275D03*
D11*
X551425Y768350D03*
X534425Y768350D03*
D12*
X861375Y808700D03*
X861375Y740700D03*
X821375Y740700D03*
X821375Y808700D03*
D11*
X800100Y791600D03*
X800100Y808600D03*
X578875Y768350D03*
X595875Y768350D03*
D12*
X861375Y923000D03*
X861375Y855000D03*
X821375Y855000D03*
X821375Y923000D03*
D11*
X800100Y905900D03*
X800100Y922900D03*
G36*
X660458Y624061D02*
X652681Y631838D01*
X659752Y638909D01*
X667529Y631132D01*
X660458Y624061D01*
G37*
G36*
X672478Y612041D02*
X664701Y619818D01*
X671772Y626889D01*
X679549Y619112D01*
X672478Y612041D01*
G37*
G36*
X560562Y566362D02*
X568339Y574139D01*
X575410Y567068D01*
X567633Y559291D01*
X560562Y566362D01*
G37*
G36*
X548542Y554342D02*
X556319Y562119D01*
X563390Y555048D01*
X555613Y547271D01*
X548542Y554342D01*
G37*
D13*
X495300Y620150D03*
X495300Y637150D03*
D11*
G36*
X509414Y689668D02*
X501637Y681891D01*
X494566Y688962D01*
X502343Y696739D01*
X509414Y689668D01*
G37*
G36*
X521434Y701688D02*
X513657Y693911D01*
X506586Y700982D01*
X514363Y708759D01*
X521434Y701688D01*
G37*
G36*
X499889Y699193D02*
X492112Y691416D01*
X485041Y698487D01*
X492818Y706264D01*
X499889Y699193D01*
G37*
G36*
X511909Y711213D02*
X504132Y703436D01*
X497061Y710507D01*
X504838Y718284D01*
X511909Y711213D01*
G37*
D13*
X593725Y399025D03*
X593725Y382025D03*
D11*
G36*
X583508Y731664D02*
X591285Y723887D01*
X584214Y716816D01*
X576437Y724593D01*
X583508Y731664D01*
G37*
G36*
X571488Y743684D02*
X579265Y735907D01*
X572194Y728836D01*
X564417Y736613D01*
X571488Y743684D01*
G37*
D14*
G36*
X557087Y716199D02*
X559209Y718321D01*
X567693Y709837D01*
X565571Y707715D01*
X557087Y716199D01*
G37*
G36*
X553551Y712664D02*
X555673Y714786D01*
X564157Y706302D01*
X562035Y704180D01*
X553551Y712664D01*
G37*
G36*
X550016Y709128D02*
X552138Y711250D01*
X560622Y702766D01*
X558500Y700644D01*
X550016Y709128D01*
G37*
G36*
X546480Y705593D02*
X548602Y707715D01*
X557086Y699231D01*
X554964Y697109D01*
X546480Y705593D01*
G37*
G36*
X542945Y702057D02*
X545067Y704179D01*
X553551Y695695D01*
X551429Y693573D01*
X542945Y702057D01*
G37*
G36*
X539409Y698522D02*
X541531Y700644D01*
X550015Y692160D01*
X547893Y690038D01*
X539409Y698522D01*
G37*
G36*
X535874Y694986D02*
X537996Y697108D01*
X546480Y688624D01*
X544358Y686502D01*
X535874Y694986D01*
G37*
G36*
X532338Y691450D02*
X534460Y693572D01*
X542944Y685088D01*
X540822Y682966D01*
X532338Y691450D01*
G37*
G36*
X528803Y687915D02*
X530925Y690037D01*
X539409Y681553D01*
X537287Y679431D01*
X528803Y687915D01*
G37*
G36*
X525267Y684379D02*
X527389Y686501D01*
X535873Y678017D01*
X533751Y675895D01*
X525267Y684379D01*
G37*
G36*
X521731Y680844D02*
X523853Y682966D01*
X532337Y674482D01*
X530215Y672360D01*
X521731Y680844D01*
G37*
G36*
X518196Y677308D02*
X520318Y679430D01*
X528802Y670946D01*
X526680Y668824D01*
X518196Y677308D01*
G37*
G36*
X514660Y673773D02*
X516782Y675895D01*
X525266Y667411D01*
X523144Y665289D01*
X514660Y673773D01*
G37*
G36*
X511125Y670237D02*
X513247Y672359D01*
X521731Y663875D01*
X519609Y661753D01*
X511125Y670237D01*
G37*
G36*
X507589Y666702D02*
X509711Y668824D01*
X518195Y660340D01*
X516073Y658218D01*
X507589Y666702D01*
G37*
G36*
X504054Y663166D02*
X506176Y665288D01*
X514660Y656804D01*
X512538Y654682D01*
X504054Y663166D01*
G37*
G36*
X506355Y623941D02*
X504233Y626063D01*
X512717Y634547D01*
X514839Y632425D01*
X506355Y623941D01*
G37*
G36*
X509891Y620406D02*
X507769Y622528D01*
X516253Y631012D01*
X518375Y628890D01*
X509891Y620406D01*
G37*
G36*
X513426Y616870D02*
X511304Y618992D01*
X519788Y627476D01*
X521910Y625354D01*
X513426Y616870D01*
G37*
G36*
X516962Y613335D02*
X514840Y615457D01*
X523324Y623941D01*
X525446Y621819D01*
X516962Y613335D01*
G37*
G36*
X520498Y609799D02*
X518376Y611921D01*
X526860Y620405D01*
X528982Y618283D01*
X520498Y609799D01*
G37*
G36*
X524033Y606264D02*
X521911Y608386D01*
X530395Y616870D01*
X532517Y614748D01*
X524033Y606264D01*
G37*
G36*
X527569Y602728D02*
X525447Y604850D01*
X533931Y613334D01*
X536053Y611212D01*
X527569Y602728D01*
G37*
G36*
X531104Y599193D02*
X528982Y601315D01*
X537466Y609799D01*
X539588Y607677D01*
X531104Y599193D01*
G37*
G36*
X534640Y595657D02*
X532518Y597779D01*
X541002Y606263D01*
X543124Y604141D01*
X534640Y595657D01*
G37*
G36*
X538175Y592122D02*
X536053Y594244D01*
X544537Y602728D01*
X546659Y600606D01*
X538175Y592122D01*
G37*
G36*
X541711Y588586D02*
X539589Y590708D01*
X548073Y599192D01*
X550195Y597070D01*
X541711Y588586D01*
G37*
G36*
X545246Y585051D02*
X543124Y587173D01*
X551608Y595657D01*
X553730Y593535D01*
X545246Y585051D01*
G37*
G36*
X548782Y581515D02*
X546660Y583637D01*
X555144Y592121D01*
X557266Y589999D01*
X548782Y581515D01*
G37*
G36*
X552317Y577979D02*
X550195Y580101D01*
X558679Y588585D01*
X560801Y586463D01*
X552317Y577979D01*
G37*
G36*
X555853Y574444D02*
X553731Y576566D01*
X562215Y585050D01*
X564337Y582928D01*
X555853Y574444D01*
G37*
G36*
X559388Y570908D02*
X557266Y573030D01*
X565750Y581514D01*
X567872Y579392D01*
X559388Y570908D01*
G37*
G36*
X598254Y573210D02*
X596132Y571088D01*
X587648Y579572D01*
X589770Y581694D01*
X598254Y573210D01*
G37*
G36*
X601790Y576746D02*
X599668Y574624D01*
X591184Y583108D01*
X593306Y585230D01*
X601790Y576746D01*
G37*
G36*
X605325Y580281D02*
X603203Y578159D01*
X594719Y586643D01*
X596841Y588765D01*
X605325Y580281D01*
G37*
G36*
X608861Y583817D02*
X606739Y581695D01*
X598255Y590179D01*
X600377Y592301D01*
X608861Y583817D01*
G37*
G36*
X612396Y587352D02*
X610274Y585230D01*
X601790Y593714D01*
X603912Y595836D01*
X612396Y587352D01*
G37*
G36*
X615932Y590888D02*
X613810Y588766D01*
X605326Y597250D01*
X607448Y599372D01*
X615932Y590888D01*
G37*
G36*
X619467Y594423D02*
X617345Y592301D01*
X608861Y600785D01*
X610983Y602907D01*
X619467Y594423D01*
G37*
G36*
X623003Y597959D02*
X620881Y595837D01*
X612397Y604321D01*
X614519Y606443D01*
X623003Y597959D01*
G37*
G36*
X626538Y601494D02*
X624416Y599372D01*
X615932Y607856D01*
X618054Y609978D01*
X626538Y601494D01*
G37*
G36*
X630074Y605030D02*
X627952Y602908D01*
X619468Y611392D01*
X621590Y613514D01*
X630074Y605030D01*
G37*
G36*
X633609Y608565D02*
X631487Y606443D01*
X623003Y614927D01*
X625125Y617049D01*
X633609Y608565D01*
G37*
G36*
X637145Y612101D02*
X635023Y609979D01*
X626539Y618463D01*
X628661Y620585D01*
X637145Y612101D01*
G37*
G36*
X640680Y615636D02*
X638558Y613514D01*
X630074Y621998D01*
X632196Y624120D01*
X640680Y615636D01*
G37*
G36*
X644216Y619172D02*
X642094Y617050D01*
X633610Y625534D01*
X635732Y627656D01*
X644216Y619172D01*
G37*
G36*
X647751Y622707D02*
X645629Y620585D01*
X637145Y629069D01*
X639267Y631191D01*
X647751Y622707D01*
G37*
G36*
X651287Y626243D02*
X649165Y624121D01*
X640681Y632605D01*
X642803Y634727D01*
X651287Y626243D01*
G37*
G36*
X649524Y665288D02*
X651646Y663166D01*
X643162Y654682D01*
X641040Y656804D01*
X649524Y665288D01*
G37*
G36*
X645989Y668824D02*
X648111Y666702D01*
X639627Y658218D01*
X637505Y660340D01*
X645989Y668824D01*
G37*
G36*
X642453Y672359D02*
X644575Y670237D01*
X636091Y661753D01*
X633969Y663875D01*
X642453Y672359D01*
G37*
G36*
X638918Y675895D02*
X641040Y673773D01*
X632556Y665289D01*
X630434Y667411D01*
X638918Y675895D01*
G37*
G36*
X635382Y679430D02*
X637504Y677308D01*
X629020Y668824D01*
X626898Y670946D01*
X635382Y679430D01*
G37*
G36*
X631847Y682966D02*
X633969Y680844D01*
X625485Y672360D01*
X623363Y674482D01*
X631847Y682966D01*
G37*
G36*
X628311Y686501D02*
X630433Y684379D01*
X621949Y675895D01*
X619827Y678017D01*
X628311Y686501D01*
G37*
G36*
X624775Y690037D02*
X626897Y687915D01*
X618413Y679431D01*
X616291Y681553D01*
X624775Y690037D01*
G37*
G36*
X621240Y693572D02*
X623362Y691450D01*
X614878Y682966D01*
X612756Y685088D01*
X621240Y693572D01*
G37*
G36*
X617704Y697108D02*
X619826Y694986D01*
X611342Y686502D01*
X609220Y688624D01*
X617704Y697108D01*
G37*
G36*
X614169Y700644D02*
X616291Y698522D01*
X607807Y690038D01*
X605685Y692160D01*
X614169Y700644D01*
G37*
G36*
X610633Y704179D02*
X612755Y702057D01*
X604271Y693573D01*
X602149Y695695D01*
X610633Y704179D01*
G37*
G36*
X607098Y707715D02*
X609220Y705593D01*
X600736Y697109D01*
X598614Y699231D01*
X607098Y707715D01*
G37*
G36*
X603562Y711250D02*
X605684Y709128D01*
X597200Y700644D01*
X595078Y702766D01*
X603562Y711250D01*
G37*
G36*
X600027Y714786D02*
X602149Y712664D01*
X593665Y704180D01*
X591543Y706302D01*
X600027Y714786D01*
G37*
G36*
X596491Y718321D02*
X598613Y716199D01*
X590129Y707715D01*
X588007Y709837D01*
X596491Y718321D01*
G37*
D15*
G36*
X544000Y574681D02*
X553192Y565489D01*
X542586Y554883D01*
X533394Y564075D01*
X544000Y574681D01*
G37*
G36*
X530564Y588117D02*
X539756Y578925D01*
X529150Y568319D01*
X519958Y577511D01*
X530564Y588117D01*
G37*
G36*
X649800Y603244D02*
X640608Y612436D01*
X651214Y623042D01*
X660406Y613850D01*
X649800Y603244D01*
G37*
G36*
X663236Y589808D02*
X654044Y599000D01*
X664650Y609606D01*
X673842Y600414D01*
X663236Y589808D01*
G37*
D11*
X640325Y473075D03*
X623325Y473075D03*
D16*
X292100Y623316D03*
X292100Y684784D03*
X304800Y623316D03*
X317500Y623316D03*
X304800Y684784D03*
X317500Y684784D03*
X330200Y623316D03*
X330200Y684784D03*
X342900Y623316D03*
X355600Y623316D03*
X342900Y684784D03*
X355600Y684784D03*
X368300Y623316D03*
X368300Y684784D03*
D13*
X306950Y752475D03*
X289950Y752475D03*
X289950Y720725D03*
X306950Y720725D03*
X306950Y736600D03*
X289950Y736600D03*
D11*
X306950Y704850D03*
X289950Y704850D03*
X336550Y721750D03*
X336550Y738750D03*
D13*
X370450Y720725D03*
X353450Y720725D03*
X353450Y736600D03*
X370450Y736600D03*
D11*
X353450Y704850D03*
X370450Y704850D03*
D13*
X306950Y555625D03*
X289950Y555625D03*
X289950Y587375D03*
X306950Y587375D03*
X306950Y571500D03*
X289950Y571500D03*
D11*
X306950Y603250D03*
X289950Y603250D03*
D13*
X353450Y555625D03*
X370450Y555625D03*
X370450Y587375D03*
X353450Y587375D03*
D11*
X353450Y603250D03*
X370450Y603250D03*
D17*
X73025Y573200D03*
X63525Y595200D03*
X82525Y595200D03*
D11*
X66675Y627625D03*
X66675Y610625D03*
D13*
X82550Y610625D03*
X82550Y627625D03*
D18*
X155575Y865000D03*
X155575Y913000D03*
X57150Y655450D03*
X57150Y703450D03*
X368300Y836425D03*
X368300Y884425D03*
D11*
X529662Y863600D03*
X546662Y863600D03*
D19*
X111125Y898475D03*
X111125Y860475D03*
X60375Y742950D03*
X98375Y742950D03*
D13*
X353450Y571500D03*
X370450Y571500D03*
X323850Y595875D03*
X323850Y578875D03*
D20*
X622878Y451900D03*
X622878Y445400D03*
X622878Y438900D03*
X622878Y432400D03*
X622878Y425900D03*
X622878Y419400D03*
X622878Y412900D03*
X622878Y406400D03*
X622878Y399900D03*
X622878Y393400D03*
X622878Y386900D03*
X622878Y380400D03*
X622878Y373900D03*
X622878Y367400D03*
X697922Y367400D03*
X697922Y373900D03*
X697922Y380400D03*
X697922Y386900D03*
X697922Y393400D03*
X697922Y399900D03*
X697922Y406400D03*
X697922Y412900D03*
X697922Y419400D03*
X697922Y425900D03*
X697922Y432400D03*
X697922Y438900D03*
X697922Y445400D03*
X697922Y451900D03*
D11*
X667775Y466725D03*
X684775Y466725D03*
D13*
X720725Y373625D03*
X720725Y356625D03*
D21*
X752475Y339600D03*
X752475Y371600D03*
D11*
X784225Y313300D03*
X784225Y296300D03*
X800100Y296300D03*
X800100Y313300D03*
D13*
X815975Y313300D03*
X815975Y296300D03*
D11*
X831850Y313300D03*
X831850Y296300D03*
X847725Y296300D03*
X847725Y313300D03*
D13*
X863600Y313300D03*
X863600Y296300D03*
D21*
X800100Y339600D03*
X800100Y371600D03*
X847725Y339600D03*
X847725Y371600D03*
D22*
X622175Y307975D03*
X654175Y307975D03*
D11*
X555625Y299475D03*
X555625Y316475D03*
D13*
X518550Y304800D03*
X535550Y304800D03*
D23*
X437550Y320675D03*
X489550Y320675D03*
X437550Y333375D03*
X437550Y307975D03*
X437550Y295275D03*
X489550Y333375D03*
X489550Y307975D03*
X489550Y295275D03*
D11*
X536575Y338700D03*
X536575Y321700D03*
D13*
X517525Y321700D03*
X517525Y338700D03*
X767325Y120650D03*
X750325Y120650D03*
D22*
X571375Y333375D03*
X603375Y333375D03*
D13*
X414900Y288925D03*
X397900Y288925D03*
X414900Y304800D03*
X397900Y304800D03*
X397900Y320675D03*
X414900Y320675D03*
D11*
X414900Y336550D03*
X397900Y336550D03*
D13*
X616975Y120650D03*
X633975Y120650D03*
D11*
X487925Y349250D03*
X470925Y349250D03*
X453000Y279400D03*
X436000Y279400D03*
X666750Y538725D03*
X666750Y521725D03*
X641350Y538725D03*
X641350Y521725D03*
X250825Y605400D03*
X250825Y588400D03*
X219075Y588400D03*
X219075Y605400D03*
X266700Y605400D03*
X266700Y588400D03*
D13*
X234950Y605400D03*
X234950Y588400D03*
D11*
X269875Y702700D03*
X269875Y719700D03*
X234950Y702700D03*
X234950Y719700D03*
D13*
X219075Y719700D03*
X219075Y702700D03*
D11*
X254000Y702700D03*
X254000Y719700D03*
D24*
X241300Y628050D03*
X241300Y680050D03*
X228600Y628050D03*
X254000Y628050D03*
X266700Y628050D03*
X228600Y680050D03*
X254000Y680050D03*
X266700Y680050D03*
D25*
X734900Y908050D03*
X712900Y898550D03*
X712900Y917550D03*
D13*
X677300Y917575D03*
X694300Y917575D03*
D25*
X734900Y873125D03*
X712900Y863625D03*
X712900Y882625D03*
D13*
X677300Y882650D03*
X694300Y882650D03*
X753500Y873125D03*
X770500Y873125D03*
X753500Y908050D03*
X770500Y908050D03*
D11*
X184150Y986400D03*
X184150Y969400D03*
D13*
X212725Y678425D03*
X212725Y661425D03*
D16*
X512762Y922909D03*
X512762Y861441D03*
X500062Y922909D03*
X487362Y922909D03*
X500062Y861441D03*
X487362Y861441D03*
X474662Y922909D03*
X474662Y861441D03*
X461962Y922909D03*
X461962Y861441D03*
X449262Y922909D03*
X436562Y922909D03*
X449262Y861441D03*
X436562Y861441D03*
X423862Y922909D03*
X423862Y861441D03*
D11*
X644525Y986400D03*
X644525Y969400D03*
X555625Y986400D03*
X555625Y969400D03*
X538162Y986400D03*
X538162Y969400D03*
X449262Y986400D03*
X449262Y969400D03*
X431799Y986400D03*
X431799Y969400D03*
X342899Y986400D03*
X342899Y969400D03*
X239712Y969400D03*
X239712Y986400D03*
X325437Y986400D03*
X325437Y969400D03*
X158750Y338700D03*
X158750Y321700D03*
X57150Y338700D03*
X57150Y321700D03*
D23*
X81950Y323850D03*
X133950Y323850D03*
X81950Y336550D03*
X81950Y311150D03*
X81950Y298450D03*
X133950Y336550D03*
X133950Y311150D03*
X133950Y298450D03*
D11*
X158750Y306950D03*
X158750Y289950D03*
X57150Y306950D03*
X57150Y289950D03*
X116450Y352425D03*
X99450Y352425D03*
X116450Y282575D03*
X99450Y282575D03*
D13*
X409575Y832875D03*
X409575Y849875D03*
D26*
X465325Y517525D03*
X417325Y517525D03*
D11*
X421250Y558800D03*
X404250Y558800D03*
D27*
X425069Y400304D03*
X447929Y400304D03*
X470789Y400304D03*
D28*
X447675Y463296D03*
D11*
X168275Y986400D03*
X168275Y969400D03*
D29*
X298450Y829075D03*
D30*
X321250Y902075D03*
X275650Y902075D03*
D18*
X225425Y865000D03*
X225425Y913000D03*
D31*
X204720Y939800D03*
X176280Y939800D03*
D10*
X713740Y571500D03*
X810260Y571500D03*
D11*
X730813Y606425D03*
X713813Y606425D03*
X793188Y606425D03*
X810188Y606425D03*
D32*
X565150Y368000D03*
X565150Y394000D03*
D33*
X698800Y492125D03*
X672800Y492125D03*
D21*
X847725Y415800D03*
X847725Y447800D03*
D11*
X640325Y485775D03*
X623325Y485775D03*
M02*
