G04 EAGLE Gerber RS-274X export*
G75*
%MOMM*%
%FSLAX34Y34*%
%LPD*%
%INSoldermask Top*%
%IPPOS*%
%AMOC8*
5,1,8,0,0,1.08239X$1,22.5*%
G01*
%ADD10R,5.486400X2.082800*%
%ADD11R,1.252400X1.152400*%
%ADD12R,1.352400X3.352400*%
%ADD13R,1.152400X1.252400*%
%ADD14P,1.319650X8X292.500000*%
%ADD15R,0.452400X1.352400*%
%ADD16R,1.452400X1.652400*%
%ADD17C,2.032000*%
%ADD18R,0.812800X2.184400*%
%ADD19R,0.852400X1.152400*%
%ADD20R,1.552400X3.152400*%
%ADD21R,1.552400X1.552400*%
%ADD22P,2.199416X8X112.500000*%
%ADD23R,2.057400X0.533400*%
%ADD24R,1.552400X2.352400*%
%ADD25R,2.352400X1.552400*%
%ADD26R,2.352400X0.752400*%
%ADD27R,2.032000X2.032000*%
%ADD28P,2.914227X8X112.500000*%
%ADD29R,0.752400X2.352400*%
%ADD30C,1.502400*%
%ADD31P,1.362513X8X22.500000*%
%ADD32R,1.552400X1.152400*%
%ADD33P,1.979475X8X202.500000*%
%ADD34P,1.896780X8X22.500000*%
%ADD35P,4.295356X8X112.500000*%
%ADD36R,3.152400X1.552400*%
%ADD37R,1.651000X2.159000*%
%ADD38R,3.962400X2.159000*%
%ADD39C,1.152400*%
%ADD40P,2.089446X8X112.500000*%
%ADD41C,2.352400*%
%ADD42R,5.552400X6.352400*%
%ADD43R,1.152400X1.752400*%
%ADD44R,1.752400X1.955400*%
%ADD45R,1.652400X2.152400*%
%ADD46R,2.152400X1.652400*%


D10*
X516890Y803275D03*
X613410Y803275D03*
D11*
X551425Y768350D03*
X534425Y768350D03*
D12*
X861375Y808700D03*
X861375Y740700D03*
X821375Y740700D03*
X821375Y808700D03*
D11*
X800100Y791600D03*
X800100Y808600D03*
X578875Y768350D03*
X595875Y768350D03*
D12*
X861375Y923000D03*
X861375Y855000D03*
X821375Y855000D03*
X821375Y923000D03*
D11*
X800100Y905900D03*
X800100Y922900D03*
G36*
X660458Y622983D02*
X651603Y631838D01*
X659752Y639987D01*
X668607Y631132D01*
X660458Y622983D01*
G37*
G36*
X672478Y610963D02*
X663623Y619818D01*
X671772Y627967D01*
X680627Y619112D01*
X672478Y610963D01*
G37*
G36*
X559484Y566362D02*
X568339Y575217D01*
X576488Y567068D01*
X567633Y558213D01*
X559484Y566362D01*
G37*
G36*
X547464Y554342D02*
X556319Y563197D01*
X564468Y555048D01*
X555613Y546193D01*
X547464Y554342D01*
G37*
D13*
X495300Y620150D03*
X495300Y637150D03*
D11*
G36*
X510492Y689668D02*
X501637Y680813D01*
X493488Y688962D01*
X502343Y697817D01*
X510492Y689668D01*
G37*
G36*
X522512Y701688D02*
X513657Y692833D01*
X505508Y700982D01*
X514363Y709837D01*
X522512Y701688D01*
G37*
G36*
X500967Y699193D02*
X492112Y690338D01*
X483963Y698487D01*
X492818Y707342D01*
X500967Y699193D01*
G37*
G36*
X512987Y711213D02*
X504132Y702358D01*
X495983Y710507D01*
X504838Y719362D01*
X512987Y711213D01*
G37*
D13*
X593725Y399025D03*
X593725Y382025D03*
D14*
X863600Y701675D03*
X850900Y701675D03*
X863600Y688975D03*
X850900Y688975D03*
X863600Y676275D03*
X850900Y676275D03*
X863600Y663575D03*
X850900Y663575D03*
X863600Y650875D03*
X850900Y650875D03*
D11*
G36*
X583508Y732742D02*
X592363Y723887D01*
X584214Y715738D01*
X575359Y724593D01*
X583508Y732742D01*
G37*
G36*
X571488Y744762D02*
X580343Y735907D01*
X572194Y727758D01*
X563339Y736613D01*
X571488Y744762D01*
G37*
D15*
G36*
X556010Y716199D02*
X559209Y719398D01*
X568770Y709837D01*
X565571Y706638D01*
X556010Y716199D01*
G37*
G36*
X552474Y712664D02*
X555673Y715863D01*
X565234Y706302D01*
X562035Y703103D01*
X552474Y712664D01*
G37*
G36*
X548939Y709128D02*
X552138Y712327D01*
X561699Y702766D01*
X558500Y699567D01*
X548939Y709128D01*
G37*
G36*
X545403Y705593D02*
X548602Y708792D01*
X558163Y699231D01*
X554964Y696032D01*
X545403Y705593D01*
G37*
G36*
X541868Y702057D02*
X545067Y705256D01*
X554628Y695695D01*
X551429Y692496D01*
X541868Y702057D01*
G37*
G36*
X538332Y698522D02*
X541531Y701721D01*
X551092Y692160D01*
X547893Y688961D01*
X538332Y698522D01*
G37*
G36*
X534797Y694986D02*
X537996Y698185D01*
X547557Y688624D01*
X544358Y685425D01*
X534797Y694986D01*
G37*
G36*
X531261Y691450D02*
X534460Y694649D01*
X544021Y685088D01*
X540822Y681889D01*
X531261Y691450D01*
G37*
G36*
X527726Y687915D02*
X530925Y691114D01*
X540486Y681553D01*
X537287Y678354D01*
X527726Y687915D01*
G37*
G36*
X524190Y684379D02*
X527389Y687578D01*
X536950Y678017D01*
X533751Y674818D01*
X524190Y684379D01*
G37*
G36*
X520654Y680844D02*
X523853Y684043D01*
X533414Y674482D01*
X530215Y671283D01*
X520654Y680844D01*
G37*
G36*
X517119Y677308D02*
X520318Y680507D01*
X529879Y670946D01*
X526680Y667747D01*
X517119Y677308D01*
G37*
G36*
X513583Y673773D02*
X516782Y676972D01*
X526343Y667411D01*
X523144Y664212D01*
X513583Y673773D01*
G37*
G36*
X510048Y670237D02*
X513247Y673436D01*
X522808Y663875D01*
X519609Y660676D01*
X510048Y670237D01*
G37*
G36*
X506512Y666702D02*
X509711Y669901D01*
X519272Y660340D01*
X516073Y657141D01*
X506512Y666702D01*
G37*
G36*
X502977Y663166D02*
X506176Y666365D01*
X515737Y656804D01*
X512538Y653605D01*
X502977Y663166D01*
G37*
G36*
X506355Y622864D02*
X503156Y626063D01*
X512717Y635624D01*
X515916Y632425D01*
X506355Y622864D01*
G37*
G36*
X509891Y619329D02*
X506692Y622528D01*
X516253Y632089D01*
X519452Y628890D01*
X509891Y619329D01*
G37*
G36*
X513426Y615793D02*
X510227Y618992D01*
X519788Y628553D01*
X522987Y625354D01*
X513426Y615793D01*
G37*
G36*
X516962Y612258D02*
X513763Y615457D01*
X523324Y625018D01*
X526523Y621819D01*
X516962Y612258D01*
G37*
G36*
X520498Y608722D02*
X517299Y611921D01*
X526860Y621482D01*
X530059Y618283D01*
X520498Y608722D01*
G37*
G36*
X524033Y605187D02*
X520834Y608386D01*
X530395Y617947D01*
X533594Y614748D01*
X524033Y605187D01*
G37*
G36*
X527569Y601651D02*
X524370Y604850D01*
X533931Y614411D01*
X537130Y611212D01*
X527569Y601651D01*
G37*
G36*
X531104Y598116D02*
X527905Y601315D01*
X537466Y610876D01*
X540665Y607677D01*
X531104Y598116D01*
G37*
G36*
X534640Y594580D02*
X531441Y597779D01*
X541002Y607340D01*
X544201Y604141D01*
X534640Y594580D01*
G37*
G36*
X538175Y591045D02*
X534976Y594244D01*
X544537Y603805D01*
X547736Y600606D01*
X538175Y591045D01*
G37*
G36*
X541711Y587509D02*
X538512Y590708D01*
X548073Y600269D01*
X551272Y597070D01*
X541711Y587509D01*
G37*
G36*
X545246Y583974D02*
X542047Y587173D01*
X551608Y596734D01*
X554807Y593535D01*
X545246Y583974D01*
G37*
G36*
X548782Y580438D02*
X545583Y583637D01*
X555144Y593198D01*
X558343Y589999D01*
X548782Y580438D01*
G37*
G36*
X552317Y576902D02*
X549118Y580101D01*
X558679Y589662D01*
X561878Y586463D01*
X552317Y576902D01*
G37*
G36*
X555853Y573367D02*
X552654Y576566D01*
X562215Y586127D01*
X565414Y582928D01*
X555853Y573367D01*
G37*
G36*
X559388Y569831D02*
X556189Y573030D01*
X565750Y582591D01*
X568949Y579392D01*
X559388Y569831D01*
G37*
G36*
X599331Y573210D02*
X596132Y570011D01*
X586571Y579572D01*
X589770Y582771D01*
X599331Y573210D01*
G37*
G36*
X602867Y576746D02*
X599668Y573547D01*
X590107Y583108D01*
X593306Y586307D01*
X602867Y576746D01*
G37*
G36*
X606402Y580281D02*
X603203Y577082D01*
X593642Y586643D01*
X596841Y589842D01*
X606402Y580281D01*
G37*
G36*
X609938Y583817D02*
X606739Y580618D01*
X597178Y590179D01*
X600377Y593378D01*
X609938Y583817D01*
G37*
G36*
X613473Y587352D02*
X610274Y584153D01*
X600713Y593714D01*
X603912Y596913D01*
X613473Y587352D01*
G37*
G36*
X617009Y590888D02*
X613810Y587689D01*
X604249Y597250D01*
X607448Y600449D01*
X617009Y590888D01*
G37*
G36*
X620544Y594423D02*
X617345Y591224D01*
X607784Y600785D01*
X610983Y603984D01*
X620544Y594423D01*
G37*
G36*
X624080Y597959D02*
X620881Y594760D01*
X611320Y604321D01*
X614519Y607520D01*
X624080Y597959D01*
G37*
G36*
X627615Y601494D02*
X624416Y598295D01*
X614855Y607856D01*
X618054Y611055D01*
X627615Y601494D01*
G37*
G36*
X631151Y605030D02*
X627952Y601831D01*
X618391Y611392D01*
X621590Y614591D01*
X631151Y605030D01*
G37*
G36*
X634686Y608565D02*
X631487Y605366D01*
X621926Y614927D01*
X625125Y618126D01*
X634686Y608565D01*
G37*
G36*
X638222Y612101D02*
X635023Y608902D01*
X625462Y618463D01*
X628661Y621662D01*
X638222Y612101D01*
G37*
G36*
X641757Y615636D02*
X638558Y612437D01*
X628997Y621998D01*
X632196Y625197D01*
X641757Y615636D01*
G37*
G36*
X645293Y619172D02*
X642094Y615973D01*
X632533Y625534D01*
X635732Y628733D01*
X645293Y619172D01*
G37*
G36*
X648828Y622707D02*
X645629Y619508D01*
X636068Y629069D01*
X639267Y632268D01*
X648828Y622707D01*
G37*
G36*
X652364Y626243D02*
X649165Y623044D01*
X639604Y632605D01*
X642803Y635804D01*
X652364Y626243D01*
G37*
G36*
X649524Y666365D02*
X652723Y663166D01*
X643162Y653605D01*
X639963Y656804D01*
X649524Y666365D01*
G37*
G36*
X645989Y669901D02*
X649188Y666702D01*
X639627Y657141D01*
X636428Y660340D01*
X645989Y669901D01*
G37*
G36*
X642453Y673436D02*
X645652Y670237D01*
X636091Y660676D01*
X632892Y663875D01*
X642453Y673436D01*
G37*
G36*
X638918Y676972D02*
X642117Y673773D01*
X632556Y664212D01*
X629357Y667411D01*
X638918Y676972D01*
G37*
G36*
X635382Y680507D02*
X638581Y677308D01*
X629020Y667747D01*
X625821Y670946D01*
X635382Y680507D01*
G37*
G36*
X631847Y684043D02*
X635046Y680844D01*
X625485Y671283D01*
X622286Y674482D01*
X631847Y684043D01*
G37*
G36*
X628311Y687578D02*
X631510Y684379D01*
X621949Y674818D01*
X618750Y678017D01*
X628311Y687578D01*
G37*
G36*
X624775Y691114D02*
X627974Y687915D01*
X618413Y678354D01*
X615214Y681553D01*
X624775Y691114D01*
G37*
G36*
X621240Y694649D02*
X624439Y691450D01*
X614878Y681889D01*
X611679Y685088D01*
X621240Y694649D01*
G37*
G36*
X617704Y698185D02*
X620903Y694986D01*
X611342Y685425D01*
X608143Y688624D01*
X617704Y698185D01*
G37*
G36*
X614169Y701721D02*
X617368Y698522D01*
X607807Y688961D01*
X604608Y692160D01*
X614169Y701721D01*
G37*
G36*
X610633Y705256D02*
X613832Y702057D01*
X604271Y692496D01*
X601072Y695695D01*
X610633Y705256D01*
G37*
G36*
X607098Y708792D02*
X610297Y705593D01*
X600736Y696032D01*
X597537Y699231D01*
X607098Y708792D01*
G37*
G36*
X603562Y712327D02*
X606761Y709128D01*
X597200Y699567D01*
X594001Y702766D01*
X603562Y712327D01*
G37*
G36*
X600027Y715863D02*
X603226Y712664D01*
X593665Y703103D01*
X590466Y706302D01*
X600027Y715863D01*
G37*
G36*
X596491Y719398D02*
X599690Y716199D01*
X590129Y706638D01*
X586930Y709837D01*
X596491Y719398D01*
G37*
D16*
G36*
X544000Y575759D02*
X554270Y565489D01*
X542586Y553805D01*
X532316Y564075D01*
X544000Y575759D01*
G37*
G36*
X530564Y589195D02*
X540834Y578925D01*
X529150Y567241D01*
X518880Y577511D01*
X530564Y589195D01*
G37*
G36*
X649800Y602166D02*
X639530Y612436D01*
X651214Y624120D01*
X661484Y613850D01*
X649800Y602166D01*
G37*
G36*
X663236Y588730D02*
X652966Y599000D01*
X664650Y610684D01*
X674920Y600414D01*
X663236Y588730D01*
G37*
D11*
X640325Y473075D03*
X623325Y473075D03*
D17*
X857250Y609600D03*
X857250Y584200D03*
X857250Y558800D03*
X857250Y533400D03*
X857250Y508000D03*
X857250Y482600D03*
D18*
X292100Y623316D03*
X292100Y684784D03*
X304800Y623316D03*
X317500Y623316D03*
X304800Y684784D03*
X317500Y684784D03*
X330200Y623316D03*
X330200Y684784D03*
X342900Y623316D03*
X355600Y623316D03*
X342900Y684784D03*
X355600Y684784D03*
X368300Y623316D03*
X368300Y684784D03*
D13*
X306950Y752475D03*
X289950Y752475D03*
X289950Y720725D03*
X306950Y720725D03*
X306950Y736600D03*
X289950Y736600D03*
D11*
X306950Y704850D03*
X289950Y704850D03*
X336550Y721750D03*
X336550Y738750D03*
D13*
X370450Y720725D03*
X353450Y720725D03*
X353450Y736600D03*
X370450Y736600D03*
D11*
X353450Y704850D03*
X370450Y704850D03*
D13*
X306950Y555625D03*
X289950Y555625D03*
X289950Y587375D03*
X306950Y587375D03*
X306950Y571500D03*
X289950Y571500D03*
D11*
X306950Y603250D03*
X289950Y603250D03*
D13*
X353450Y555625D03*
X370450Y555625D03*
X370450Y587375D03*
X353450Y587375D03*
D11*
X353450Y603250D03*
X370450Y603250D03*
D19*
X73025Y573200D03*
X63525Y595200D03*
X82525Y595200D03*
D11*
X66675Y627625D03*
X66675Y610625D03*
D13*
X82550Y610625D03*
X82550Y627625D03*
D20*
X155575Y865000D03*
X155575Y913000D03*
X57150Y655450D03*
X57150Y703450D03*
X368300Y836425D03*
X368300Y884425D03*
D11*
X529662Y863600D03*
X546662Y863600D03*
D21*
X111125Y898475D03*
X111125Y860475D03*
X60375Y742950D03*
X98375Y742950D03*
D22*
X50800Y796925D03*
X76200Y796925D03*
X50800Y822325D03*
X76200Y822325D03*
X50800Y847725D03*
X76200Y847725D03*
X50800Y873125D03*
X76200Y873125D03*
X50800Y898525D03*
X76200Y898525D03*
D13*
X353450Y571500D03*
X370450Y571500D03*
X323850Y595875D03*
X323850Y578875D03*
D23*
X622878Y451900D03*
X622878Y445400D03*
X622878Y438900D03*
X622878Y432400D03*
X622878Y425900D03*
X622878Y419400D03*
X622878Y412900D03*
X622878Y406400D03*
X622878Y399900D03*
X622878Y393400D03*
X622878Y386900D03*
X622878Y380400D03*
X622878Y373900D03*
X622878Y367400D03*
X697922Y367400D03*
X697922Y373900D03*
X697922Y380400D03*
X697922Y386900D03*
X697922Y393400D03*
X697922Y399900D03*
X697922Y406400D03*
X697922Y412900D03*
X697922Y419400D03*
X697922Y425900D03*
X697922Y432400D03*
X697922Y438900D03*
X697922Y445400D03*
X697922Y451900D03*
D11*
X667775Y466725D03*
X684775Y466725D03*
D13*
X720725Y373625D03*
X720725Y356625D03*
D24*
X752475Y339600D03*
X752475Y371600D03*
D11*
X784225Y313300D03*
X784225Y296300D03*
X800100Y296300D03*
X800100Y313300D03*
D13*
X815975Y313300D03*
X815975Y296300D03*
D11*
X831850Y313300D03*
X831850Y296300D03*
X847725Y296300D03*
X847725Y313300D03*
D13*
X863600Y313300D03*
X863600Y296300D03*
D24*
X800100Y339600D03*
X800100Y371600D03*
X847725Y339600D03*
X847725Y371600D03*
D25*
X622175Y307975D03*
X654175Y307975D03*
D11*
X555625Y299475D03*
X555625Y316475D03*
D13*
X518550Y304800D03*
X535550Y304800D03*
D26*
X437550Y320675D03*
X489550Y320675D03*
X437550Y333375D03*
X437550Y307975D03*
X437550Y295275D03*
X489550Y333375D03*
X489550Y307975D03*
X489550Y295275D03*
D11*
X536575Y338700D03*
X536575Y321700D03*
D13*
X517525Y321700D03*
X517525Y338700D03*
X767325Y120650D03*
X750325Y120650D03*
D25*
X571375Y333375D03*
X603375Y333375D03*
D13*
X414900Y288925D03*
X397900Y288925D03*
X414900Y304800D03*
X397900Y304800D03*
X397900Y320675D03*
X414900Y320675D03*
D11*
X414900Y336550D03*
X397900Y336550D03*
D13*
X616975Y120650D03*
X633975Y120650D03*
D11*
X487925Y349250D03*
X470925Y349250D03*
X453000Y279400D03*
X436000Y279400D03*
X666750Y538725D03*
X666750Y521725D03*
X641350Y538725D03*
X641350Y521725D03*
D27*
X355200Y418950D03*
X330200Y418950D03*
X305200Y418950D03*
D28*
X377200Y488950D03*
X283200Y488950D03*
D11*
X250825Y605400D03*
X250825Y588400D03*
X219075Y588400D03*
X219075Y605400D03*
X266700Y605400D03*
X266700Y588400D03*
D13*
X234950Y605400D03*
X234950Y588400D03*
D11*
X269875Y702700D03*
X269875Y719700D03*
X234950Y702700D03*
X234950Y719700D03*
D13*
X219075Y719700D03*
X219075Y702700D03*
D27*
X190100Y698350D03*
X165100Y698350D03*
X140100Y698350D03*
D28*
X212100Y768350D03*
X118100Y768350D03*
D11*
X254000Y702700D03*
X254000Y719700D03*
D29*
X241300Y628050D03*
X241300Y680050D03*
X228600Y628050D03*
X254000Y628050D03*
X266700Y628050D03*
X228600Y680050D03*
X254000Y680050D03*
X266700Y680050D03*
D30*
X76200Y1002900D03*
X51200Y1002900D03*
X51200Y952900D03*
X76200Y952900D03*
X101200Y952900D03*
X101200Y1002900D03*
D31*
X26200Y977900D03*
X126200Y977900D03*
D32*
X734900Y908050D03*
X712900Y898550D03*
X712900Y917550D03*
D13*
X677300Y917575D03*
X694300Y917575D03*
D32*
X734900Y873125D03*
X712900Y863625D03*
X712900Y882625D03*
D13*
X677300Y882650D03*
X694300Y882650D03*
X753500Y873125D03*
X770500Y873125D03*
X753500Y908050D03*
X770500Y908050D03*
D11*
X184150Y986400D03*
X184150Y969400D03*
D13*
X212725Y678425D03*
X212725Y661425D03*
D27*
X466325Y698350D03*
X441325Y698350D03*
X416325Y698350D03*
D28*
X488325Y768350D03*
X394325Y768350D03*
D27*
X577450Y418950D03*
X552450Y418950D03*
X527450Y418950D03*
D28*
X599450Y488950D03*
X505450Y488950D03*
D27*
X742550Y698350D03*
X717550Y698350D03*
X692550Y698350D03*
D28*
X764550Y768350D03*
X670550Y768350D03*
D27*
X799700Y418950D03*
X774700Y418950D03*
X749700Y418950D03*
D28*
X821700Y488950D03*
X727700Y488950D03*
D17*
X691388Y1000506D03*
X756412Y1000506D03*
X691388Y955294D03*
X756412Y955294D03*
X786638Y1000506D03*
X851662Y1000506D03*
X786638Y955294D03*
X851662Y955294D03*
D33*
X600075Y977900D03*
X600075Y952500D03*
X600075Y1003300D03*
X493712Y977900D03*
X493712Y952500D03*
X493712Y1003300D03*
X387349Y977900D03*
X387349Y952500D03*
X387349Y1003300D03*
X280987Y977900D03*
X280987Y952500D03*
X280987Y1003300D03*
D18*
X512762Y922909D03*
X512762Y861441D03*
X500062Y922909D03*
X487362Y922909D03*
X500062Y861441D03*
X487362Y861441D03*
X474662Y922909D03*
X474662Y861441D03*
X461962Y922909D03*
X461962Y861441D03*
X449262Y922909D03*
X436562Y922909D03*
X449262Y861441D03*
X436562Y861441D03*
X423862Y922909D03*
X423862Y861441D03*
D11*
X644525Y986400D03*
X644525Y969400D03*
X555625Y986400D03*
X555625Y969400D03*
X538162Y986400D03*
X538162Y969400D03*
X449262Y986400D03*
X449262Y969400D03*
X431799Y986400D03*
X431799Y969400D03*
X342899Y986400D03*
X342899Y969400D03*
X239712Y969400D03*
X239712Y986400D03*
X325437Y986400D03*
X325437Y969400D03*
D34*
X97950Y378950D03*
X77950Y378950D03*
X117950Y378950D03*
X137950Y378950D03*
X57950Y378950D03*
X157950Y378950D03*
D35*
X49950Y488950D03*
X165950Y488950D03*
D11*
X158750Y338700D03*
X158750Y321700D03*
X57150Y338700D03*
X57150Y321700D03*
D26*
X81950Y323850D03*
X133950Y323850D03*
X81950Y336550D03*
X81950Y311150D03*
X81950Y298450D03*
X133950Y336550D03*
X133950Y311150D03*
X133950Y298450D03*
D11*
X158750Y306950D03*
X158750Y289950D03*
X57150Y306950D03*
X57150Y289950D03*
X116450Y352425D03*
X99450Y352425D03*
X116450Y282575D03*
X99450Y282575D03*
D13*
X409575Y832875D03*
X409575Y849875D03*
D36*
X465325Y517525D03*
X417325Y517525D03*
D11*
X421250Y558800D03*
X404250Y558800D03*
D37*
X425069Y400304D03*
X447929Y400304D03*
X470789Y400304D03*
D38*
X447675Y463296D03*
D11*
X168275Y986400D03*
X168275Y969400D03*
D39*
X863600Y25400D03*
X31750Y1028700D03*
X25400Y25400D03*
X857250Y1028700D03*
D40*
X254000Y63500D03*
X177800Y63500D03*
X279400Y63500D03*
D41*
X222250Y63500D03*
D40*
X838200Y63500D03*
X762000Y63500D03*
X863600Y63500D03*
D41*
X806450Y63500D03*
D40*
X107950Y63500D03*
X31750Y63500D03*
X133350Y63500D03*
D41*
X76200Y63500D03*
D40*
X692150Y63500D03*
X615950Y63500D03*
X717550Y63500D03*
D41*
X660400Y63500D03*
D40*
X400050Y209550D03*
X323850Y209550D03*
X425450Y209550D03*
D41*
X368300Y209550D03*
D40*
X692150Y209550D03*
X615950Y209550D03*
X717550Y209550D03*
D41*
X660400Y209550D03*
D40*
X838200Y209550D03*
X762000Y209550D03*
X863600Y209550D03*
D41*
X806450Y209550D03*
D40*
X400050Y63500D03*
X323850Y63500D03*
X425450Y63500D03*
D41*
X368300Y63500D03*
D40*
X546100Y209550D03*
X469900Y209550D03*
X571500Y209550D03*
D41*
X514350Y209550D03*
D40*
X546100Y63500D03*
X469900Y63500D03*
X571500Y63500D03*
D41*
X514350Y63500D03*
D40*
X107950Y209550D03*
X31750Y209550D03*
X133350Y209550D03*
D41*
X76200Y209550D03*
D40*
X254000Y209550D03*
X177800Y209550D03*
X279400Y209550D03*
D41*
X222250Y209550D03*
D42*
X298450Y829075D03*
D43*
X321250Y902075D03*
X275650Y902075D03*
D20*
X225425Y865000D03*
X225425Y913000D03*
D44*
X204720Y939800D03*
X176280Y939800D03*
D10*
X713740Y571500D03*
X810260Y571500D03*
D11*
X730813Y606425D03*
X713813Y606425D03*
X793188Y606425D03*
X810188Y606425D03*
D45*
X565150Y368000D03*
X565150Y394000D03*
D46*
X698800Y492125D03*
X672800Y492125D03*
D24*
X847725Y415800D03*
X847725Y447800D03*
D11*
X640325Y485775D03*
X623325Y485775D03*
M02*
