M48
;GenerationSoftware,Autodesk,EAGLE,9.6.2*%
;CreationDate,2020-11-25T22:36:04Z*%
FMAT,2
ICI,OFF
METRIC,TZ,000.000
T10C0.600
T9C0.610
T8C0.700
T7C0.813
T6C0.900
T5C1.000
T4C1.016
T3C1.500
T2C2.200
T1C2.800
%
G90
M71
T1
X4995Y48895
X16595Y48895
T2
X22225Y6350
X80645Y6350
X7620Y6350
X66040Y6350
X36830Y20955
X66040Y20955
X80645Y20955
X36830Y6350
X51435Y20955
X51435Y6350
X7620Y20955
X22225Y20955
T3
X72770Y48895
X37720Y48895
X28320Y48895
X59945Y48895
X50545Y48895
X82170Y48895
X21210Y76835
X11810Y76835
X48832Y76835
X39433Y76835
X67055Y76835
X76455Y76835
T4
X27940Y20955
X5080Y84773
X3175Y6350
X13335Y6350
X69215Y6350
X7620Y84773
X61595Y6350
X71755Y6350
X40005Y20955
X32385Y20955
X42545Y20955
X69215Y20955
X85725Y60960
X85725Y58420
X85725Y55880
X85725Y53340
X85725Y50800
X85725Y48260
X5080Y79693
X7620Y79693
X5080Y82233
X7620Y82233
X61595Y20955
X5080Y87313
X7620Y87313
X5080Y89852
X7620Y89852
X71755Y20955
X76200Y20955
X86360Y20955
X40005Y6350
X32385Y6350
X42545Y6350
X54610Y20955
X46990Y20955
X57150Y20955
X54610Y6350
X46990Y6350
X57150Y6350
X10795Y20955
X3175Y20955
X13335Y20955
X25400Y20955
X17780Y20955
X83820Y20955
X69139Y100051
X75641Y100051
X69139Y95529
X75641Y95529
X78664Y100051
X85166Y100051
X78664Y95529
X85166Y95529
X25400Y6350
X17780Y6350
X27940Y6350
X83820Y6350
X76200Y6350
X86360Y6350
X10795Y6350
T5
X30520Y41895
X74970Y41895
X77470Y41895
X55245Y41895
X15795Y37895
X5795Y37895
X52745Y41895
X13795Y37895
X11795Y37895
X7795Y37895
X35520Y41895
X33020Y41895
X9795Y37895
X19010Y69835
X16510Y69835
X14010Y69835
X57745Y41895
X46632Y69835
X44132Y69835
X41633Y69835
X74255Y69835
X69255Y69835
X79970Y41895
X71755Y69835
T6
X7620Y100290
X5120Y100290
X5120Y95290
X7620Y95290
X10120Y100290
X10120Y95290
T7
X38735Y97790
X38735Y95250
X38735Y100330
X28099Y95250
X28099Y100330
X49371Y97790
X28099Y97790
X49371Y95250
X60007Y97790
X60007Y95250
X60007Y100330
X49371Y100330
T8
X2620Y97790
X12620Y97790
T9
X85090Y67628
X86360Y67628
X86360Y68898
X85090Y70168
X86360Y70168
X85090Y66358
X85090Y68898
X85090Y65087
X86360Y65087
X86360Y66358
T10
X69533Y63500
X62230Y62547
X64135Y93662
X70168Y93662
X85090Y104775
X66675Y50800
X63500Y83503
X55245Y63182
X10795Y30480
X86360Y26670
X57150Y29845
X41116Y92392
X33020Y70803
X27940Y67945
X27940Y62547
X32385Y56197
X47942Y64452
X73343Y34290
X52070Y54292
X68421Y62547
X58420Y74613
X15557Y83503
X45720Y26035
X46990Y36513
X20955Y64770
X46990Y48895
X61595Y50800
X70803Y52387
X67628Y56197
X71438Y46355
X72390Y41275
X49212Y72073
X56515Y78740
X1270Y104775
X8890Y104775
X16510Y104775
X24130Y104775
X31750Y104775
X39370Y104775
X46990Y104775
X86360Y63182
X54610Y104775
X62230Y104775
X69850Y104775
X77470Y104775
X87630Y102870
X87630Y95250
X87630Y41910
X87630Y3810
X87630Y11430
X85090Y1270
X77470Y1270
X69850Y1270
X62230Y1270
X54610Y1270
X46990Y1270
X31750Y1270
X16510Y1270
X1270Y1270
X1270Y8890
X1270Y16510
X87630Y80010
X87630Y73025
X40640Y58102
X40640Y60642
X27622Y57467
X65087Y42545
X67628Y38418
X73025Y59055
X76200Y65405
X79375Y59055
X67945Y86678
X69850Y85090
X58737Y69215
X45402Y60007
X45402Y64452
X53022Y64135
X42228Y42863
X47307Y42863
X33655Y92075
X36830Y80963
X40958Y87630
X7620Y68580
X8890Y56515
X56356Y86360
X22542Y83503
X59372Y36513
X68898Y83185
X74613Y83185
X66358Y67945
X57785Y65405
X79058Y65405
X79058Y68580
X80963Y65405
X80963Y68580
X60960Y53657
X60007Y56197
X66358Y41275
X19685Y59690
X33655Y59690
X42863Y59690
X83185Y55245
X82868Y71120
X76835Y44767
X59055Y63182
X66040Y55880
X59372Y61595
X64770Y55245
X30480Y26035
X33020Y18415
X2857Y33973
X48895Y39053
X13335Y35243
X7620Y50800
X9525Y50800
X45402Y15240
X48895Y36195
X27622Y73660
X27622Y77788
X27305Y39370
X39370Y39370
X36195Y39370
X13970Y75248
X21907Y39370
X9843Y26670
X4128Y27940
X44132Y16192
X44132Y25717
X11112Y80963
X13970Y18098
X56515Y44132
X77788Y93662
X62547Y84455
X54292Y61912
X61595Y85408
X60007Y67628
X11430Y32385
X17463Y32385
X8255Y35560
X79693Y9208
X77470Y9208
X71755Y65405
X51276Y88582
X48736Y88582
X60325Y73025
X47942Y61912
X65087Y81915
X64135Y50165
M30